STARTFONT 2.1
COMMENT
COMMENT Converted from OpenType font "DejaVuSansCondensed.ttf" by "otf2bdf 3.0".
COMMENT
FONT -FreeType-DejaVu Sans Condensed-Medium-R-Normal--33-240-100-100-P-167-ISO10646-1
SIZE 24 100 100
FONTBOUNDINGBOX 80 49 -30 -13
STARTPROPERTIES 19
FOUNDRY "FreeType"
FAMILY_NAME "DejaVu Sans Condensed"
WEIGHT_NAME "Medium"
SLANT "R"
SETWIDTH_NAME "Normal"
ADD_STYLE_NAME ""
PIXEL_SIZE 33
POINT_SIZE 240
RESOLUTION_X 100
RESOLUTION_Y 100
SPACING "P"
AVERAGE_WIDTH 167
CHARSET_REGISTRY "ISO10646"
CHARSET_ENCODING "1"
FONT_ASCENT 30
FONT_DESCENT 7
COPYRIGHT "Copyright (c) 2003 by Bitstream, Inc. All Rights Reserved.  Copyright (c) 2006 by Tavmjong Bah. All Rights Reserved.  DejaVu changes are in public domain  "
_OTF_FONTFILE "DejaVuSansCondensed.ttf"
_OTF_PSNAME "DejaVuSansCondensed"
ENDPROPERTIES
CHARS 5370
STARTCHAR 0020
ENCODING 32
SWIDTH 270 0
DWIDTH 9 0
BBX 0 0 0 0
BITMAP
ENDCHAR
STARTCHAR 0021
ENCODING 33
SWIDTH 360 0
DWIDTH 12 0
BBX 3 24 4 0
BITMAP
E0
E0
E0
E0
E0
E0
E0
E0
E0
E0
E0
60
60
60
60
60
00
00
00
00
E0
E0
E0
E0
ENDCHAR
STARTCHAR 0022
ENCODING 34
SWIDTH 420 0
DWIDTH 14 0
BBX 8 9 3 15
BITMAP
C7
C7
C7
C7
C7
C7
C7
C7
C7
ENDCHAR
STARTCHAR 0023
ENCODING 35
SWIDTH 750 0
DWIDTH 25 0
BBX 21 24 2 0
BITMAP
0061C0
00E180
00E180
00C180
00C380
00C300
01C300
3FFFF8
3FFFF8
018700
038600
038600
030E00
030E00
070C00
FFFFE0
FFFFE0
061C00
061C00
0E1800
0C1800
0C3800
0C3800
1C3000
ENDCHAR
STARTCHAR 0024
ENCODING 36
SWIDTH 570 0
DWIDTH 19 0
BBX 14 30 2 -5
BITMAP
0100
0100
0100
0100
1FF8
3FF8
7918
7100
6100
E100
6100
7100
7D00
3FC0
0FF0
01F8
013C
011C
010C
010C
011C
C11C
F978
FFF0
1FC0
0100
0100
0100
0100
0100
ENDCHAR
STARTCHAR 0025
ENCODING 37
SWIDTH 840 0
DWIDTH 28 0
BBX 25 25 2 0
BITMAP
00003000
3F007000
7F006000
E380C000
C180C000
C1C18000
C1C38000
C1C30000
C1C70000
C1860000
E18E0000
778C0000
3F1C1000
0818FE00
0030EE00
0031C700
00618300
00E18380
00C18380
01C18380
01818300
03818300
0301C700
0700FE00
06007C00
ENDCHAR
STARTCHAR 0026
ENCODING 38
SWIDTH 690 0
DWIDTH 23 0
BBX 20 24 2 1
BITMAP
07F800
0FF800
1E1800
1C0000
380000
380000
380000
1C0000
1E0000
1E0000
3F0000
3B80E0
73C0E0
E1E0E0
E0F0E0
E078C0
E03DC0
E01F80
E00F80
F00700
700F80
7C3FC0
3FF9E0
0FF0F0
ENDCHAR
STARTCHAR 0027
ENCODING 39
SWIDTH 240 0
DWIDTH 8 0
BBX 2 9 3 15
BITMAP
C0
C0
C0
C0
C0
C0
C0
C0
C0
ENDCHAR
STARTCHAR 0028
ENCODING 40
SWIDTH 360 0
DWIDTH 12 0
BBX 6 29 3 -4
BITMAP
0C
18
18
38
30
70
70
60
E0
E0
E0
E0
C0
C0
C0
C0
C0
E0
E0
E0
E0
E0
60
70
30
30
38
18
1C
ENDCHAR
STARTCHAR 0029
ENCODING 41
SWIDTH 360 0
DWIDTH 12 0
BBX 6 29 3 -4
BITMAP
C0
E0
60
60
70
30
38
38
18
18
1C
1C
1C
1C
1C
1C
1C
1C
1C
1C
18
38
38
30
70
70
60
E0
C0
ENDCHAR
STARTCHAR 002A
ENCODING 42
SWIDTH 450 0
DWIDTH 15 0
BBX 13 16 1 9
BITMAP
0200
0200
0200
0200
C238
7270
1BC0
0F80
0F80
1FC0
7270
E238
0200
0200
0200
0200
ENDCHAR
STARTCHAR 002B
ENCODING 43
SWIDTH 750 0
DWIDTH 25 0
BBX 19 21 3 0
BITMAP
00E000
00E000
00E000
00E000
00E000
00E000
00E000
00E000
00E000
FFFFE0
FFFFE0
FFFFE0
00E000
00E000
00E000
00E000
00E000
00E000
00E000
00E000
00E000
ENDCHAR
STARTCHAR 002C
ENCODING 44
SWIDTH 270 0
DWIDTH 9 0
BBX 5 8 2 -4
BITMAP
78
78
78
70
70
60
60
C0
ENDCHAR
STARTCHAR 002D
ENCODING 45
SWIDTH 330 0
DWIDTH 11 0
BBX 8 2 1 8
BITMAP
FF
FF
ENDCHAR
STARTCHAR 002E
ENCODING 46
SWIDTH 270 0
DWIDTH 9 0
BBX 3 4 3 0
BITMAP
E0
E0
E0
E0
ENDCHAR
STARTCHAR 002F
ENCODING 47
SWIDTH 300 0
DWIDTH 10 0
BBX 10 27 0 -3
BITMAP
01C0
01C0
0180
0180
0380
0300
0300
0700
0700
0600
0600
0E00
0E00
0C00
1C00
1C00
1800
1800
3800
3800
3000
3000
7000
6000
6000
E000
E000
ENDCHAR
STARTCHAR 0030
ENCODING 48
SWIDTH 570 0
DWIDTH 19 0
BBX 15 24 2 1
BITMAP
0FE0
1FF0
3C78
7838
701C
701C
E01C
E00E
E00E
E00E
E00E
E00E
E00E
E00E
E00E
E00E
E00E
E01C
701C
701C
7838
3C78
1FF0
0FE0
ENDCHAR
STARTCHAR 0031
ENCODING 49
SWIDTH 570 0
DWIDTH 19 0
BBX 13 24 3 0
BITMAP
1F00
FF00
FF00
E700
0700
0700
0700
0700
0700
0700
0700
0700
0700
0700
0700
0700
0700
0700
0700
0700
0700
7FF8
7FF8
7FF8
ENDCHAR
STARTCHAR 0032
ENCODING 50
SWIDTH 570 0
DWIDTH 19 0
BBX 14 24 2 1
BITMAP
3FE0
FFF0
F8F8
C038
003C
001C
001C
001C
003C
0038
0078
0070
00E0
01C0
03C0
0780
0F00
1E00
1C00
3800
7000
FFFC
FFFC
FFFC
ENDCHAR
STARTCHAR 0033
ENCODING 51
SWIDTH 570 0
DWIDTH 19 0
BBX 15 24 2 1
BITMAP
7FE0
7FF0
70F8
003C
001C
001C
001C
001C
0038
0078
0FE0
0FE0
01F8
003C
001C
001C
000C
000E
001C
001C
803C
F0F8
FFF0
7FE0
ENDCHAR
STARTCHAR 0034
ENCODING 52
SWIDTH 570 0
DWIDTH 19 0
BBX 16 24 1 0
BITMAP
0078
0078
00F8
01F8
01B8
03B8
0338
0738
0E38
0C38
1C38
1838
3838
7038
6038
E038
FFFF
FFFF
0038
0038
0038
0038
0038
0038
ENDCHAR
STARTCHAR 0035
ENCODING 53
SWIDTH 570 0
DWIDTH 19 0
BBX 14 24 2 0
BITMAP
7FF8
7FF8
7FF8
7000
7000
7000
7000
7000
7F80
7FE0
7FF0
4078
003C
001C
001C
001C
001C
001C
001C
001C
8038
F1F8
FFF0
FFC0
ENDCHAR
STARTCHAR 0036
ENCODING 54
SWIDTH 570 0
DWIDTH 19 0
BBX 15 24 2 1
BITMAP
07FC
0FFC
1E1C
3C00
3800
7000
7000
E000
E3C0
EFF0
FFF8
F83C
F01C
F00E
F00E
F00E
F00E
700E
700E
701E
381C
3C3C
1FF8
0FF0
ENDCHAR
STARTCHAR 0037
ENCODING 55
SWIDTH 570 0
DWIDTH 19 0
BBX 14 24 2 0
BITMAP
FFFC
FFFC
FFFC
001C
0038
0038
0078
0070
0070
00F0
00E0
00E0
01C0
01C0
01C0
0380
0380
0380
0700
0700
0700
0E00
0E00
0E00
ENDCHAR
STARTCHAR 0038
ENCODING 56
SWIDTH 570 0
DWIDTH 19 0
BBX 15 24 2 1
BITMAP
1FF0
3FF8
787C
701C
701C
601C
601C
701C
701C
3838
1FF0
0FE0
3FF8
783C
701C
E00E
E00E
E00E
E00E
E01E
701C
787C
3FF8
1FF0
ENDCHAR
STARTCHAR 0039
ENCODING 57
SWIDTH 570 0
DWIDTH 19 0
BBX 15 24 2 1
BITMAP
1FE0
3FF0
7878
7038
E01C
E01C
E01C
E01C
E01E
E01E
E01E
F03E
787E
3FFE
1FEE
078E
001C
001C
001C
0038
0078
71F0
7FE0
7FC0
ENDCHAR
STARTCHAR 003A
ENCODING 58
SWIDTH 300 0
DWIDTH 10 0
BBX 4 17 3 0
BITMAP
F0
F0
F0
F0
00
00
00
00
00
00
00
00
00
F0
F0
F0
F0
ENDCHAR
STARTCHAR 003B
ENCODING 59
SWIDTH 300 0
DWIDTH 10 0
BBX 5 21 2 -4
BITMAP
78
78
78
78
00
00
00
00
00
00
00
00
00
78
78
78
70
70
60
60
C0
ENDCHAR
STARTCHAR 003C
ENCODING 60
SWIDTH 750 0
DWIDTH 25 0
BBX 19 17 3 2
BITMAP
000060
0001E0
000FE0
003F80
01FC00
07F000
3F8000
FE0000
F00000
FC0000
7F0000
0FE000
03FC00
007F00
001FE0
0003E0
0000E0
ENDCHAR
STARTCHAR 003D
ENCODING 61
SWIDTH 750 0
DWIDTH 25 0
BBX 19 9 3 6
BITMAP
FFFFE0
FFFFE0
FFFFE0
000000
000000
000000
000000
FFFFE0
FFFFE0
ENDCHAR
STARTCHAR 003E
ENCODING 62
SWIDTH 750 0
DWIDTH 25 0
BBX 19 17 3 2
BITMAP
C00000
F00000
FE0000
3F8000
07F000
01FC00
003F80
000FE0
0001E0
0007E0
003FC0
00FE00
07F800
1FC000
FF0000
F80000
E00000
ENDCHAR
STARTCHAR 003F
ENCODING 63
SWIDTH 480 0
DWIDTH 16 0
BBX 12 24 2 1
BITMAP
3F80
FFC0
F1E0
80E0
0070
0070
0070
00E0
01E0
03C0
0780
0700
0E00
0E00
0E00
0E00
0E00
0E00
0000
0000
0E00
0E00
0E00
0E00
ENDCHAR
STARTCHAR 0040
ENCODING 64
SWIDTH 900 0
DWIDTH 30 0
BBX 26 29 2 -6
BITMAP
007F8000
01FFF000
07C0F800
0F001C00
1C000E00
18000700
30000300
703C6380
607F6180
60FFE180
E1C1E180
C1C0E1C0
C18060C0
C18061C0
C1806180
C1806180
C180E180
C1C0E300
E0E1E700
60FFFE00
607F7C00
30084000
38000000
1C000000
0E001800
07807800
03FFF000
00FFC000
001E0000
ENDCHAR
STARTCHAR 0041
ENCODING 65
SWIDTH 600 0
DWIDTH 20 0
BBX 20 24 0 0
BITMAP
00F000
00F000
00F800
01F800
01D800
019C00
039C00
038C00
030E00
070E00
070600
0E0700
0E0700
0E0300
1C0380
1FFF80
1FFFC0
3FFFC0
3801C0
3800E0
7000E0
7000E0
700070
E00070
ENDCHAR
STARTCHAR 0042
ENCODING 66
SWIDTH 600 0
DWIDTH 20 0
BBX 15 24 3 0
BITMAP
FFE0
FFF8
FFF8
E03C
E01C
E01C
E01C
E01C
E01C
E078
FFF0
FFF0
FFF8
E01C
E00E
E00E
E00E
E00E
E00E
E00E
E01E
FFFC
FFF8
FFE0
ENDCHAR
STARTCHAR 0043
ENCODING 67
SWIDTH 630 0
DWIDTH 21 0
BBX 17 24 2 1
BITMAP
03FE00
0FFF80
1F0780
3C0180
780080
700000
F00000
E00000
E00000
E00000
E00000
E00000
E00000
E00000
E00000
E00000
E00000
F00000
700000
780080
3C0180
1F0780
0FFF80
03FE00
ENDCHAR
STARTCHAR 0044
ENCODING 68
SWIDTH 690 0
DWIDTH 23 0
BBX 18 24 3 0
BITMAP
FFE000
FFF800
FFFE00
E01F00
E00700
E00780
E00380
E003C0
E001C0
E001C0
E001C0
E001C0
E001C0
E001C0
E001C0
E001C0
E003C0
E00380
E00780
E00F00
E01F00
FFFE00
FFF800
FFC000
ENDCHAR
STARTCHAR 0045
ENCODING 69
SWIDTH 570 0
DWIDTH 19 0
BBX 14 24 3 0
BITMAP
FFFC
FFFC
FFFC
E000
E000
E000
E000
E000
E000
E000
FFF8
FFF8
FFF8
E000
E000
E000
E000
E000
E000
E000
E000
FFFC
FFFC
FFFC
ENDCHAR
STARTCHAR 0046
ENCODING 70
SWIDTH 510 0
DWIDTH 17 0
BBX 12 24 3 0
BITMAP
FFF0
FFF0
FFF0
E000
E000
E000
E000
E000
E000
E000
FFE0
FFE0
FFE0
E000
E000
E000
E000
E000
E000
E000
E000
E000
E000
E000
ENDCHAR
STARTCHAR 0047
ENCODING 71
SWIDTH 690 0
DWIDTH 23 0
BBX 19 24 2 1
BITMAP
03FF00
0FFFC0
1F07C0
3C00C0
780040
700000
F00000
E00000
E00000
E00000
E00000
E01FE0
E01FE0
E01FE0
E000E0
E000E0
E000E0
F000E0
7000E0
7800E0
3C00E0
1F07E0
0FFFC0
03FF00
ENDCHAR
STARTCHAR 0048
ENCODING 72
SWIDTH 660 0
DWIDTH 22 0
BBX 16 24 3 0
BITMAP
E007
E007
E007
E007
E007
E007
E007
E007
E007
E007
FFFF
FFFF
FFFF
E007
E007
E007
E007
E007
E007
E007
E007
E007
E007
E007
ENDCHAR
STARTCHAR 0049
ENCODING 73
SWIDTH 270 0
DWIDTH 9 0
BBX 3 24 3 0
BITMAP
E0
E0
E0
E0
E0
E0
E0
E0
E0
E0
E0
E0
E0
E0
E0
E0
E0
E0
E0
E0
E0
E0
E0
E0
ENDCHAR
STARTCHAR 004A
ENCODING 74
SWIDTH 270 0
DWIDTH 9 0
BBX 8 31 -2 -7
BITMAP
07
07
07
07
07
07
07
07
07
07
07
07
07
07
07
07
07
07
07
07
07
07
07
07
07
07
0E
1E
FC
FC
E0
ENDCHAR
STARTCHAR 004B
ENCODING 75
SWIDTH 570 0
DWIDTH 19 0
BBX 17 24 3 0
BITMAP
E00F00
E01E00
E03C00
E07800
E0F000
E1E000
E3C000
E78000
EF0000
FE0000
FC0000
FC0000
FE0000
EF0000
E78000
E38000
E1C000
E1E000
E0F000
E07800
E03C00
E01E00
E00F00
E00780
ENDCHAR
STARTCHAR 004C
ENCODING 76
SWIDTH 510 0
DWIDTH 17 0
BBX 13 24 3 0
BITMAP
E000
E000
E000
E000
E000
E000
E000
E000
E000
E000
E000
E000
E000
E000
E000
E000
E000
E000
E000
E000
E000
FFF8
FFF8
FFF8
ENDCHAR
STARTCHAR 004D
ENCODING 77
SWIDTH 780 0
DWIDTH 26 0
BBX 20 24 3 0
BITMAP
F001F0
F801F0
F803F0
F803F0
FC0370
EC0770
EC0770
EE0670
E60E70
E70E70
E70C70
E31C70
E39C70
E39870
E1B870
E1F870
E1F070
E0F070
E0F070
E00070
E00070
E00070
E00070
E00070
ENDCHAR
STARTCHAR 004E
ENCODING 78
SWIDTH 660 0
DWIDTH 22 0
BBX 16 24 3 0
BITMAP
F007
F807
F807
FC07
FC07
EE07
EE07
EE07
E707
E707
E387
E387
E1C7
E1C7
E0E7
E0E7
E077
E077
E03F
E03F
E01F
E01F
E00F
E00F
ENDCHAR
STARTCHAR 004F
ENCODING 79
SWIDTH 690 0
DWIDTH 23 0
BBX 20 24 2 1
BITMAP
07FC00
0FFF00
1F0F80
3C0380
7801C0
7001E0
F000E0
E000E0
E000E0
E000F0
E00070
E00070
E00070
E00070
E000F0
E000E0
E000E0
F000E0
7001E0
7801C0
3C0380
1F0F80
0FFF00
07FC00
ENDCHAR
STARTCHAR 0050
ENCODING 80
SWIDTH 540 0
DWIDTH 18 0
BBX 14 24 3 0
BITMAP
FFC0
FFF0
FFF8
E078
E03C
E01C
E01C
E01C
E01C
E03C
E038
E0F8
FFF0
FFE0
E000
E000
E000
E000
E000
E000
E000
E000
E000
E000
ENDCHAR
STARTCHAR 0051
ENCODING 81
SWIDTH 690 0
DWIDTH 23 0
BBX 20 28 2 -3
BITMAP
07FC00
0FFF00
1F0F80
3C0380
7801C0
7001E0
F000E0
E000E0
E000E0
E000F0
E00070
E00070
E00070
E00070
E000F0
E000E0
E000E0
F000E0
7001C0
7801C0
3C0380
1F0F80
0FFE00
07FC00
001E00
000E00
000700
000780
ENDCHAR
STARTCHAR 0052
ENCODING 82
SWIDTH 630 0
DWIDTH 21 0
BBX 17 24 3 0
BITMAP
FFC000
FFF000
FFF800
E07800
E03C00
E01C00
E01C00
E01C00
E01C00
E03800
E07800
FFF000
FFE000
FFE000
E07000
E03800
E03800
E01C00
E01C00
E00E00
E00E00
E00700
E00700
E00780
ENDCHAR
STARTCHAR 0053
ENCODING 83
SWIDTH 570 0
DWIDTH 19 0
BBX 15 24 2 1
BITMAP
1FF8
3FFC
7C3C
F004
E000
E000
E000
E000
F000
7C00
7FC0
3FF0
0FF8
007C
001E
000E
000E
000E
000E
000E
C01E
F07C
FFF8
3FF0
ENDCHAR
STARTCHAR 0054
ENCODING 84
SWIDTH 540 0
DWIDTH 18 0
BBX 18 24 0 0
BITMAP
FFFFC0
FFFFC0
FFFFC0
00E000
00E000
00E000
00E000
00E000
00E000
00E000
00E000
00E000
00E000
00E000
00E000
00E000
00E000
00E000
00E000
00E000
00E000
00E000
00E000
00E000
ENDCHAR
STARTCHAR 0055
ENCODING 85
SWIDTH 660 0
DWIDTH 22 0
BBX 16 24 3 0
BITMAP
E007
E007
E007
E007
E007
E007
E007
E007
E007
E007
E007
E007
E007
E007
E007
E007
E007
E007
E007
E00E
700E
7C3E
3FFC
1FF0
ENDCHAR
STARTCHAR 0056
ENCODING 86
SWIDTH 600 0
DWIDTH 20 0
BBX 20 24 0 0
BITMAP
E00070
7000F0
7000E0
7000E0
3801E0
3801C0
3C01C0
1C03C0
1C0380
0E0380
0E0700
0E0700
070700
070E00
070E00
038E00
039C00
039C00
01DC00
01F800
01F800
00F800
00F000
00F000
ENDCHAR
STARTCHAR 0057
ENCODING 87
SWIDTH 870 0
DWIDTH 29 0
BBX 27 24 1 0
BITMAP
E00E00E0
E00F00E0
701F00E0
701F00E0
701B01C0
701B81C0
701B81C0
383981C0
38398380
38318380
3831C380
1C70C380
1C70C380
1C60C700
1C60E700
1C60E700
0EE06700
0EE06E00
0EC06E00
0EC07E00
07C03E00
07C03E00
07803C00
07803C00
ENDCHAR
STARTCHAR 0058
ENCODING 88
SWIDTH 600 0
DWIDTH 20 0
BBX 18 24 1 0
BITMAP
7003C0
380380
3C0700
1C0700
0E0E00
0E1E00
071C00
07B800
03B800
01F000
01F000
01E000
01F000
03F000
03B800
073800
0F1C00
0E1E00
1C0E00
1C0700
380700
780380
7003C0
E001C0
ENDCHAR
STARTCHAR 0059
ENCODING 89
SWIDTH 540 0
DWIDTH 18 0
BBX 18 24 0 0
BITMAP
E001C0
700380
380380
380700
1C0E00
1C0E00
0E1C00
073C00
073800
03F000
03F000
01E000
00E000
00E000
00E000
00E000
00E000
00E000
00E000
00E000
00E000
00E000
00E000
00E000
ENDCHAR
STARTCHAR 005A
ENCODING 90
SWIDTH 600 0
DWIDTH 20 0
BBX 18 24 1 0
BITMAP
7FFFC0
7FFFC0
7FFFC0
000780
000700
000E00
001E00
001C00
003800
007800
00F000
00E000
01C000
03C000
078000
070000
0E0000
1E0000
1C0000
380000
780000
FFFFC0
FFFFC0
FFFFC0
ENDCHAR
STARTCHAR 005B
ENCODING 91
SWIDTH 360 0
DWIDTH 12 0
BBX 6 29 3 -4
BITMAP
FC
FC
C0
C0
C0
C0
C0
C0
C0
C0
C0
C0
C0
C0
C0
C0
C0
C0
C0
C0
C0
C0
C0
C0
C0
C0
C0
FC
FC
ENDCHAR
STARTCHAR 005C
ENCODING 92
SWIDTH 300 0
DWIDTH 10 0
BBX 10 27 0 -3
BITMAP
E000
E000
6000
6000
7000
3000
3000
3800
3800
1800
1800
1C00
1C00
0C00
0E00
0E00
0600
0600
0700
0700
0300
0300
0380
0180
0180
01C0
01C0
ENDCHAR
STARTCHAR 005D
ENCODING 93
SWIDTH 360 0
DWIDTH 12 0
BBX 6 29 3 -4
BITMAP
FC
FC
1C
1C
1C
1C
1C
1C
1C
1C
1C
1C
1C
1C
1C
1C
1C
1C
1C
1C
1C
1C
1C
1C
1C
1C
1C
FC
FC
ENDCHAR
STARTCHAR 005E
ENCODING 94
SWIDTH 750 0
DWIDTH 25 0
BBX 17 9 4 15
BITMAP
01C000
03E000
07F000
0E7800
1C3C00
381E00
700F00
E00700
C00380
ENDCHAR
STARTCHAR 005F
ENCODING 95
SWIDTH 450 0
DWIDTH 15 0
BBX 15 3 0 -8
BITMAP
FFFE
FFFE
FFFE
ENDCHAR
STARTCHAR 0060
ENCODING 96
SWIDTH 450 0
DWIDTH 15 0
BBX 6 6 3 20
BITMAP
E0
70
30
18
1C
0C
ENDCHAR
STARTCHAR 0061
ENCODING 97
SWIDTH 540 0
DWIDTH 18 0
BBX 14 18 2 0
BITMAP
3FE0
7FF0
6070
0038
0018
0018
0018
1FF8
7FFC
F01C
E01C
E01C
C03C
E03C
E07C
F0FC
7FDC
3F9C
ENDCHAR
STARTCHAR 0062
ENCODING 98
SWIDTH 570 0
DWIDTH 19 0
BBX 14 25 3 0
BITMAP
C000
C000
C000
C000
C000
C000
C000
CFE0
DFF0
F878
F038
E01C
E01C
E01C
C01C
C01C
C01C
C01C
E01C
E01C
E01C
F038
F878
DFF0
CFE0
ENDCHAR
STARTCHAR 0063
ENCODING 99
SWIDTH 480 0
DWIDTH 16 0
BBX 12 18 2 0
BITMAP
0FF0
3FF0
7C10
7000
E000
E000
E000
E000
C000
C000
E000
E000
E000
E000
7000
7C30
3FF0
0FF0
ENDCHAR
STARTCHAR 0064
ENCODING 100
SWIDTH 570 0
DWIDTH 19 0
BBX 14 25 2 0
BITMAP
001C
001C
001C
001C
001C
001C
001C
1FDC
3FFC
787C
703C
E01C
E01C
E01C
C01C
C01C
C01C
C01C
E01C
E01C
E01C
703C
787C
3FFC
1FDC
ENDCHAR
STARTCHAR 0065
ENCODING 101
SWIDTH 540 0
DWIDTH 18 0
BBX 15 18 2 0
BITMAP
0FE0
3FF0
7838
701C
E01C
E00C
E00E
FFFE
FFFE
FFFE
C000
E000
E000
E000
7000
3C1C
3FFC
0FF8
ENDCHAR
STARTCHAR 0066
ENCODING 102
SWIDTH 300 0
DWIDTH 10 0
BBX 10 25 1 0
BITMAP
07C0
1FC0
1E00
3800
3800
3800
3800
FF80
FF80
3800
3800
3800
3800
3800
3800
3800
3800
3800
3800
3800
3800
3800
3800
3800
3800
ENDCHAR
STARTCHAR 0067
ENCODING 103
SWIDTH 570 0
DWIDTH 19 0
BBX 14 25 2 -7
BITMAP
1FDC
3FFC
787C
703C
E01C
E01C
E01C
C01C
C01C
C01C
C01C
E01C
E01C
E03C
703C
7FFC
3FDC
0F9C
001C
001C
0038
0038
3FF0
3FE0
1F80
ENDCHAR
STARTCHAR 0068
ENCODING 104
SWIDTH 570 0
DWIDTH 19 0
BBX 13 25 3 0
BITMAP
C000
C000
C000
C000
C000
C000
C000
CFE0
DFF0
D870
F038
E038
E038
C018
C018
C018
C018
C018
C018
C018
C018
C018
C018
C018
C018
ENDCHAR
STARTCHAR 0069
ENCODING 105
SWIDTH 240 0
DWIDTH 8 0
BBX 2 25 3 0
BITMAP
C0
C0
C0
C0
00
00
00
C0
C0
C0
C0
C0
C0
C0
C0
C0
C0
C0
C0
C0
C0
C0
C0
C0
C0
ENDCHAR
STARTCHAR 006A
ENCODING 106
SWIDTH 240 0
DWIDTH 8 0
BBX 6 32 -1 -7
BITMAP
0C
0C
0C
0C
00
00
00
0C
0C
0C
0C
0C
0C
0C
0C
0C
0C
0C
0C
0C
0C
0C
0C
0C
0C
0C
0C
0C
1C
FC
F8
F0
ENDCHAR
STARTCHAR 006B
ENCODING 107
SWIDTH 510 0
DWIDTH 17 0
BBX 14 25 3 0
BITMAP
C000
C000
C000
C000
C000
C000
C000
C038
C070
C0E0
C1C0
C380
C700
CE00
DC00
F800
DC00
CE00
C700
C780
C3C0
C1E0
C0F0
C078
C03C
ENDCHAR
STARTCHAR 006C
ENCODING 108
SWIDTH 240 0
DWIDTH 8 0
BBX 2 25 3 0
BITMAP
C0
C0
C0
C0
C0
C0
C0
C0
C0
C0
C0
C0
C0
C0
C0
C0
C0
C0
C0
C0
C0
C0
C0
C0
C0
ENDCHAR
STARTCHAR 006D
ENCODING 109
SWIDTH 870 0
DWIDTH 29 0
BBX 23 18 3 0
BITMAP
CFE1F8
DFF3FC
F8F61E
F07C0E
E03C0E
E03806
C03806
C03806
C03806
C03806
C03806
C03806
C03806
C03806
C03806
C03806
C03806
C03806
ENDCHAR
STARTCHAR 006E
ENCODING 110
SWIDTH 570 0
DWIDTH 19 0
BBX 13 18 3 0
BITMAP
CFE0
DFF0
D870
F038
E038
E038
C018
C018
C018
C018
C018
C018
C018
C018
C018
C018
C018
C018
ENDCHAR
STARTCHAR 006F
ENCODING 111
SWIDTH 540 0
DWIDTH 18 0
BBX 15 18 2 0
BITMAP
1FE0
3FF0
7878
7038
E01C
E01C
E01C
E00C
C00E
C00E
E00C
E01C
E01C
E01C
7038
7878
3FF0
1FE0
ENDCHAR
STARTCHAR 0070
ENCODING 112
SWIDTH 570 0
DWIDTH 19 0
BBX 14 25 3 -7
BITMAP
CFE0
DFF0
F878
F038
E01C
E01C
E01C
C01C
C01C
C01C
C01C
E01C
E01C
E01C
F038
F878
DFF0
CFE0
C000
C000
C000
C000
C000
C000
C000
ENDCHAR
STARTCHAR 0071
ENCODING 113
SWIDTH 570 0
DWIDTH 19 0
BBX 14 25 2 -7
BITMAP
1FDC
3FFC
787C
703C
E01C
E01C
E01C
C01C
C01C
C01C
C01C
E01C
E01C
E01C
703C
787C
3FFC
1FDC
001C
001C
001C
001C
001C
001C
001C
ENDCHAR
STARTCHAR 0072
ENCODING 114
SWIDTH 360 0
DWIDTH 12 0
BBX 9 18 3 0
BITMAP
CF80
DF80
F800
F000
E000
E000
E000
C000
C000
C000
C000
C000
C000
C000
C000
C000
C000
C000
ENDCHAR
STARTCHAR 0073
ENCODING 115
SWIDTH 450 0
DWIDTH 15 0
BBX 12 18 2 0
BITMAP
3FE0
7FE0
F060
E000
C000
C000
E000
FC00
7F80
1FE0
01E0
0070
0070
0070
0070
C0E0
FFE0
FF80
ENDCHAR
STARTCHAR 0074
ENCODING 116
SWIDTH 360 0
DWIDTH 12 0
BBX 10 23 1 0
BITMAP
3000
3000
3000
3000
3000
FFC0
FFC0
3000
3000
3000
3000
3000
3000
3000
3000
3000
3000
3000
3800
3800
3E00
1FC0
0FC0
ENDCHAR
STARTCHAR 0075
ENCODING 117
SWIDTH 570 0
DWIDTH 19 0
BBX 13 18 3 0
BITMAP
C038
C038
C038
C038
C038
C038
C038
C038
C038
C038
C038
C038
C038
E038
E078
F0F8
7FF8
3F38
ENDCHAR
STARTCHAR 0076
ENCODING 118
SWIDTH 540 0
DWIDTH 18 0
BBX 16 18 1 0
BITMAP
E007
E00E
700E
700E
701C
381C
3818
3838
1C38
1C30
1C70
0E70
0E60
0EE0
07E0
07C0
07C0
03C0
ENDCHAR
STARTCHAR 0077
ENCODING 119
SWIDTH 720 0
DWIDTH 24 0
BBX 22 18 1 0
BITMAP
E0781C
60781C
707818
707C18
70FC38
30EC38
30CC38
38CC30
38CE70
39C670
198670
1D8660
1D87E0
1F83E0
0F03E0
0F03C0
0F03C0
0F01C0
ENDCHAR
STARTCHAR 0078
ENCODING 120
SWIDTH 540 0
DWIDTH 18 0
BBX 15 18 1 0
BITMAP
700E
781C
383C
1C38
1E70
0EF0
07E0
07C0
03C0
03C0
07E0
0EE0
0E70
1C78
3838
381C
701E
E00E
ENDCHAR
STARTCHAR 0079
ENCODING 121
SWIDTH 540 0
DWIDTH 18 0
BBX 15 25 1 -7
BITMAP
E006
E00E
700E
700C
301C
381C
3838
1838
1C38
1C70
0E70
0E70
06E0
07E0
07C0
03C0
03C0
0380
0380
0380
0700
0700
7E00
7E00
7800
ENDCHAR
STARTCHAR 007A
ENCODING 122
SWIDTH 480 0
DWIDTH 16 0
BBX 13 18 1 0
BITMAP
7FF8
7FF8
0038
0078
0070
00E0
01C0
03C0
0380
0700
0E00
1C00
3C00
3800
7000
E000
FFF8
FFF8
ENDCHAR
STARTCHAR 007B
ENCODING 123
SWIDTH 570 0
DWIDTH 19 0
BBX 11 30 4 -5
BITMAP
03E0
07E0
0700
0E00
0E00
0E00
0E00
0E00
0E00
0E00
0E00
0E00
0E00
1C00
F800
F800
3C00
0E00
0E00
0E00
0E00
0E00
0E00
0E00
0E00
0E00
0E00
0700
07E0
03E0
ENDCHAR
STARTCHAR 007C
ENCODING 124
SWIDTH 300 0
DWIDTH 10 0
BBX 2 33 4 -8
BITMAP
C0
C0
C0
C0
C0
C0
C0
C0
C0
C0
C0
C0
C0
C0
C0
C0
C0
C0
C0
C0
C0
C0
C0
C0
C0
C0
C0
C0
C0
C0
C0
C0
C0
ENDCHAR
STARTCHAR 007D
ENCODING 125
SWIDTH 570 0
DWIDTH 19 0
BBX 11 30 4 -5
BITMAP
F000
FC00
1C00
0C00
0E00
0E00
0E00
0E00
0E00
0E00
0E00
0E00
0E00
0700
07E0
03E0
0780
0E00
0E00
0E00
0E00
0E00
0E00
0E00
0E00
0E00
0E00
1C00
FC00
F800
ENDCHAR
STARTCHAR 007E
ENCODING 126
SWIDTH 750 0
DWIDTH 25 0
BBX 19 5 3 8
BITMAP
0F0020
3FC060
FFFFE0
E0FFC0
803F00
ENDCHAR
STARTCHAR 00A0
ENCODING 160
SWIDTH 270 0
DWIDTH 9 0
BBX 0 0 0 0
BITMAP
ENDCHAR
STARTCHAR 00A1
ENCODING 161
SWIDTH 360 0
DWIDTH 12 0
BBX 3 24 4 -6
BITMAP
E0
E0
E0
E0
00
00
00
00
60
60
60
60
60
E0
E0
E0
E0
E0
E0
E0
E0
E0
E0
E0
ENDCHAR
STARTCHAR 00A2
ENCODING 162
SWIDTH 570 0
DWIDTH 19 0
BBX 13 28 2 -5
BITMAP
0080
0080
0080
0080
0080
07F8
1FF8
3C98
3880
7080
7080
7080
6080
E080
E080
6080
7080
7080
7080
3880
3E98
1FF8
07F8
0080
0080
0080
0080
0080
ENDCHAR
STARTCHAR 00A3
ENCODING 163
SWIDTH 570 0
DWIDTH 19 0
BBX 14 24 2 1
BITMAP
03FC
07FC
0F0C
0E00
0E00
1C00
1C00
1C00
1C00
1C00
1C00
FFF0
FFF0
FFF0
1C00
1C00
1C00
1C00
1C00
1C00
1C00
FFFC
FFFC
FFFC
ENDCHAR
STARTCHAR 00A4
ENCODING 164
SWIDTH 570 0
DWIDTH 19 0
BBX 17 17 1 1
BITMAP
600300
F00780
7BEF00
3FFE00
1F7C00
1C1C00
180C00
380E00
380E00
380E00
180C00
1C1C00
1E3C00
3FFC00
3FFE00
708700
600300
ENDCHAR
STARTCHAR 00A5
ENCODING 165
SWIDTH 570 0
DWIDTH 19 0
BBX 16 24 1 0
BITMAP
E003
7007
7006
380E
380C
1C1C
1C18
0E38
0E38
7F7F
7F7F
03E0
03E0
01C0
01C0
7FFF
7FFF
01C0
01C0
01C0
01C0
01C0
01C0
01C0
ENDCHAR
STARTCHAR 00A6
ENCODING 166
SWIDTH 300 0
DWIDTH 10 0
BBX 2 29 4 -6
BITMAP
C0
C0
C0
C0
C0
C0
C0
C0
C0
C0
C0
C0
00
00
00
00
C0
C0
C0
C0
C0
C0
C0
C0
C0
C0
C0
C0
C0
ENDCHAR
STARTCHAR 00A7
ENCODING 167
SWIDTH 450 0
DWIDTH 15 0
BBX 12 27 1 -2
BITMAP
1FE0
3FE0
3820
7000
7000
7000
3800
1E00
3F00
77C0
61E0
E0F0
E070
E030
7030
7830
1E70
0FE0
07C0
01E0
00E0
0060
0070
0060
71E0
7FC0
3F80
ENDCHAR
STARTCHAR 00A8
ENCODING 168
SWIDTH 450 0
DWIDTH 15 0
BBX 9 3 3 22
BITMAP
E380
E380
E380
ENDCHAR
STARTCHAR 00A9
ENCODING 169
SWIDTH 900 0
DWIDTH 30 0
BBX 22 24 4 0
BITMAP
00FC00
03FF00
0E0380
1C00C0
380060
30FE30
63FE10
638018
470008
C60008
C60008
CE000C
CE000C
C6000C
C60008
470008
438018
63FE10
30FE30
300060
1C00C0
0E0180
03FF00
00FC00
ENDCHAR
STARTCHAR 00AA
ENCODING 170
SWIDTH 420 0
DWIDTH 14 0
BBX 10 16 2 9
BITMAP
7F00
6380
01C0
00C0
0FC0
7FC0
E0C0
C0C0
C1C0
C1C0
E3C0
7EC0
3800
0000
FFC0
FFC0
ENDCHAR
STARTCHAR 00AB
ENCODING 171
SWIDTH 540 0
DWIDTH 18 0
BBX 13 14 2 2
BITMAP
0208
0608
0E18
1E38
3C70
78E0
F1C0
E180
71C0
38E0
1C70
0E38
0618
0208
ENDCHAR
STARTCHAR 00AC
ENCODING 172
SWIDTH 750 0
DWIDTH 25 0
BBX 19 9 3 5
BITMAP
FFFFE0
FFFFE0
FFFFE0
0000E0
0000E0
0000E0
0000E0
0000E0
0000E0
ENDCHAR
STARTCHAR 00AD
ENCODING 173
SWIDTH 330 0
DWIDTH 11 0
BBX 8 2 1 8
BITMAP
FF
FF
ENDCHAR
STARTCHAR 00AE
ENCODING 174
SWIDTH 900 0
DWIDTH 30 0
BBX 22 24 4 0
BITMAP
00FC00
03FF00
0E0380
1C00C0
380060
33F830
63FE10
638618
438708
C38708
C38608
C3FE0C
C3F80C
C39C0C
C38C08
438E08
438718
638310
3383B0
300060
1C00C0
0E0180
03FF00
00FC00
ENDCHAR
STARTCHAR 00AF
ENCODING 175
SWIDTH 450 0
DWIDTH 15 0
BBX 9 3 3 22
BITMAP
FF80
FF80
FF80
ENDCHAR
STARTCHAR 00B0
ENCODING 176
SWIDTH 450 0
DWIDTH 15 0
BBX 9 10 3 15
BITMAP
3E00
7F00
C380
C180
C180
C180
C180
6700
7E00
1C00
ENDCHAR
STARTCHAR 00B1
ENCODING 177
SWIDTH 750 0
DWIDTH 25 0
BBX 19 21 3 0
BITMAP
00E000
00E000
00E000
00E000
00E000
00E000
00E000
FFFFE0
FFFFE0
00E000
00E000
00E000
00E000
00E000
00E000
00E000
000000
000000
FFFFE0
FFFFE0
FFFFE0
ENDCHAR
STARTCHAR 00B2
ENCODING 178
SWIDTH 360 0
DWIDTH 12 0
BBX 9 13 1 12
BITMAP
FF00
E700
0380
0180
0380
0300
0700
0E00
1C00
3800
7000
FF80
FF80
ENDCHAR
STARTCHAR 00B3
ENCODING 179
SWIDTH 360 0
DWIDTH 12 0
BBX 9 13 1 12
BITMAP
7F00
4380
0180
0180
0380
1F00
1F00
0380
0180
0180
0180
C780
FF00
ENDCHAR
STARTCHAR 00B4
ENCODING 180
SWIDTH 450 0
DWIDTH 15 0
BBX 7 6 5 20
BITMAP
0E
1C
38
30
70
E0
ENDCHAR
STARTCHAR 00B5
ENCODING 181
SWIDTH 570 0
DWIDTH 19 0
BBX 15 25 3 -7
BITMAP
C038
C038
C038
C038
C038
C038
C038
C038
C038
C038
C038
C038
C038
E038
E078
F0FC
FFDE
DF9E
C000
C000
C000
C000
C000
C000
C000
ENDCHAR
STARTCHAR 00B6
ENCODING 182
SWIDTH 570 0
DWIDTH 19 0
BBX 14 27 2 -3
BITMAP
0FFC
1FFC
3F8C
7F8C
7F8C
FF8C
FF8C
FF8C
FF8C
7F8C
7F8C
3F8C
1F8C
018C
018C
018C
018C
018C
018C
018C
018C
018C
018C
018C
018C
018C
018C
ENDCHAR
STARTCHAR 00B7
ENCODING 183
SWIDTH 270 0
DWIDTH 9 0
BBX 3 5 3 9
BITMAP
E0
E0
E0
E0
E0
ENDCHAR
STARTCHAR 00B8
ENCODING 184
SWIDTH 450 0
DWIDTH 15 0
BBX 6 6 4 -6
BITMAP
18
0C
0C
0C
FC
F8
ENDCHAR
STARTCHAR 00B9
ENCODING 185
SWIDTH 360 0
DWIDTH 12 0
BBX 8 13 2 11
BITMAP
F8
F8
18
18
18
18
18
18
18
18
18
FF
FF
ENDCHAR
STARTCHAR 00BA
ENCODING 186
SWIDTH 420 0
DWIDTH 14 0
BBX 12 16 1 9
BITMAP
1F80
39C0
70E0
6060
E060
E070
E070
E070
6060
70E0
39C0
3FC0
0600
0000
7FE0
7FE0
ENDCHAR
STARTCHAR 00BB
ENCODING 187
SWIDTH 540 0
DWIDTH 18 0
BBX 13 14 3 2
BITMAP
8200
8300
C380
E1C0
70E0
3870
1C38
0E38
1C70
38E0
71C0
E380
C300
8200
ENDCHAR
STARTCHAR 00BC
ENCODING 188
SWIDTH 870 0
DWIDTH 29 0
BBX 26 25 2 0
BITMAP
00003000
F8007000
F8006000
1800E000
1800C000
1801C000
18018000
18038000
18030000
18060000
18060000
180C0000
FF1C0700
FF180F00
00380B00
00301B00
00703300
00602300
00E06300
00C0C300
0180FFC0
0180FFC0
03000300
03000300
06000300
ENDCHAR
STARTCHAR 00BD
ENCODING 189
SWIDTH 870 0
DWIDTH 29 0
BBX 25 25 2 0
BITMAP
00003000
F8007000
F8006000
1800E000
1800C000
1801C000
18018000
18038000
18030000
18060000
18060000
180C0000
FF1CFE00
FF18E700
00380380
00300180
00700380
00600300
00E00600
00C00E00
01801C00
01803800
03007000
0300FF80
0600FF80
ENDCHAR
STARTCHAR 00BE
ENCODING 190
SWIDTH 870 0
DWIDTH 29 0
BBX 27 25 1 0
BITMAP
00001800
7F003800
43803000
01807000
01806000
0380E000
1F00C000
1F01C000
03818000
01830000
01830000
01860000
C78E0380
FF0C0780
001C0580
00180D80
00381980
00301180
00703180
00606180
00C07FE0
00C07FE0
01800180
01800180
03000180
ENDCHAR
STARTCHAR 00BF
ENCODING 191
SWIDTH 480 0
DWIDTH 16 0
BBX 12 24 2 -6
BITMAP
0700
0700
0700
0700
0000
0000
0700
0700
0700
0700
0700
0700
0E00
1C00
3800
7800
7000
E000
E000
E000
F030
78F0
7FF0
3FC0
ENDCHAR
STARTCHAR 00C0
ENCODING 192
SWIDTH 600 0
DWIDTH 20 0
BBX 20 31 0 0
BITMAP
018000
01C000
00E000
006000
003000
000000
000000
00F000
00F000
00F800
01F800
01D800
019C00
039C00
038C00
030E00
070E00
070600
0E0700
0E0700
0E0300
1C0380
1FFF80
1FFFC0
3FFFC0
3801C0
3800E0
7000E0
7000E0
700070
E00070
ENDCHAR
STARTCHAR 00C1
ENCODING 193
SWIDTH 600 0
DWIDTH 20 0
BBX 20 31 0 0
BITMAP
001C00
003800
003000
006000
00C000
000000
000000
00F000
00F000
00F800
01F800
01D800
019C00
039C00
038C00
030E00
070E00
070600
0E0700
0E0700
0E0300
1C0380
1FFF80
1FFFC0
3FFFC0
3801C0
3800E0
7000E0
7000E0
700070
E00070
ENDCHAR
STARTCHAR 00C2
ENCODING 194
SWIDTH 600 0
DWIDTH 20 0
BBX 20 31 0 0
BITMAP
007000
00F000
01D800
018C00
030C00
000000
000000
00F000
00F000
00F800
01F800
01D800
019C00
039C00
038C00
030E00
070E00
070600
0E0700
0E0700
0E0300
1C0380
1FFF80
1FFFC0
3FFFC0
3801C0
3800E0
7000E0
7000E0
700070
E00070
ENDCHAR
STARTCHAR 00C3
ENCODING 195
SWIDTH 600 0
DWIDTH 20 0
BBX 20 30 0 0
BITMAP
03E600
03FE00
063C00
000000
000000
000000
00F000
00F000
00F800
01F800
01D800
019C00
039C00
038C00
030E00
070E00
070600
0E0700
0E0700
0E0300
1C0380
1FFF80
1FFFC0
3FFFC0
3801C0
3800E0
7000E0
7000E0
700070
E00070
ENDCHAR
STARTCHAR 00C4
ENCODING 196
SWIDTH 600 0
DWIDTH 20 0
BBX 20 30 0 0
BITMAP
038C00
038C00
038C00
000000
000000
000000
00F000
00F000
00F800
01F800
01D800
019C00
039C00
038C00
030E00
070E00
070600
0E0700
0E0700
0E0300
1C0380
1FFF80
1FFFC0
3FFFC0
3801C0
3800E0
7000E0
7000E0
700070
E00070
ENDCHAR
STARTCHAR 00C5
ENCODING 197
SWIDTH 600 0
DWIDTH 20 0
BBX 20 31 0 0
BITMAP
002000
01F800
019C00
030C00
030C00
030C00
038C00
01F800
00F000
00F800
01F800
01D800
019C00
039C00
038C00
030E00
070E00
070600
0E0700
0E0700
0E0300
1C0380
1FFF80
1FFFC0
3FFFC0
3801C0
3800E0
7000E0
7000E0
700070
E00070
ENDCHAR
STARTCHAR 00C6
ENCODING 198
SWIDTH 870 0
DWIDTH 29 0
BBX 27 24 0 0
BITMAP
007FFFE0
007FFFE0
00E7FFE0
00E70000
01C70000
01C70000
01C70000
03870000
03870000
03870000
0707FFC0
0707FFC0
0E07FFC0
0E070000
0E070000
1FFF0000
1FFF0000
1FFF0000
38070000
38070000
70070000
7007FFE0
7007FFE0
E007FFE0
ENDCHAR
STARTCHAR 00C7
ENCODING 199
SWIDTH 630 0
DWIDTH 21 0
BBX 17 30 2 -5
BITMAP
03FE00
0FFF80
1F0780
3C0180
780080
700000
F00000
E00000
E00000
E00000
E00000
E00000
E00000
E00000
E00000
E00000
E00000
F00000
700000
780080
3C0180
1F0780
0FFF80
03FE00
002000
003000
003000
003800
01F000
01F000
ENDCHAR
STARTCHAR 00C8
ENCODING 200
SWIDTH 570 0
DWIDTH 19 0
BBX 14 31 3 0
BITMAP
1C00
0E00
0600
0300
0380
0000
0000
FFFC
FFFC
FFFC
E000
E000
E000
E000
E000
E000
E000
FFF8
FFF8
FFF8
E000
E000
E000
E000
E000
E000
E000
E000
FFFC
FFFC
FFFC
ENDCHAR
STARTCHAR 00C9
ENCODING 201
SWIDTH 570 0
DWIDTH 19 0
BBX 14 31 3 0
BITMAP
01C0
0180
0380
0700
0600
0000
0000
FFFC
FFFC
FFFC
E000
E000
E000
E000
E000
E000
E000
FFF8
FFF8
FFF8
E000
E000
E000
E000
E000
E000
E000
E000
FFFC
FFFC
FFFC
ENDCHAR
STARTCHAR 00CA
ENCODING 202
SWIDTH 570 0
DWIDTH 19 0
BBX 14 31 3 0
BITMAP
0700
0780
0DC0
18C0
3060
0000
0000
FFFC
FFFC
FFFC
E000
E000
E000
E000
E000
E000
E000
FFF8
FFF8
FFF8
E000
E000
E000
E000
E000
E000
E000
E000
FFFC
FFFC
FFFC
ENDCHAR
STARTCHAR 00CB
ENCODING 203
SWIDTH 570 0
DWIDTH 19 0
BBX 14 30 3 0
BITMAP
38E0
38E0
38E0
0000
0000
0000
FFFC
FFFC
FFFC
E000
E000
E000
E000
E000
E000
E000
FFF8
FFF8
FFF8
E000
E000
E000
E000
E000
E000
E000
E000
FFFC
FFFC
FFFC
ENDCHAR
STARTCHAR 00CC
ENCODING 204
SWIDTH 270 0
DWIDTH 9 0
BBX 5 31 1 0
BITMAP
E0
60
30
38
18
00
00
38
38
38
38
38
38
38
38
38
38
38
38
38
38
38
38
38
38
38
38
38
38
38
38
ENDCHAR
STARTCHAR 00CD
ENCODING 205
SWIDTH 270 0
DWIDTH 9 0
BBX 6 31 2 0
BITMAP
1C
38
30
60
E0
00
00
70
70
70
70
70
70
70
70
70
70
70
70
70
70
70
70
70
70
70
70
70
70
70
70
ENDCHAR
STARTCHAR 00CE
ENCODING 206
SWIDTH 270 0
DWIDTH 9 0
BBX 9 31 0 0
BITMAP
1C00
3E00
3600
6300
C180
0000
0000
1C00
1C00
1C00
1C00
1C00
1C00
1C00
1C00
1C00
1C00
1C00
1C00
1C00
1C00
1C00
1C00
1C00
1C00
1C00
1C00
1C00
1C00
1C00
1C00
ENDCHAR
STARTCHAR 00CF
ENCODING 207
SWIDTH 270 0
DWIDTH 9 0
BBX 9 30 0 0
BITMAP
E380
E380
E380
0000
0000
0000
1C00
1C00
1C00
1C00
1C00
1C00
1C00
1C00
1C00
1C00
1C00
1C00
1C00
1C00
1C00
1C00
1C00
1C00
1C00
1C00
1C00
1C00
1C00
1C00
ENDCHAR
STARTCHAR 00D0
ENCODING 208
SWIDTH 690 0
DWIDTH 23 0
BBX 21 24 0 0
BITMAP
1FFC00
1FFF80
1FFFC0
1C03E0
1C00F0
1C0070
1C0070
1C0038
1C0038
1C0038
FFE038
FFE038
FFE038
1C0038
1C0038
1C0038
1C0038
1C0070
1C0070
1C00F0
1C03E0
1FFFC0
1FFF00
1FFC00
ENDCHAR
STARTCHAR 00D1
ENCODING 209
SWIDTH 660 0
DWIDTH 22 0
BBX 16 30 3 0
BITMAP
0F18
0FF8
18F0
0000
0000
0000
F007
F807
F807
FC07
FC07
EE07
EE07
EE07
E707
E707
E387
E387
E1C7
E1C7
E0E7
E0E7
E077
E077
E03F
E03F
E01F
E01F
E00F
E00F
ENDCHAR
STARTCHAR 00D2
ENCODING 210
SWIDTH 690 0
DWIDTH 23 0
BBX 20 31 2 0
BITMAP
038000
01C000
00C000
006000
007000
000000
000000
07FC00
0FFF00
1F0F80
3C0380
7801C0
7001E0
F000E0
E000E0
E000E0
E000F0
E00070
E00070
E00070
E00070
E000F0
E000E0
E000E0
F000E0
7001E0
7801C0
3C0380
1F0F80
0FFF00
07FC00
ENDCHAR
STARTCHAR 00D3
ENCODING 211
SWIDTH 690 0
DWIDTH 23 0
BBX 20 31 2 0
BITMAP
003800
003000
007000
00E000
00C000
000000
000000
07FC00
0FFF00
1F0F80
3C0380
7801C0
7001E0
F000E0
E000E0
E000E0
E000F0
E00070
E00070
E00070
E00070
E000F0
E000E0
E000E0
F000E0
7001E0
7801C0
3C0380
1F0F80
0FFF00
07FC00
ENDCHAR
STARTCHAR 00D4
ENCODING 212
SWIDTH 690 0
DWIDTH 23 0
BBX 20 31 2 0
BITMAP
00E000
00F000
01B800
031800
060C00
000000
000000
07FC00
0FFF00
1F0F80
3C0380
7801C0
7001E0
F000E0
E000E0
E000E0
E000F0
E00070
E00070
E00070
E00070
E000F0
E000E0
E000E0
F000E0
7001E0
7801C0
3C0380
1F0F80
0FFF00
07FC00
ENDCHAR
STARTCHAR 00D5
ENCODING 213
SWIDTH 690 0
DWIDTH 23 0
BBX 20 30 2 0
BITMAP
03CC00
07FC00
063800
000000
000000
000000
07FC00
0FFF00
1F0F80
3C0380
7801C0
7001E0
F000E0
E000E0
E000E0
E000F0
E00070
E00070
E00070
E00070
E000F0
E000E0
E000E0
F000E0
7001E0
7801C0
3C0380
1F0F80
0FFF00
07FC00
ENDCHAR
STARTCHAR 00D6
ENCODING 214
SWIDTH 690 0
DWIDTH 23 0
BBX 20 30 2 0
BITMAP
071C00
071C00
071C00
000000
000000
000000
07FC00
0FFF00
1F0F80
3C0380
7801C0
7001E0
F000E0
E000E0
E000E0
E000F0
E00070
E00070
E00070
E00070
E000F0
E000E0
E000E0
F000E0
7001E0
7801C0
3C0380
1F0F80
0FFF00
07FC00
ENDCHAR
STARTCHAR 00D7
ENCODING 215
SWIDTH 750 0
DWIDTH 25 0
BBX 17 18 4 2
BITMAP
600300
F00780
780F00
3C1E00
1C3C00
0E3800
077000
03E000
01C000
03E000
07F000
0F7800
1E3C00
3C1E00
780E00
700700
E00300
400100
ENDCHAR
STARTCHAR 00D8
ENCODING 216
SWIDTH 690 0
DWIDTH 23 0
BBX 20 26 2 -1
BITMAP
000020
07FC70
0FFFE0
1F0FC0
3C0380
7803C0
7007C0
F006E0
E00CE0
E01CE0
E038F0
E03070
E06070
E0E070
E1C070
E380F0
E300E0
E700E0
FE00E0
7C01E0
7801C0
3C0380
7F0F80
EFFF00
C7FC00
800000
ENDCHAR
STARTCHAR 00D9
ENCODING 217
SWIDTH 660 0
DWIDTH 22 0
BBX 16 31 3 0
BITMAP
0E00
0700
0300
0180
00C0
0000
0000
E007
E007
E007
E007
E007
E007
E007
E007
E007
E007
E007
E007
E007
E007
E007
E007
E007
E007
E007
E00E
700E
7C3E
3FFC
1FF0
ENDCHAR
STARTCHAR 00DA
ENCODING 218
SWIDTH 660 0
DWIDTH 22 0
BBX 16 31 3 0
BITMAP
0060
00E0
01C0
0180
0300
0000
0000
E007
E007
E007
E007
E007
E007
E007
E007
E007
E007
E007
E007
E007
E007
E007
E007
E007
E007
E007
E00E
700E
7C3E
3FFC
1FF0
ENDCHAR
STARTCHAR 00DB
ENCODING 219
SWIDTH 660 0
DWIDTH 22 0
BBX 16 31 3 0
BITMAP
0380
03C0
06E0
0C60
0C30
0000
0000
E007
E007
E007
E007
E007
E007
E007
E007
E007
E007
E007
E007
E007
E007
E007
E007
E007
E007
E007
E00E
700E
7C3E
3FFC
1FF0
ENDCHAR
STARTCHAR 00DC
ENCODING 220
SWIDTH 660 0
DWIDTH 22 0
BBX 16 30 3 0
BITMAP
0E70
0E70
0E70
0000
0000
0000
E007
E007
E007
E007
E007
E007
E007
E007
E007
E007
E007
E007
E007
E007
E007
E007
E007
E007
E007
E00E
700E
7C3E
3FFC
1FF0
ENDCHAR
STARTCHAR 00DD
ENCODING 221
SWIDTH 540 0
DWIDTH 18 0
BBX 18 31 0 0
BITMAP
003800
007000
00E000
00C000
018000
000000
000000
E001C0
700380
380380
380700
1C0E00
1C0E00
0E1C00
073C00
073800
03F000
03F000
01E000
00E000
00E000
00E000
00E000
00E000
00E000
00E000
00E000
00E000
00E000
00E000
00E000
ENDCHAR
STARTCHAR 00DE
ENCODING 222
SWIDTH 540 0
DWIDTH 18 0
BBX 14 24 3 0
BITMAP
E000
E000
E000
E000
FF80
FFE0
FFF0
E078
E038
E01C
E01C
E01C
E01C
E03C
E038
E078
FFF0
FFE0
FE00
E000
E000
E000
E000
E000
ENDCHAR
STARTCHAR 00DF
ENCODING 223
SWIDTH 570 0
DWIDTH 19 0
BBX 14 25 3 0
BITMAP
1F80
3FE0
7DE0
E070
E030
E030
C0F8
C1E0
C380
C300
C700
C700
C780
C3C0
C3E0
C0F0
C078
C03C
C01C
C00C
C00C
C01C
C83C
CFF8
CFF0
ENDCHAR
STARTCHAR 00E0
ENCODING 224
SWIDTH 540 0
DWIDTH 18 0
BBX 14 26 2 0
BITMAP
3800
1C00
0C00
0600
0700
0380
0000
0000
3FE0
7FF0
6070
0038
0018
0018
0018
1FF8
7FFC
F01C
E01C
E01C
C03C
E03C
E07C
F0FC
7FDC
3F9C
ENDCHAR
STARTCHAR 00E1
ENCODING 225
SWIDTH 540 0
DWIDTH 18 0
BBX 14 26 2 0
BITMAP
00E0
01C0
0180
0380
0700
0600
0000
0000
3FE0
7FF0
6070
0038
0018
0018
0018
1FF8
7FFC
F01C
E01C
E01C
C03C
E03C
E07C
F0FC
7FDC
3F9C
ENDCHAR
STARTCHAR 00E2
ENCODING 226
SWIDTH 540 0
DWIDTH 18 0
BBX 14 26 2 0
BITMAP
0700
0F80
0D80
18C0
18E0
3060
0000
0000
3FE0
7FF0
6070
0038
0018
0018
0018
1FF8
7FFC
F01C
E01C
E01C
C03C
E03C
E07C
F0FC
7FDC
3F9C
ENDCHAR
STARTCHAR 00E3
ENCODING 227
SWIDTH 540 0
DWIDTH 18 0
BBX 14 26 2 0
BITMAP
0820
1E60
3760
33E0
31C0
0000
0000
0000
3FE0
7FF0
6070
0038
0018
0018
0018
1FF8
7FFC
F01C
E01C
E01C
C03C
E03C
E07C
F0FC
7FDC
3F9C
ENDCHAR
STARTCHAR 00E4
ENCODING 228
SWIDTH 540 0
DWIDTH 18 0
BBX 14 25 2 0
BITMAP
38E0
38E0
38E0
0000
0000
0000
0000
3FE0
7FF0
6070
0038
0018
0018
0018
1FF8
7FFC
F01C
E01C
E01C
C03C
E03C
E07C
F0FC
7FDC
3F9C
ENDCHAR
STARTCHAR 00E5
ENCODING 229
SWIDTH 540 0
DWIDTH 18 0
BBX 14 29 2 0
BITMAP
0700
0FC0
18C0
1840
1060
1840
18C0
0FC0
0700
0000
0000
3FE0
7FF0
6070
0038
0018
0018
0018
1FF8
7FFC
F01C
E01C
E01C
C03C
E03C
E07C
F0FC
7FDC
3F9C
ENDCHAR
STARTCHAR 00E6
ENCODING 230
SWIDTH 870 0
DWIDTH 29 0
BBX 26 18 2 0
BITMAP
3FC1FC00
7FF7FE00
607F0F00
003E0380
001C0380
001C0180
001C01C0
1FFFFFC0
7FFFFFC0
F01FFFC0
E0180000
E01C0000
C03C0000
E03C0000
E07E0000
F0EF8380
7FC7FF80
3F81FF00
ENDCHAR
STARTCHAR 00E7
ENCODING 231
SWIDTH 480 0
DWIDTH 16 0
BBX 12 24 2 -6
BITMAP
0FF0
3FF0
7C10
7000
E000
E000
E000
E000
C000
C000
E000
E000
E000
E000
7000
7C30
3FF0
0FF0
0180
00C0
00C0
00C0
0FC0
0FC0
ENDCHAR
STARTCHAR 00E8
ENCODING 232
SWIDTH 540 0
DWIDTH 18 0
BBX 15 26 2 0
BITMAP
1C00
0E00
0600
0300
0380
0180
0000
0000
0FE0
3FF0
7838
701C
E01C
E00C
E00E
FFFE
FFFE
FFFE
C000
E000
E000
E000
7000
3C1C
3FFC
0FF8
ENDCHAR
STARTCHAR 00E9
ENCODING 233
SWIDTH 540 0
DWIDTH 18 0
BBX 15 26 2 0
BITMAP
0070
00E0
01C0
0180
0380
0700
0000
0000
0FE0
3FF0
7838
701C
E01C
E00C
E00E
FFFE
FFFE
FFFE
C000
E000
E000
E000
7000
3C1C
3FFC
0FF8
ENDCHAR
STARTCHAR 00EA
ENCODING 234
SWIDTH 540 0
DWIDTH 18 0
BBX 15 26 2 0
BITMAP
0380
07C0
06C0
0C60
1C60
1830
0000
0000
0FE0
3FF0
7838
701C
E01C
E00C
E00E
FFFE
FFFE
FFFE
C000
E000
E000
E000
7000
3C1C
3FFC
0FF8
ENDCHAR
STARTCHAR 00EB
ENCODING 235
SWIDTH 540 0
DWIDTH 18 0
BBX 15 25 2 0
BITMAP
1C70
1C70
1C70
0000
0000
0000
0000
0FE0
3FF0
7838
701C
E01C
E00C
E00E
FFFE
FFFE
FFFE
C000
E000
E000
E000
7000
3C1C
3FFC
0FF8
ENDCHAR
STARTCHAR 00EC
ENCODING 236
SWIDTH 240 0
DWIDTH 8 0
BBX 6 26 0 0
BITMAP
E0
60
70
38
18
0C
00
00
18
18
18
18
18
18
18
18
18
18
18
18
18
18
18
18
18
18
ENDCHAR
STARTCHAR 00ED
ENCODING 237
SWIDTH 240 0
DWIDTH 8 0
BBX 7 26 2 0
BITMAP
0E
1C
38
30
60
C0
00
00
60
60
60
60
60
60
60
60
60
60
60
60
60
60
60
60
60
60
ENDCHAR
STARTCHAR 00EE
ENCODING 238
SWIDTH 240 0
DWIDTH 8 0
BBX 9 26 0 0
BITMAP
1C00
3C00
7600
6600
C300
C180
0000
0000
1800
1800
1800
1800
1800
1800
1800
1800
1800
1800
1800
1800
1800
1800
1800
1800
1800
1800
ENDCHAR
STARTCHAR 00EF
ENCODING 239
SWIDTH 240 0
DWIDTH 8 0
BBX 8 25 0 0
BITMAP
E7
E7
E7
00
00
00
00
18
18
18
18
18
18
18
18
18
18
18
18
18
18
18
18
18
18
ENDCHAR
STARTCHAR 00F0
ENCODING 240
SWIDTH 540 0
DWIDTH 18 0
BBX 15 25 2 0
BITMAP
1C08
0E38
07F0
0F80
3F80
71C0
00E0
07F0
1FF0
3FF8
7838
701C
E01C
E01C
E00C
C00E
C00E
C00C
E01C
E01C
E01C
7038
7878
3FF0
1FE0
ENDCHAR
STARTCHAR 00F1
ENCODING 241
SWIDTH 570 0
DWIDTH 19 0
BBX 13 26 3 0
BITMAP
0820
1E20
3760
33E0
31C0
0000
0000
0000
CFE0
DFF0
D870
F038
E038
E038
C018
C018
C018
C018
C018
C018
C018
C018
C018
C018
C018
C018
ENDCHAR
STARTCHAR 00F2
ENCODING 242
SWIDTH 540 0
DWIDTH 18 0
BBX 15 26 2 0
BITMAP
1C00
0C00
0E00
0700
0300
0180
0000
0000
1FE0
3FF0
7878
7038
E01C
E01C
E01C
E00C
C00E
C00E
E00C
E01C
E01C
E01C
7038
7878
3FF0
1FE0
ENDCHAR
STARTCHAR 00F3
ENCODING 243
SWIDTH 540 0
DWIDTH 18 0
BBX 15 26 2 0
BITMAP
00F0
00E0
01C0
0380
0300
0600
0000
0000
1FE0
3FF0
7878
7038
E01C
E01C
E01C
E00C
C00E
C00E
E00C
E01C
E01C
E01C
7038
7878
3FF0
1FE0
ENDCHAR
STARTCHAR 00F4
ENCODING 244
SWIDTH 540 0
DWIDTH 18 0
BBX 15 26 2 0
BITMAP
0780
0780
0EC0
0CC0
1860
1830
0000
0000
1FE0
3FF0
7878
7038
E01C
E01C
E01C
E00C
C00E
C00E
E00C
E01C
E01C
E01C
7038
7878
3FF0
1FE0
ENDCHAR
STARTCHAR 00F5
ENCODING 245
SWIDTH 540 0
DWIDTH 18 0
BBX 15 26 2 0
BITMAP
0430
1E30
1F30
31E0
30C0
0000
0000
0000
1FE0
3FF0
7878
7038
E01C
E01C
E01C
E00C
C00E
C00E
E00C
E01C
E01C
E01C
7038
7878
3FF0
1FE0
ENDCHAR
STARTCHAR 00F6
ENCODING 246
SWIDTH 540 0
DWIDTH 18 0
BBX 15 25 2 0
BITMAP
1CE0
1CE0
1CE0
0000
0000
0000
0000
1FE0
3FF0
7878
7038
E01C
E01C
E01C
E00C
C00E
C00E
E00C
E01C
E01C
E01C
7038
7878
3FF0
1FE0
ENDCHAR
STARTCHAR 00F7
ENCODING 247
SWIDTH 750 0
DWIDTH 25 0
BBX 19 16 3 2
BITMAP
00E000
00E000
00E000
00E000
000000
000000
FFFFE0
FFFFE0
FFFFE0
000000
000000
000000
00E000
00E000
00E000
00E000
ENDCHAR
STARTCHAR 00F8
ENCODING 248
SWIDTH 540 0
DWIDTH 18 0
BBX 16 20 1 -1
BITMAP
0003
0FF7
1FFE
3C3C
381C
703E
707E
7066
70C6
61C7
6187
6306
760E
7E0E
7C0E
381C
3C3C
7FF8
6FF0
C000
ENDCHAR
STARTCHAR 00F9
ENCODING 249
SWIDTH 570 0
DWIDTH 19 0
BBX 13 26 3 0
BITMAP
3800
1800
0C00
0E00
0600
0300
0000
0000
C038
C038
C038
C038
C038
C038
C038
C038
C038
C038
C038
C038
C038
E038
E078
F0F8
7FF8
3F38
ENDCHAR
STARTCHAR 00FA
ENCODING 250
SWIDTH 570 0
DWIDTH 19 0
BBX 13 26 3 0
BITMAP
00E0
01C0
0380
0300
0600
0E00
0000
0000
C038
C038
C038
C038
C038
C038
C038
C038
C038
C038
C038
C038
C038
E038
E078
F0F8
7FF8
3F38
ENDCHAR
STARTCHAR 00FB
ENCODING 251
SWIDTH 570 0
DWIDTH 19 0
BBX 13 26 3 0
BITMAP
0700
0F00
1D80
19C0
30C0
3060
0000
0000
C038
C038
C038
C038
C038
C038
C038
C038
C038
C038
C038
C038
C038
E038
E078
F0F8
7FF8
3F38
ENDCHAR
STARTCHAR 00FC
ENCODING 252
SWIDTH 570 0
DWIDTH 19 0
BBX 13 25 3 0
BITMAP
38E0
38E0
38E0
0000
0000
0000
0000
C038
C038
C038
C038
C038
C038
C038
C038
C038
C038
C038
C038
C038
E038
E078
F0F8
7FF8
3F38
ENDCHAR
STARTCHAR 00FD
ENCODING 253
SWIDTH 540 0
DWIDTH 18 0
BBX 15 33 1 -7
BITMAP
0070
0060
00C0
01C0
0180
0300
0000
0000
E006
E00E
700E
700C
301C
381C
3838
1838
1C38
1C70
0E70
0E70
06E0
07E0
07C0
03C0
03C0
0380
0380
0380
0700
0700
7E00
7E00
7800
ENDCHAR
STARTCHAR 00FE
ENCODING 254
SWIDTH 570 0
DWIDTH 19 0
BBX 14 32 3 -7
BITMAP
C000
C000
C000
C000
C000
C000
C000
CFE0
DFF0
F878
F038
E01C
E01C
E01C
C01C
C01C
C01C
C01C
E01C
E01C
E01C
F038
F878
DFF0
CFE0
C000
C000
C000
C000
C000
C000
C000
ENDCHAR
STARTCHAR 00FF
ENCODING 255
SWIDTH 540 0
DWIDTH 18 0
BBX 15 32 1 -7
BITMAP
1C70
1C70
1C70
0000
0000
0000
0000
E006
E00E
700E
700C
301C
381C
3838
1838
1C38
1C70
0E70
0E70
06E0
07E0
07C0
03C0
03C0
0380
0380
0380
0700
0700
7E00
7E00
7800
ENDCHAR
STARTCHAR 0100
ENCODING 256
SWIDTH 600 0
DWIDTH 20 0
BBX 20 30 0 0
BITMAP
03FE00
03FE00
03FE00
000000
000000
000000
00F000
00F000
00F800
01F800
01D800
019C00
039C00
038C00
030E00
070E00
070600
0E0700
0E0700
0E0300
1C0380
1FFF80
1FFFC0
3FFFC0
3801C0
3800E0
7000E0
7000E0
700070
E00070
ENDCHAR
STARTCHAR 0101
ENCODING 257
SWIDTH 540 0
DWIDTH 18 0
BBX 14 25 2 0
BITMAP
3FE0
3FE0
3FE0
0000
0000
0000
0000
3FE0
7FF0
6070
0038
0018
0018
0018
1FF8
7FFC
F01C
E01C
E01C
C03C
E03C
E07C
F0FC
7FDC
3F9C
ENDCHAR
STARTCHAR 0102
ENCODING 258
SWIDTH 600 0
DWIDTH 20 0
BBX 20 31 0 0
BITMAP
030600
030600
03FC00
01FC00
007000
000000
000000
00F000
00F000
00F800
01F800
01D800
019C00
039C00
038C00
030E00
070E00
070600
0E0700
0E0700
0E0300
1C0380
1FFF80
1FFFC0
3FFFC0
3801C0
3800E0
7000E0
7000E0
700070
E00070
ENDCHAR
STARTCHAR 0103
ENCODING 259
SWIDTH 540 0
DWIDTH 18 0
BBX 14 25 2 0
BITMAP
3060
3060
1FE0
1FC0
0700
0000
0000
3FE0
7FF0
6070
0038
0018
0018
0018
1FF8
7FFC
F01C
E01C
E01C
C03C
E03C
E07C
F0FC
7FDC
3F9C
ENDCHAR
STARTCHAR 0104
ENCODING 260
SWIDTH 600 0
DWIDTH 20 0
BBX 21 30 0 -6
BITMAP
00F000
00F000
00F800
01F800
01D800
019C00
039C00
038C00
030E00
070E00
070600
0E0700
0E0700
0E0300
1C0380
1FFF80
1FFFC0
3FFFC0
3801C0
3800E0
7000E0
7000E0
700070
E00070
000060
0000C0
0000C0
0000C0
0000F8
0000F8
ENDCHAR
STARTCHAR 0105
ENCODING 261
SWIDTH 540 0
DWIDTH 18 0
BBX 15 24 2 -6
BITMAP
3FE0
7FF0
6070
0038
0018
0018
0018
1FF8
7FFC
F01C
E01C
E01C
C03C
E03C
E07C
F0FC
7FDC
3F9C
0030
0030
0060
0060
007E
003E
ENDCHAR
STARTCHAR 0106
ENCODING 262
SWIDTH 630 0
DWIDTH 21 0
BBX 17 31 2 0
BITMAP
003800
003000
007000
00E000
00C000
000000
000000
03FE00
0FFF80
1F0780
3C0180
780080
700000
F00000
E00000
E00000
E00000
E00000
E00000
E00000
E00000
E00000
E00000
E00000
F00000
700000
780080
3C0180
1F0780
0FFF80
03FE00
ENDCHAR
STARTCHAR 0107
ENCODING 263
SWIDTH 480 0
DWIDTH 16 0
BBX 12 26 2 0
BITMAP
0070
00E0
01C0
0180
0380
0700
0000
0000
0FF0
3FF0
7C10
7000
E000
E000
E000
E000
C000
C000
E000
E000
E000
E000
7000
7C30
3FF0
0FF0
ENDCHAR
STARTCHAR 0108
ENCODING 264
SWIDTH 630 0
DWIDTH 21 0
BBX 17 31 2 0
BITMAP
007000
00F000
01D800
018C00
030E00
000000
000000
03FE00
0FFF80
1F0780
3C0180
780080
700000
F00000
E00000
E00000
E00000
E00000
E00000
E00000
E00000
E00000
E00000
E00000
F00000
700000
780080
3C0180
1F0780
0FFF80
03FE00
ENDCHAR
STARTCHAR 0109
ENCODING 265
SWIDTH 480 0
DWIDTH 16 0
BBX 12 26 2 0
BITMAP
0380
03C0
06E0
0E60
0C30
1830
0000
0000
0FF0
3FF0
7C10
7000
E000
E000
E000
E000
C000
C000
E000
E000
E000
E000
7000
7C30
3FF0
0FF0
ENDCHAR
STARTCHAR 010A
ENCODING 266
SWIDTH 630 0
DWIDTH 21 0
BBX 17 30 2 0
BITMAP
007000
007000
007000
000000
000000
000000
03FE00
0FFF80
1F0780
3C0180
780080
700000
F00000
E00000
E00000
E00000
E00000
E00000
E00000
E00000
E00000
E00000
E00000
F00000
700000
780080
3C0180
1F0780
0FFF80
03FE00
ENDCHAR
STARTCHAR 010B
ENCODING 267
SWIDTH 480 0
DWIDTH 16 0
BBX 12 25 2 0
BITMAP
0380
0380
0380
0380
0000
0000
0000
0FF0
3FF0
7C10
7000
E000
E000
E000
E000
C000
C000
E000
E000
E000
E000
7000
7C30
3FF0
0FF0
ENDCHAR
STARTCHAR 010C
ENCODING 268
SWIDTH 630 0
DWIDTH 21 0
BBX 17 31 2 0
BITMAP
060C00
031800
01B800
00F000
00E000
000000
000000
03FE00
0FFF80
1F0780
3C0180
780080
700000
F00000
E00000
E00000
E00000
E00000
E00000
E00000
E00000
E00000
E00000
E00000
F00000
700000
780080
3C0180
1F0780
0FFF80
03FE00
ENDCHAR
STARTCHAR 010D
ENCODING 269
SWIDTH 480 0
DWIDTH 16 0
BBX 12 26 2 0
BITMAP
1870
0C60
0EC0
07C0
0380
0380
0000
0000
0FF0
3FF0
7C10
7000
E000
E000
E000
E000
C000
C000
E000
E000
E000
E000
7000
7C30
3FF0
0FF0
ENDCHAR
STARTCHAR 010E
ENCODING 270
SWIDTH 690 0
DWIDTH 23 0
BBX 18 31 3 0
BITMAP
1C3000
0C6000
06E000
03C000
038000
000000
000000
FFE000
FFF800
FFFE00
E01F00
E00700
E00780
E00380
E003C0
E001C0
E001C0
E001C0
E001C0
E001C0
E001C0
E001C0
E001C0
E003C0
E00380
E00780
E00F00
E01F00
FFFE00
FFF800
FFC000
ENDCHAR
STARTCHAR 010F
ENCODING 271
SWIDTH 570 0
DWIDTH 19 0
BBX 20 25 2 0
BITMAP
001C70
001C60
001CE0
001CE0
001CC0
001CC0
001C00
1FDC00
3FFC00
787C00
703C00
E01C00
E01C00
E01C00
C01C00
C01C00
C01C00
C01C00
E01C00
E01C00
E01C00
703C00
787C00
3FFC00
1FDC00
ENDCHAR
STARTCHAR 0110
ENCODING 272
SWIDTH 690 0
DWIDTH 23 0
BBX 21 24 0 0
BITMAP
1FFC00
1FFF80
1FFFC0
1C03E0
1C00F0
1C0070
1C0070
1C0038
1C0038
1C0038
FFE038
FFE038
FFE038
1C0038
1C0038
1C0038
1C0038
1C0070
1C0070
1C00F0
1C03E0
1FFFC0
1FFF00
1FFC00
ENDCHAR
STARTCHAR 0111
ENCODING 273
SWIDTH 570 0
DWIDTH 19 0
BBX 16 25 2 0
BITMAP
001C
001C
01FF
01FF
001C
001C
001C
1FDC
3FFC
787C
703C
E01C
E01C
E01C
C01C
C01C
C01C
C01C
E01C
E01C
E01C
703C
787C
3FFC
1FDC
ENDCHAR
STARTCHAR 0112
ENCODING 274
SWIDTH 570 0
DWIDTH 19 0
BBX 14 30 3 0
BITMAP
3FE0
3FE0
3FE0
0000
0000
0000
FFFC
FFFC
FFFC
E000
E000
E000
E000
E000
E000
E000
FFF8
FFF8
FFF8
E000
E000
E000
E000
E000
E000
E000
E000
FFFC
FFFC
FFFC
ENDCHAR
STARTCHAR 0113
ENCODING 275
SWIDTH 540 0
DWIDTH 18 0
BBX 15 25 2 0
BITMAP
1FF0
1FF0
1FF0
0000
0000
0000
0000
0FE0
3FF0
7838
701C
E01C
E00C
E00E
FFFE
FFFE
FFFE
C000
E000
E000
E000
7000
3C1C
3FFC
0FF8
ENDCHAR
STARTCHAR 0114
ENCODING 276
SWIDTH 570 0
DWIDTH 19 0
BBX 14 31 3 0
BITMAP
3020
3860
1FE0
0FC0
0000
0000
0000
FFFC
FFFC
FFFC
E000
E000
E000
E000
E000
E000
E000
FFF8
FFF8
FFF8
E000
E000
E000
E000
E000
E000
E000
E000
FFFC
FFFC
FFFC
ENDCHAR
STARTCHAR 0115
ENCODING 277
SWIDTH 540 0
DWIDTH 18 0
BBX 15 26 2 0
BITMAP
1830
1830
0FF0
0FE0
0380
0000
0000
0000
0FE0
3FF0
7838
701C
E01C
E00C
E00E
FFFE
FFFE
FFFE
C000
E000
E000
E000
7000
3C1C
3FFC
0FF8
ENDCHAR
STARTCHAR 0116
ENCODING 278
SWIDTH 570 0
DWIDTH 19 0
BBX 14 30 3 0
BITMAP
0700
0700
0700
0000
0000
0000
FFFC
FFFC
FFFC
E000
E000
E000
E000
E000
E000
E000
FFF8
FFF8
FFF8
E000
E000
E000
E000
E000
E000
E000
E000
FFFC
FFFC
FFFC
ENDCHAR
STARTCHAR 0117
ENCODING 279
SWIDTH 540 0
DWIDTH 18 0
BBX 15 25 2 0
BITMAP
0380
0380
0380
0380
0000
0000
0000
0FE0
3FF0
7838
701C
E01C
E00C
E00E
FFFE
FFFE
FFFE
C000
E000
E000
E000
7000
3C1C
3FFC
0FF8
ENDCHAR
STARTCHAR 0118
ENCODING 280
SWIDTH 570 0
DWIDTH 19 0
BBX 14 30 3 -6
BITMAP
FFFC
FFFC
FFFC
E000
E000
E000
E000
E000
E000
E000
FFF8
FFF8
FFF8
E000
E000
E000
E000
E000
E000
E000
E000
FFFC
FFFC
FFFC
0020
0060
0060
00E0
007C
007C
ENDCHAR
STARTCHAR 0119
ENCODING 281
SWIDTH 540 0
DWIDTH 18 0
BBX 15 24 2 -6
BITMAP
0FE0
3FF0
7838
701C
E01C
E00C
E00E
FFFE
FFFE
FFFE
C000
E000
E000
E000
7000
3C1C
3FFC
0FF8
0060
0060
00C0
00C0
00FC
007C
ENDCHAR
STARTCHAR 011A
ENCODING 282
SWIDTH 570 0
DWIDTH 19 0
BBX 14 31 3 0
BITMAP
3860
18C0
0DC0
0780
0700
0000
0000
FFFC
FFFC
FFFC
E000
E000
E000
E000
E000
E000
E000
FFF8
FFF8
FFF8
E000
E000
E000
E000
E000
E000
E000
E000
FFFC
FFFC
FFFC
ENDCHAR
STARTCHAR 011B
ENCODING 283
SWIDTH 540 0
DWIDTH 18 0
BBX 15 26 2 0
BITMAP
1C30
0C60
06E0
07C0
0380
0380
0000
0000
0FE0
3FF0
7838
701C
E01C
E00C
E00E
FFFE
FFFE
FFFE
C000
E000
E000
E000
7000
3C1C
3FFC
0FF8
ENDCHAR
STARTCHAR 011C
ENCODING 284
SWIDTH 690 0
DWIDTH 23 0
BBX 19 31 2 0
BITMAP
007000
00F800
00D800
018C00
030600
000000
000000
03FF00
0FFFC0
1F07C0
3C00C0
780040
700000
F00000
E00000
E00000
E00000
E00000
E01FE0
E01FE0
E01FE0
E000E0
E000E0
E000E0
F000E0
7000E0
7800E0
3C00E0
1F07E0
0FFFC0
03FF00
ENDCHAR
STARTCHAR 011D
ENCODING 285
SWIDTH 570 0
DWIDTH 19 0
BBX 14 33 2 -7
BITMAP
0780
0780
0DC0
0CC0
1860
3060
0000
0000
1FDC
3FFC
787C
703C
E01C
E01C
E01C
C01C
C01C
C01C
C01C
E01C
E01C
E03C
703C
7FFC
3FDC
0F9C
001C
001C
0038
0038
3FF0
3FE0
1F80
ENDCHAR
STARTCHAR 011E
ENCODING 286
SWIDTH 690 0
DWIDTH 23 0
BBX 19 31 2 0
BITMAP
060C00
060C00
03F800
01F000
000000
000000
000000
03FF00
0FFFC0
1F07C0
3C00C0
780040
700000
F00000
E00000
E00000
E00000
E00000
E01FE0
E01FE0
E01FE0
E000E0
E000E0
E000E0
F000E0
7000E0
7800E0
3C00E0
1F07E0
0FFFC0
03FF00
ENDCHAR
STARTCHAR 011F
ENCODING 287
SWIDTH 570 0
DWIDTH 19 0
BBX 14 33 2 -7
BITMAP
1830
1830
1FE0
0FE0
0380
0000
0000
0000
1FDC
3FFC
787C
703C
E01C
E01C
E01C
C01C
C01C
C01C
C01C
E01C
E01C
E03C
703C
7FFC
3FDC
0F9C
001C
001C
0038
0038
3FF0
3FE0
1F80
ENDCHAR
STARTCHAR 0120
ENCODING 288
SWIDTH 690 0
DWIDTH 23 0
BBX 19 30 2 0
BITMAP
007000
007000
007000
000000
000000
000000
03FF00
0FFFC0
1F07C0
3C00C0
780040
700000
F00000
E00000
E00000
E00000
E00000
E01FE0
E01FE0
E01FE0
E000E0
E000E0
E000E0
F000E0
7000E0
7800E0
3C00E0
1F07E0
0FFFC0
03FF00
ENDCHAR
STARTCHAR 0121
ENCODING 289
SWIDTH 570 0
DWIDTH 19 0
BBX 14 32 2 -7
BITMAP
0300
0300
0300
0300
0000
0000
0000
1FDC
3FFC
787C
703C
E01C
E01C
E01C
C01C
C01C
C01C
C01C
E01C
E01C
E03C
703C
7FFC
3FDC
0F9C
001C
001C
0038
0038
3FF0
3FE0
1F80
ENDCHAR
STARTCHAR 0122
ENCODING 290
SWIDTH 690 0
DWIDTH 23 0
BBX 19 32 2 -7
BITMAP
03FF00
0FFFC0
1F07C0
3C00C0
780040
700000
F00000
E00000
E00000
E00000
E00000
E01FE0
E01FE0
E01FE0
E000E0
E000E0
E000E0
F000E0
7000E0
7800E0
3C00E0
1F07E0
0FFFC0
03FF00
000000
000000
000000
007000
007000
006000
006000
00C000
ENDCHAR
STARTCHAR 0123
ENCODING 291
SWIDTH 570 0
DWIDTH 19 0
BBX 14 32 2 -7
BITMAP
0180
0180
0380
0380
0380
0000
0000
1FDC
3FFC
787C
703C
E01C
E01C
E01C
C01C
C01C
C01C
C01C
E01C
E01C
E03C
703C
7FFC
3FDC
0F9C
001C
001C
0038
0038
3FF0
3FE0
1F80
ENDCHAR
STARTCHAR 0124
ENCODING 292
SWIDTH 660 0
DWIDTH 22 0
BBX 16 31 3 0
BITMAP
01C0
03C0
0760
0630
0C30
0000
0000
E007
E007
E007
E007
E007
E007
E007
E007
E007
E007
FFFF
FFFF
FFFF
E007
E007
E007
E007
E007
E007
E007
E007
E007
E007
E007
ENDCHAR
STARTCHAR 0125
ENCODING 293
SWIDTH 570 0
DWIDTH 19 0
BBX 16 31 0 0
BITMAP
1800
3C00
6600
E700
C300
0000
1800
1800
1800
1800
1800
1800
1800
19FC
1BFE
1B0E
1E07
1C07
1C07
1803
1803
1803
1803
1803
1803
1803
1803
1803
1803
1803
1803
ENDCHAR
STARTCHAR 0126
ENCODING 294
SWIDTH 810 0
DWIDTH 27 0
BBX 21 24 3 0
BITMAP
3800E0
3800E0
3800E0
3800E0
FFFFF8
FFFFF8
3800E0
3800E0
3800E0
3800E0
3FFFE0
3FFFE0
3FFFE0
3800E0
3800E0
3800E0
3800E0
3800E0
3800E0
3800E0
3800E0
3800E0
3800E0
3800E0
ENDCHAR
STARTCHAR 0127
ENCODING 295
SWIDTH 630 0
DWIDTH 21 0
BBX 15 25 2 0
BITMAP
3000
3000
FF80
FF80
FF80
3000
3000
33F8
37FC
3E1C
3C0E
380E
380E
300E
300E
300E
300E
300E
300E
300E
300E
300E
300E
300E
300E
ENDCHAR
STARTCHAR 0128
ENCODING 296
SWIDTH 270 0
DWIDTH 9 0
BBX 9 30 0 0
BITMAP
F980
FF80
8F00
0000
0000
0000
1C00
1C00
1C00
1C00
1C00
1C00
1C00
1C00
1C00
1C00
1C00
1C00
1C00
1C00
1C00
1C00
1C00
1C00
1C00
1C00
1C00
1C00
1C00
1C00
ENDCHAR
STARTCHAR 0129
ENCODING 297
SWIDTH 240 0
DWIDTH 8 0
BBX 10 26 -1 0
BITMAP
10C0
78C0
6CC0
C780
C300
0000
0000
0000
0C00
0C00
0C00
0C00
0C00
0C00
0C00
0C00
0C00
0C00
0C00
0C00
0C00
0C00
0C00
0C00
0C00
0C00
ENDCHAR
STARTCHAR 012A
ENCODING 298
SWIDTH 270 0
DWIDTH 9 0
BBX 9 30 0 0
BITMAP
FF80
FF80
FF80
0000
0000
0000
1C00
1C00
1C00
1C00
1C00
1C00
1C00
1C00
1C00
1C00
1C00
1C00
1C00
1C00
1C00
1C00
1C00
1C00
1C00
1C00
1C00
1C00
1C00
1C00
ENDCHAR
STARTCHAR 012B
ENCODING 299
SWIDTH 240 0
DWIDTH 8 0
BBX 8 25 0 0
BITMAP
FF
FF
FF
00
00
00
00
18
18
18
18
18
18
18
18
18
18
18
18
18
18
18
18
18
18
ENDCHAR
STARTCHAR 012C
ENCODING 300
SWIDTH 270 0
DWIDTH 9 0
BBX 9 31 0 0
BITMAP
C180
C180
FF00
7E00
0000
0000
0000
1C00
1C00
1C00
1C00
1C00
1C00
1C00
1C00
1C00
1C00
1C00
1C00
1C00
1C00
1C00
1C00
1C00
1C00
1C00
1C00
1C00
1C00
1C00
1C00
ENDCHAR
STARTCHAR 012D
ENCODING 301
SWIDTH 240 0
DWIDTH 8 0
BBX 9 26 0 0
BITMAP
8180
C300
FF00
7E00
1C00
0000
0000
0000
1800
1800
1800
1800
1800
1800
1800
1800
1800
1800
1800
1800
1800
1800
1800
1800
1800
1800
ENDCHAR
STARTCHAR 012E
ENCODING 302
SWIDTH 270 0
DWIDTH 9 0
BBX 5 30 3 -6
BITMAP
E0
E0
E0
E0
E0
E0
E0
E0
E0
E0
E0
E0
E0
E0
E0
E0
E0
E0
E0
E0
E0
E0
E0
E0
60
C0
C0
C0
F8
F8
ENDCHAR
STARTCHAR 012F
ENCODING 303
SWIDTH 240 0
DWIDTH 8 0
BBX 6 31 2 -6
BITMAP
60
60
60
60
00
00
00
60
60
60
60
60
60
60
60
60
60
60
60
60
60
60
60
60
60
60
60
C0
C0
FC
7C
ENDCHAR
STARTCHAR 0130
ENCODING 304
SWIDTH 270 0
DWIDTH 9 0
BBX 3 30 3 0
BITMAP
E0
E0
E0
00
00
00
E0
E0
E0
E0
E0
E0
E0
E0
E0
E0
E0
E0
E0
E0
E0
E0
E0
E0
E0
E0
E0
E0
E0
E0
ENDCHAR
STARTCHAR 0131
ENCODING 305
SWIDTH 240 0
DWIDTH 8 0
BBX 2 18 3 0
BITMAP
C0
C0
C0
C0
C0
C0
C0
C0
C0
C0
C0
C0
C0
C0
C0
C0
C0
C0
ENDCHAR
STARTCHAR 0132
ENCODING 306
SWIDTH 540 0
DWIDTH 18 0
BBX 12 31 3 -7
BITMAP
E070
E070
E070
E070
E070
E070
E070
E070
E070
E070
E070
E070
E070
E070
E070
E070
E070
E070
E070
E070
E070
E070
E070
E070
0070
00E0
00E0
01E0
0FC0
0F80
0E00
ENDCHAR
STARTCHAR 0133
ENCODING 307
SWIDTH 510 0
DWIDTH 17 0
BBX 11 32 3 -7
BITMAP
C0E0
C0E0
C0E0
C0E0
0000
0000
0000
C0E0
C0E0
C0E0
C0E0
C0E0
C0E0
C0E0
C0E0
C0E0
C0E0
C0E0
C0E0
C0E0
C0E0
C0E0
C0E0
C0E0
C0E0
00E0
00E0
00E0
01C0
07C0
0780
0700
ENDCHAR
STARTCHAR 0134
ENCODING 308
SWIDTH 270 0
DWIDTH 9 0
BBX 11 38 -2 -7
BITMAP
0700
0F80
0D80
18C0
3060
0000
0000
0700
0700
0700
0700
0700
0700
0700
0700
0700
0700
0700
0700
0700
0700
0700
0700
0700
0700
0700
0700
0700
0700
0700
0700
0700
0700
0E00
1E00
FC00
FC00
E000
ENDCHAR
STARTCHAR 0135
ENCODING 309
SWIDTH 240 0
DWIDTH 8 0
BBX 10 33 -1 -7
BITMAP
0E00
1E00
3B00
3300
6180
60C0
0000
0000
0C00
0C00
0C00
0C00
0C00
0C00
0C00
0C00
0C00
0C00
0C00
0C00
0C00
0C00
0C00
0C00
0C00
0C00
0C00
0C00
0C00
1C00
FC00
F800
F000
ENDCHAR
STARTCHAR 0136
ENCODING 310
SWIDTH 570 0
DWIDTH 19 0
BBX 17 32 3 -8
BITMAP
E00F00
E01E00
E03C00
E07800
E0F000
E1E000
E3C000
E78000
EF0000
FE0000
FC0000
FC0000
FE0000
EF0000
E78000
E38000
E1C000
E1E000
E0F000
E07800
E03C00
E01E00
E00F00
E00780
000000
000000
000000
01C000
01C000
018000
018000
030000
ENDCHAR
STARTCHAR 0137
ENCODING 311
SWIDTH 510 0
DWIDTH 17 0
BBX 14 33 3 -8
BITMAP
C000
C000
C000
C000
C000
C000
C000
C038
C070
C0E0
C1C0
C380
C700
CE00
DC00
F800
DC00
CE00
C700
C780
C3C0
C1E0
C0F0
C078
C03C
0000
0000
0000
0380
0300
0700
0600
0600
ENDCHAR
STARTCHAR 0138
ENCODING 312
SWIDTH 510 0
DWIDTH 17 0
BBX 14 18 3 0
BITMAP
C038
C070
C0E0
C1C0
C380
C700
CE00
DC00
F800
DC00
CE00
C700
C780
C3C0
C1E0
C0F0
C078
C03C
ENDCHAR
STARTCHAR 0139
ENCODING 313
SWIDTH 510 0
DWIDTH 17 0
BBX 13 31 3 0
BITMAP
1C00
3800
3000
6000
E000
0000
0000
E000
E000
E000
E000
E000
E000
E000
E000
E000
E000
E000
E000
E000
E000
E000
E000
E000
E000
E000
E000
E000
FFF8
FFF8
FFF8
ENDCHAR
STARTCHAR 013A
ENCODING 314
SWIDTH 240 0
DWIDTH 8 0
BBX 5 31 3 0
BITMAP
18
38
70
60
C0
00
C0
C0
C0
C0
C0
C0
C0
C0
C0
C0
C0
C0
C0
C0
C0
C0
C0
C0
C0
C0
C0
C0
C0
C0
C0
ENDCHAR
STARTCHAR 013B
ENCODING 315
SWIDTH 510 0
DWIDTH 17 0
BBX 13 32 3 -8
BITMAP
E000
E000
E000
E000
E000
E000
E000
E000
E000
E000
E000
E000
E000
E000
E000
E000
E000
E000
E000
E000
E000
FFF8
FFF8
FFF8
0000
0000
0000
0700
0700
0600
0600
0600
ENDCHAR
STARTCHAR 013C
ENCODING 316
SWIDTH 240 0
DWIDTH 8 0
BBX 4 33 2 -8
BITMAP
60
60
60
60
60
60
60
60
60
60
60
60
60
60
60
60
60
60
60
60
60
60
60
60
60
00
00
00
70
60
E0
C0
C0
ENDCHAR
STARTCHAR 013D
ENCODING 317
SWIDTH 510 0
DWIDTH 17 0
BBX 13 24 3 0
BITMAP
E180
E380
E380
E380
E300
E300
E000
E000
E000
E000
E000
E000
E000
E000
E000
E000
E000
E000
E000
E000
E000
FFF8
FFF8
FFF8
ENDCHAR
STARTCHAR 013E
ENCODING 318
SWIDTH 330 0
DWIDTH 11 0
BBX 8 25 3 0
BITMAP
C7
C7
C6
C6
CE
CE
C0
C0
C0
C0
C0
C0
C0
C0
C0
C0
C0
C0
C0
C0
C0
C0
C0
C0
C0
ENDCHAR
STARTCHAR 013F
ENCODING 319
SWIDTH 510 0
DWIDTH 17 0
BBX 13 24 3 0
BITMAP
E000
E000
E000
E000
E000
E000
E000
E000
E0E0
E0E0
E0E0
E0E0
E0E0
E000
E000
E000
E000
E000
E000
E000
E000
FFF8
FFF8
FFF8
ENDCHAR
STARTCHAR 0140
ENCODING 320
SWIDTH 300 0
DWIDTH 10 0
BBX 6 25 3 0
BITMAP
C0
C0
C0
C0
C0
C0
C0
C0
C0
DC
DC
DC
DC
DC
C0
C0
C0
C0
C0
C0
C0
C0
C0
C0
C0
ENDCHAR
STARTCHAR 0141
ENCODING 321
SWIDTH 510 0
DWIDTH 17 0
BBX 17 24 0 0
BITMAP
1C0000
1C0000
1C0000
1C0000
1C0000
1C0000
1C2000
1C6000
1CE000
1DC000
1F8000
1E0000
1C0000
7C0000
FC0000
DC0000
1C0000
1C0000
1C0000
1C0000
1C0000
1FFF80
1FFF80
1FFF80
ENDCHAR
STARTCHAR 0142
ENCODING 322
SWIDTH 240 0
DWIDTH 8 0
BBX 8 25 0 0
BITMAP
1C
1C
1C
1C
1C
1C
1C
1C
1D
1F
1F
1C
3C
7C
FC
1C
1C
1C
1C
1C
1C
1C
1C
1C
1C
ENDCHAR
STARTCHAR 0143
ENCODING 323
SWIDTH 660 0
DWIDTH 22 0
BBX 16 31 3 0
BITMAP
00E0
01C0
0180
0300
0700
0000
0000
F007
F807
F807
FC07
FC07
EE07
EE07
EE07
E707
E707
E387
E387
E1C7
E1C7
E0E7
E0E7
E077
E077
E03F
E03F
E01F
E01F
E00F
E00F
ENDCHAR
STARTCHAR 0144
ENCODING 324
SWIDTH 570 0
DWIDTH 19 0
BBX 13 26 3 0
BITMAP
01C0
0380
0700
0600
0E00
1C00
0000
0000
CFE0
DFF0
D870
F038
E038
E038
C018
C018
C018
C018
C018
C018
C018
C018
C018
C018
C018
C018
ENDCHAR
STARTCHAR 0145
ENCODING 325
SWIDTH 660 0
DWIDTH 22 0
BBX 16 32 3 -8
BITMAP
F007
F807
F807
FC07
FC07
EE07
EE07
EE07
E707
E707
E387
E387
E1C7
E1C7
E0E7
E0E7
E077
E077
E03F
E03F
E01F
E01F
E00F
E00F
0000
0000
0000
01C0
0180
0380
0300
0300
ENDCHAR
STARTCHAR 0146
ENCODING 326
SWIDTH 570 0
DWIDTH 19 0
BBX 13 26 3 -8
BITMAP
CFE0
DFF0
D870
F038
E038
E038
C018
C018
C018
C018
C018
C018
C018
C018
C018
C018
C018
C018
0000
0000
0000
0700
0700
0600
0600
0C00
ENDCHAR
STARTCHAR 0147
ENCODING 327
SWIDTH 660 0
DWIDTH 22 0
BBX 16 31 3 0
BITMAP
0C30
0E70
0660
03C0
0380
0000
0000
F007
F807
F807
FC07
FC07
EE07
EE07
EE07
E707
E707
E387
E387
E1C7
E1C7
E0E7
E0E7
E077
E077
E03F
E03F
E01F
E01F
E00F
E00F
ENDCHAR
STARTCHAR 0148
ENCODING 328
SWIDTH 570 0
DWIDTH 19 0
BBX 13 26 3 0
BITMAP
30E0
18C0
0D80
0F80
0700
0700
0000
0000
CFE0
DFF0
D870
F038
E038
E038
C018
C018
C018
C018
C018
C018
C018
C018
C018
C018
C018
C018
ENDCHAR
STARTCHAR 0149
ENCODING 329
SWIDTH 720 0
DWIDTH 24 0
BBX 18 24 3 0
BITMAP
700000
700000
700000
700000
600000
E00000
C67F00
C6FF80
07C380
0781C0
0701C0
0701C0
0600C0
0600C0
0600C0
0600C0
0600C0
0600C0
0600C0
0600C0
0600C0
0600C0
0600C0
0600C0
ENDCHAR
STARTCHAR 014A
ENCODING 330
SWIDTH 660 0
DWIDTH 22 0
BBX 16 31 3 -6
BITMAP
E3F8
EFFC
EFFC
FC1E
F80E
F00F
E007
E007
E007
E007
E007
E007
E007
E007
E007
E007
E007
E007
E007
E007
E007
E007
E007
E007
0007
0007
0007
000F
003E
003E
0038
ENDCHAR
STARTCHAR 014B
ENCODING 331
SWIDTH 570 0
DWIDTH 19 0
BBX 13 25 3 -7
BITMAP
CFE0
DFF0
D870
F038
E038
E038
C018
C018
C018
C018
C018
C018
C018
C018
C018
C018
C018
C018
0018
0018
0038
0038
07F8
07F0
07C0
ENDCHAR
STARTCHAR 014C
ENCODING 332
SWIDTH 690 0
DWIDTH 23 0
BBX 20 30 2 0
BITMAP
07FC00
07FC00
07FC00
000000
000000
000000
07FC00
0FFF00
1F0F80
3C0380
7801C0
7001E0
F000E0
E000E0
E000E0
E000F0
E00070
E00070
E00070
E00070
E000F0
E000E0
E000E0
F000E0
7001E0
7801C0
3C0380
1F0F80
0FFF00
07FC00
ENDCHAR
STARTCHAR 014D
ENCODING 333
SWIDTH 540 0
DWIDTH 18 0
BBX 15 25 2 0
BITMAP
1FE0
1FE0
1FE0
0000
0000
0000
0000
1FE0
3FF0
7878
7038
E01C
E01C
E01C
E00C
C00E
C00E
E00C
E01C
E01C
E01C
7038
7878
3FF0
1FE0
ENDCHAR
STARTCHAR 014E
ENCODING 334
SWIDTH 690 0
DWIDTH 23 0
BBX 20 31 2 0
BITMAP
060C00
060C00
03FC00
01F800
000000
000000
000000
07FC00
0FFF00
1F0F80
3C0380
7801C0
7001E0
F000E0
E000E0
E000E0
E000F0
E00070
E00070
E00070
E00070
E000F0
E000E0
E000E0
F000E0
7001E0
7801C0
3C0380
1F0F80
0FFF00
07FC00
ENDCHAR
STARTCHAR 014F
ENCODING 335
SWIDTH 540 0
DWIDTH 18 0
BBX 15 26 2 0
BITMAP
1030
1860
1FE0
0FC0
0300
0000
0000
0000
1FE0
3FF0
7878
7038
E01C
E01C
E01C
E00C
C00E
C00E
E00C
E01C
E01C
E01C
7038
7878
3FF0
1FE0
ENDCHAR
STARTCHAR 0150
ENCODING 336
SWIDTH 690 0
DWIDTH 23 0
BBX 20 31 2 0
BITMAP
00E700
00C600
01CC00
039C00
031800
000000
000000
07FC00
0FFF00
1F0F80
3C0380
7801C0
7001E0
F000E0
E000E0
E000E0
E000F0
E00070
E00070
E00070
E00070
E000F0
E000E0
E000E0
F000E0
7001E0
7801C0
3C0380
1F0F80
0FFF00
07FC00
ENDCHAR
STARTCHAR 0151
ENCODING 337
SWIDTH 540 0
DWIDTH 18 0
BBX 15 26 2 0
BITMAP
039C
0338
0730
0670
0C60
0C60
0000
0000
1FE0
3FF0
7878
7038
E01C
E01C
E01C
E00C
C00E
C00E
E00C
E01C
E01C
E01C
7038
7878
3FF0
1FE0
ENDCHAR
STARTCHAR 0152
ENCODING 338
SWIDTH 960 0
DWIDTH 32 0
BBX 28 24 2 0
BITMAP
00FFFFF0
07FFFFF0
1FFFFFF0
3E038000
3C038000
78038000
70038000
E0038000
E0038000
E0038000
E003FFE0
E003FFE0
E003FFE0
E0038000
E0038000
E0038000
E0038000
70038000
78038000
3C038000
3F038000
0FFFFFF0
07FFFFF0
00FFFFF0
ENDCHAR
STARTCHAR 0153
ENCODING 339
SWIDTH 900 0
DWIDTH 30 0
BBX 27 18 2 0
BITMAP
1FE0FE00
3FF3FF80
787BC380
703F01C0
E01E00C0
E01E00E0
E01E00E0
E00FFFE0
C00FFFE0
C00FFFE0
E00E0000
E01E0000
E01E0000
E01F0000
703F0000
787BC1C0
3FF1FFC0
1FE0FF80
ENDCHAR
STARTCHAR 0154
ENCODING 340
SWIDTH 630 0
DWIDTH 21 0
BBX 17 31 3 0
BITMAP
01C000
018000
030000
070000
060000
000000
000000
FFC000
FFF000
FFF800
E07800
E03C00
E01C00
E01C00
E01C00
E01C00
E03800
E07800
FFF000
FFE000
FFE000
E07000
E03800
E03800
E01C00
E01C00
E00E00
E00E00
E00700
E00700
E00780
ENDCHAR
STARTCHAR 0155
ENCODING 341
SWIDTH 360 0
DWIDTH 12 0
BBX 10 26 3 0
BITMAP
01C0
0380
0700
0600
0C00
1C00
0000
0000
CF80
DF80
F800
F000
E000
E000
E000
C000
C000
C000
C000
C000
C000
C000
C000
C000
C000
C000
ENDCHAR
STARTCHAR 0156
ENCODING 342
SWIDTH 630 0
DWIDTH 21 0
BBX 17 32 3 -8
BITMAP
FFC000
FFF000
FFF800
E07800
E03C00
E01C00
E01C00
E01C00
E01C00
E03800
E07800
FFF000
FFE000
FFE000
E07000
E03800
E03800
E01C00
E01C00
E00E00
E00E00
E00700
E00700
E00780
000000
000000
000000
01C000
01C000
018000
038000
030000
ENDCHAR
STARTCHAR 0157
ENCODING 343
SWIDTH 360 0
DWIDTH 12 0
BBX 10 26 2 -8
BITMAP
67C0
6FC0
7C00
7800
7000
7000
7000
6000
6000
6000
6000
6000
6000
6000
6000
6000
6000
6000
0000
0000
0000
7000
6000
E000
C000
C000
ENDCHAR
STARTCHAR 0158
ENCODING 344
SWIDTH 630 0
DWIDTH 21 0
BBX 17 31 3 0
BITMAP
306000
18C000
1D8000
0F0000
070000
000000
000000
FFC000
FFF000
FFF800
E07800
E03C00
E01C00
E01C00
E01C00
E01C00
E03800
E07800
FFF000
FFE000
FFE000
E07000
E03800
E03800
E01C00
E01C00
E00E00
E00E00
E00700
E00700
E00780
ENDCHAR
STARTCHAR 0159
ENCODING 345
SWIDTH 360 0
DWIDTH 12 0
BBX 9 26 3 0
BITMAP
6180
6300
3700
3E00
1E00
0C00
0000
0000
CF80
DF80
F800
F000
E000
E000
E000
C000
C000
C000
C000
C000
C000
C000
C000
C000
C000
C000
ENDCHAR
STARTCHAR 015A
ENCODING 346
SWIDTH 570 0
DWIDTH 19 0
BBX 15 31 2 0
BITMAP
00E0
00C0
0180
0380
0300
0000
0000
1FF8
3FFC
7C3C
F004
E000
E000
E000
E000
F000
7C00
7FC0
3FF0
0FF8
007C
001E
000E
000E
000E
000E
000E
C01E
F07C
FFF8
3FF0
ENDCHAR
STARTCHAR 015B
ENCODING 347
SWIDTH 450 0
DWIDTH 15 0
BBX 12 26 2 0
BITMAP
00E0
01C0
0380
0300
0700
0E00
0000
0000
3FE0
7FE0
F060
E000
C000
C000
E000
FC00
7F80
1FE0
01E0
0070
0070
0070
0070
C0E0
FFE0
FF80
ENDCHAR
STARTCHAR 015C
ENCODING 348
SWIDTH 570 0
DWIDTH 19 0
BBX 15 31 2 0
BITMAP
0380
07C0
06C0
0C60
1830
0000
0000
1FF8
3FFC
7C3C
F004
E000
E000
E000
E000
F000
7C00
7FC0
3FF0
0FF8
007C
001E
000E
000E
000E
000E
000E
C01E
F07C
FFF8
3FF0
ENDCHAR
STARTCHAR 015D
ENCODING 349
SWIDTH 450 0
DWIDTH 15 0
BBX 12 26 2 0
BITMAP
0F00
0F00
1B80
1980
30C0
60C0
0000
0000
3FE0
7FE0
F060
E000
C000
C000
E000
FC00
7F80
1FE0
01E0
0070
0070
0070
0070
C0E0
FFE0
FF80
ENDCHAR
STARTCHAR 015E
ENCODING 350
SWIDTH 570 0
DWIDTH 19 0
BBX 15 30 2 -5
BITMAP
1FF8
3FFC
7C3C
F004
E000
E000
E000
E000
F000
7C00
7FC0
3FF0
0FF8
007C
001E
000E
000E
000E
000E
000E
C01E
F07C
FFF8
3FF0
0180
00C0
00C0
00C0
0FC0
0F80
ENDCHAR
STARTCHAR 015F
ENCODING 351
SWIDTH 450 0
DWIDTH 15 0
BBX 12 24 2 -6
BITMAP
3FE0
7FE0
F060
E000
C000
C000
E000
FC00
7F80
1FE0
01E0
0070
0070
0070
0070
C0E0
FFE0
FF80
0200
0300
0300
0380
1F00
1F00
ENDCHAR
STARTCHAR 0160
ENCODING 352
SWIDTH 570 0
DWIDTH 19 0
BBX 15 31 2 0
BITMAP
1830
0C60
06C0
07C0
0380
0000
0000
1FF8
3FFC
7C3C
F004
E000
E000
E000
E000
F000
7C00
7FC0
3FF0
0FF8
007C
001E
000E
000E
000E
000E
000E
C01E
F07C
FFF8
3FF0
ENDCHAR
STARTCHAR 0161
ENCODING 353
SWIDTH 450 0
DWIDTH 15 0
BBX 12 26 2 0
BITMAP
30C0
19C0
1980
0F00
0F00
0600
0000
0000
3FE0
7FE0
F060
E000
C000
C000
E000
FC00
7F80
1FE0
01E0
0070
0070
0070
0070
C0E0
FFE0
FF80
ENDCHAR
STARTCHAR 0162
ENCODING 354
SWIDTH 540 0
DWIDTH 18 0
BBX 18 30 0 -6
BITMAP
FFFFC0
FFFFC0
FFFFC0
00E000
00E000
00E000
00E000
00E000
00E000
00E000
00E000
00E000
00E000
00E000
00E000
00E000
00E000
00E000
00E000
00E000
00E000
00E000
00E000
00E000
00C000
006000
006000
006000
07E000
07E000
ENDCHAR
STARTCHAR 0163
ENCODING 355
SWIDTH 360 0
DWIDTH 12 0
BBX 10 29 1 -6
BITMAP
3000
3000
3000
3000
3000
FFC0
FFC0
3000
3000
3000
3000
3000
3000
3000
3000
3000
3000
3000
3800
3800
3E00
1FC0
0FC0
0300
0300
0180
0180
1F80
1F00
ENDCHAR
STARTCHAR 0164
ENCODING 356
SWIDTH 540 0
DWIDTH 18 0
BBX 18 31 0 0
BITMAP
061800
071800
033000
01E000
00E000
000000
000000
FFFFC0
FFFFC0
FFFFC0
00E000
00E000
00E000
00E000
00E000
00E000
00E000
00E000
00E000
00E000
00E000
00E000
00E000
00E000
00E000
00E000
00E000
00E000
00E000
00E000
00E000
ENDCHAR
STARTCHAR 0165
ENCODING 357
SWIDTH 360 0
DWIDTH 12 0
BBX 10 27 1 0
BITMAP
01C0
01C0
0180
0180
3380
3380
3000
3000
3000
FFC0
FFC0
3000
3000
3000
3000
3000
3000
3000
3000
3000
3000
3000
3800
3800
3E00
1FC0
0FC0
ENDCHAR
STARTCHAR 0166
ENCODING 358
SWIDTH 540 0
DWIDTH 18 0
BBX 18 24 0 0
BITMAP
FFFFC0
FFFFC0
FFFFC0
00E000
00E000
00E000
00E000
00E000
00E000
00E000
00E000
00E000
0FFC00
0FFC00
0FFC00
00E000
00E000
00E000
00E000
00E000
00E000
00E000
00E000
00E000
ENDCHAR
STARTCHAR 0167
ENCODING 359
SWIDTH 360 0
DWIDTH 12 0
BBX 10 23 1 0
BITMAP
3000
3000
3000
3000
3000
FFC0
FFC0
3000
3000
3000
3000
FFC0
FFC0
3000
3000
3000
3000
3000
3800
3800
3E00
1FC0
0FC0
ENDCHAR
STARTCHAR 0168
ENCODING 360
SWIDTH 660 0
DWIDTH 22 0
BBX 16 30 3 0
BITMAP
0F18
1FF0
18F0
0000
0000
0000
E007
E007
E007
E007
E007
E007
E007
E007
E007
E007
E007
E007
E007
E007
E007
E007
E007
E007
E007
E00E
700E
7C3E
3FFC
1FF0
ENDCHAR
STARTCHAR 0169
ENCODING 361
SWIDTH 570 0
DWIDTH 19 0
BBX 13 26 3 0
BITMAP
0860
3E60
3760
33C0
21C0
0000
0000
0000
C038
C038
C038
C038
C038
C038
C038
C038
C038
C038
C038
C038
C038
E038
E078
F0F8
7FF8
3F38
ENDCHAR
STARTCHAR 016A
ENCODING 362
SWIDTH 660 0
DWIDTH 22 0
BBX 16 30 3 0
BITMAP
0FF0
0FF0
0FF0
0000
0000
0000
E007
E007
E007
E007
E007
E007
E007
E007
E007
E007
E007
E007
E007
E007
E007
E007
E007
E007
E007
E00E
700E
7C3E
3FFC
1FF0
ENDCHAR
STARTCHAR 016B
ENCODING 363
SWIDTH 570 0
DWIDTH 19 0
BBX 13 25 3 0
BITMAP
3FE0
3FE0
3FE0
0000
0000
0000
0000
C038
C038
C038
C038
C038
C038
C038
C038
C038
C038
C038
C038
C038
E038
E078
F0F8
7FF8
3F38
ENDCHAR
STARTCHAR 016C
ENCODING 364
SWIDTH 660 0
DWIDTH 22 0
BBX 16 31 3 0
BITMAP
1810
0C30
0FF0
07E0
0000
0000
0000
E007
E007
E007
E007
E007
E007
E007
E007
E007
E007
E007
E007
E007
E007
E007
E007
E007
E007
E007
E00E
700E
7C3E
3FFC
1FF0
ENDCHAR
STARTCHAR 016D
ENCODING 365
SWIDTH 570 0
DWIDTH 19 0
BBX 13 26 3 0
BITMAP
3060
3060
3FC0
1FC0
0700
0000
0000
0000
C038
C038
C038
C038
C038
C038
C038
C038
C038
C038
C038
C038
C038
E038
E078
F0F8
7FF8
3F38
ENDCHAR
STARTCHAR 016E
ENCODING 366
SWIDTH 660 0
DWIDTH 22 0
BBX 16 31 3 0
BITMAP
03C0
07E0
0E60
0C30
0C30
0C30
0E60
E7E7
E3C7
E007
E007
E007
E007
E007
E007
E007
E007
E007
E007
E007
E007
E007
E007
E007
E007
E007
E00E
700E
7C3E
3FFC
1FF0
ENDCHAR
STARTCHAR 016F
ENCODING 367
SWIDTH 570 0
DWIDTH 19 0
BBX 13 28 3 0
BITMAP
0F00
1F80
18C0
30C0
30C0
30C0
19C0
1F80
0700
0000
C038
C038
C038
C038
C038
C038
C038
C038
C038
C038
C038
C038
C038
E038
E078
F0F8
7FF8
3F38
ENDCHAR
STARTCHAR 0170
ENCODING 368
SWIDTH 660 0
DWIDTH 22 0
BBX 16 31 3 0
BITMAP
019C
0318
0738
0670
0C60
0000
0000
E007
E007
E007
E007
E007
E007
E007
E007
E007
E007
E007
E007
E007
E007
E007
E007
E007
E007
E007
E00E
700E
7C3E
3FFC
1FF0
ENDCHAR
STARTCHAR 0171
ENCODING 369
SWIDTH 570 0
DWIDTH 19 0
BBX 13 26 3 0
BITMAP
0738
0630
0E70
0C60
0CC0
18C0
0000
0000
C038
C038
C038
C038
C038
C038
C038
C038
C038
C038
C038
C038
C038
E038
E078
F0F8
7FF8
3F38
ENDCHAR
STARTCHAR 0172
ENCODING 370
SWIDTH 660 0
DWIDTH 22 0
BBX 16 30 3 -6
BITMAP
E007
E007
E007
E007
E007
E007
E007
E007
E007
E007
E007
E007
E007
E007
E007
E007
E007
E007
E007
E00E
700E
7C3E
3FFC
1FF0
0100
0300
0300
0700
03E0
03E0
ENDCHAR
STARTCHAR 0173
ENCODING 371
SWIDTH 570 0
DWIDTH 19 0
BBX 15 24 3 -6
BITMAP
C038
C038
C038
C038
C038
C038
C038
C038
C038
C038
C038
C038
C038
E038
E078
F0F8
7FF8
3F38
0018
0030
0030
0030
003E
003E
ENDCHAR
STARTCHAR 0174
ENCODING 372
SWIDTH 870 0
DWIDTH 29 0
BBX 27 31 1 0
BITMAP
000E0000
000F0000
001B8000
00318000
0060C000
00000000
00000000
E00E00E0
E00F00E0
701F00E0
701F00E0
701B01C0
701B81C0
701B81C0
383981C0
38398380
38318380
3831C380
1C70C380
1C70C380
1C60C700
1C60E700
1C60E700
0EE06700
0EE06E00
0EC06E00
0EC07E00
07C03E00
07C03E00
07803C00
07803C00
ENDCHAR
STARTCHAR 0175
ENCODING 373
SWIDTH 720 0
DWIDTH 24 0
BBX 22 26 1 0
BITMAP
003800
007800
00EC00
00CC00
018600
018300
000000
000000
E0781C
60781C
707818
707C18
70FC38
30EC38
30CC38
38CC30
38CE70
39C670
198670
1D8660
1D87E0
1F83E0
0F03E0
0F03C0
0F03C0
0F01C0
ENDCHAR
STARTCHAR 0176
ENCODING 374
SWIDTH 540 0
DWIDTH 18 0
BBX 18 31 0 0
BITMAP
00E000
01E000
03B000
071800
061800
000000
000000
E001C0
700380
380380
380700
1C0E00
1C0E00
0E1C00
073C00
073800
03F000
03F000
01E000
00E000
00E000
00E000
00E000
00E000
00E000
00E000
00E000
00E000
00E000
00E000
00E000
ENDCHAR
STARTCHAR 0177
ENCODING 375
SWIDTH 540 0
DWIDTH 18 0
BBX 15 33 1 -7
BITMAP
0380
03C0
06E0
0E60
0C30
1830
0000
0000
E006
E00E
700E
700C
301C
381C
3838
1838
1C38
1C70
0E70
0E70
06E0
07E0
07C0
03C0
03C0
0380
0380
0380
0700
0700
7E00
7E00
7800
ENDCHAR
STARTCHAR 0178
ENCODING 376
SWIDTH 540 0
DWIDTH 18 0
BBX 18 30 0 0
BITMAP
073800
073800
073800
000000
000000
000000
E001C0
700380
380380
380700
1C0E00
1C0E00
0E1C00
073C00
073800
03F000
03F000
01E000
00E000
00E000
00E000
00E000
00E000
00E000
00E000
00E000
00E000
00E000
00E000
00E000
ENDCHAR
STARTCHAR 0179
ENCODING 377
SWIDTH 600 0
DWIDTH 20 0
BBX 18 31 1 0
BITMAP
007000
006000
00C000
01C000
018000
000000
000000
7FFFC0
7FFFC0
7FFFC0
000780
000700
000E00
001E00
001C00
003800
007800
00F000
00E000
01C000
03C000
078000
070000
0E0000
1E0000
1C0000
380000
780000
FFFFC0
FFFFC0
FFFFC0
ENDCHAR
STARTCHAR 017A
ENCODING 378
SWIDTH 480 0
DWIDTH 16 0
BBX 13 26 1 0
BITMAP
0070
00E0
01C0
0180
0380
0700
0000
0000
7FF8
7FF8
0038
0078
0070
00E0
01C0
03C0
0380
0700
0E00
1C00
3C00
3800
7000
E000
FFF8
FFF8
ENDCHAR
STARTCHAR 017B
ENCODING 379
SWIDTH 600 0
DWIDTH 20 0
BBX 18 30 1 0
BITMAP
00E000
00E000
00E000
000000
000000
000000
7FFFC0
7FFFC0
7FFFC0
000780
000700
000E00
001E00
001C00
003800
007800
00F000
00E000
01C000
03C000
078000
070000
0E0000
1E0000
1C0000
380000
780000
FFFFC0
FFFFC0
FFFFC0
ENDCHAR
STARTCHAR 017C
ENCODING 380
SWIDTH 480 0
DWIDTH 16 0
BBX 13 25 1 0
BITMAP
0700
0700
0700
0700
0000
0000
0000
7FF8
7FF8
0038
0078
0070
00E0
01C0
03C0
0380
0700
0E00
1C00
3C00
3800
7000
E000
FFF8
FFF8
ENDCHAR
STARTCHAR 017D
ENCODING 381
SWIDTH 600 0
DWIDTH 20 0
BBX 18 31 1 0
BITMAP
061C00
031800
03B000
01E000
00E000
000000
000000
7FFFC0
7FFFC0
7FFFC0
000780
000700
000E00
001E00
001C00
003800
007800
00F000
00E000
01C000
03C000
078000
070000
0E0000
1E0000
1C0000
380000
780000
FFFFC0
FFFFC0
FFFFC0
ENDCHAR
STARTCHAR 017E
ENCODING 382
SWIDTH 480 0
DWIDTH 16 0
BBX 13 26 1 0
BITMAP
1860
18C0
0DC0
0F80
0780
0300
0000
0000
7FF8
7FF8
0038
0078
0070
00E0
01C0
03C0
0380
0700
0E00
1C00
3C00
3800
7000
E000
FFF8
FFF8
ENDCHAR
STARTCHAR 017F
ENCODING 383
SWIDTH 300 0
DWIDTH 10 0
BBX 10 25 1 0
BITMAP
07C0
1FC0
1E00
3800
3800
3800
3800
F800
F800
3800
3800
3800
3800
3800
3800
3800
3800
3800
3800
3800
3800
3800
3800
3800
3800
ENDCHAR
STARTCHAR 0180
ENCODING 384
SWIDTH 570 0
DWIDTH 19 0
BBX 17 25 0 0
BITMAP
180000
180000
FFC000
FFC000
180000
180000
180000
19FC00
1BFE00
1F0F00
1E0700
1C0380
1C0380
1C0380
180380
180380
180380
180380
1C0380
1C0380
1C0380
1E0700
1F0F00
1BFE00
19FC00
ENDCHAR
STARTCHAR 0181
ENCODING 385
SWIDTH 660 0
DWIDTH 22 0
BBX 22 24 -2 0
BITMAP
1FFF80
3FFFE0
7FFFF0
638070
638038
E38038
E38038
038038
038070
0380F0
03FFE0
03FFC0
03FFF0
038078
038038
03803C
03801C
03801C
03803C
038038
038078
03FFF0
03FFE0
03FFC0
ENDCHAR
STARTCHAR 0182
ENCODING 386
SWIDTH 600 0
DWIDTH 20 0
BBX 15 24 3 0
BITMAP
FFFC
FFFC
FFFC
E000
E000
E000
E000
E000
E000
E000
FFF0
FFF8
FFFC
E01E
E00E
E00E
E00E
E00E
E00E
E00E
E01E
FFFC
FFF8
FFE0
ENDCHAR
STARTCHAR 0183
ENCODING 387
SWIDTH 570 0
DWIDTH 19 0
BBX 14 25 3 0
BITMAP
FFF0
FFF0
FFF0
C000
C000
C000
C000
CFE0
DFF0
F878
F038
E01C
E01C
E01C
C01C
C01C
C01C
C01C
E01C
E01C
E01C
F038
F878
DFF0
CFE0
ENDCHAR
STARTCHAR 0184
ENCODING 388
SWIDTH 600 0
DWIDTH 20 0
BBX 18 24 0 0
BITMAP
0C0000
1C0000
1C0000
3C0000
7C0000
7C0000
9C0000
1C0000
1C0000
1C0000
1FFE00
1FFF00
1FFF80
1C03C0
1C01C0
1C01C0
1C01C0
1C01C0
1C01C0
1C01C0
1C03C0
1FFF80
1FFF00
1FFC00
ENDCHAR
STARTCHAR 0185
ENCODING 389
SWIDTH 570 0
DWIDTH 19 0
BBX 17 25 0 0
BITMAP
080000
180000
180000
380000
380000
780000
780000
99FC00
1BFE00
1F0F00
1E0700
1C0380
1C0380
1C0380
180380
180380
180380
180380
1C0380
1C0380
1C0380
1E0700
1F0F00
1BFE00
19FC00
ENDCHAR
STARTCHAR 0186
ENCODING 390
SWIDTH 630 0
DWIDTH 21 0
BBX 17 24 2 1
BITMAP
3FE000
FFF800
F07C00
C01E00
800E00
000700
000700
000780
000380
000380
000380
000380
000380
000380
000380
000380
000780
000700
000700
800E00
C01E00
F07C00
FFF800
3FE000
ENDCHAR
STARTCHAR 0187
ENCODING 391
SWIDTH 630 0
DWIDTH 21 0
BBX 22 30 2 0
BITMAP
00007C
0000FC
0001E0
0001C0
000380
000380
03FF80
0FFF80
1F0780
3C0180
780080
700000
F00000
E00000
E00000
E00000
E00000
E00000
E00000
E00000
E00000
E00000
E00000
F00000
700000
780080
3C0180
1F0780
0FFF80
03FE00
ENDCHAR
STARTCHAR 0188
ENCODING 392
SWIDTH 480 0
DWIDTH 16 0
BBX 16 25 2 0
BITMAP
000F
001F
003E
0038
0038
0038
0030
0FF0
3FF0
7C10
7000
E000
E000
E000
E000
C000
C000
E000
E000
E000
E000
7000
7C30
3FF0
0FF0
ENDCHAR
STARTCHAR 0189
ENCODING 393
SWIDTH 690 0
DWIDTH 23 0
BBX 21 24 0 0
BITMAP
1FFC00
1FFF80
1FFFC0
1C03E0
1C00F0
1C0070
1C0070
1C0038
1C0038
1C0038
FFE038
FFE038
FFE038
1C0038
1C0038
1C0038
1C0038
1C0070
1C0070
1C00F0
1C03E0
1FFFC0
1FFF00
1FFC00
ENDCHAR
STARTCHAR 018A
ENCODING 394
SWIDTH 720 0
DWIDTH 24 0
BBX 25 24 -2 0
BITMAP
1FFF8000
3FFFF000
7FFFF800
63807C00
63801E00
E3800E00
E3800F00
03800700
03800700
03800700
03800780
03800780
03800780
03800780
03800700
03800700
03800700
03800F00
03800E00
03801E00
03807C00
03FFF800
03FFF000
03FF8000
ENDCHAR
STARTCHAR 018B
ENCODING 395
SWIDTH 600 0
DWIDTH 20 0
BBX 15 24 3 0
BITMAP
1FFE
1FFE
1FFE
000E
000E
000E
000E
000E
000E
000E
0FFE
3FFE
7FFE
700E
F00E
E00E
E00E
E00E
E00E
F00E
780E
7FFE
3FFE
0FFE
ENDCHAR
STARTCHAR 018C
ENCODING 396
SWIDTH 570 0
DWIDTH 19 0
BBX 14 25 2 0
BITMAP
3FFC
3FFC
3FFC
001C
001C
001C
001C
1FDC
3FFC
787C
703C
E01C
E01C
E01C
C01C
C01C
C01C
C01C
E01C
E01C
E01C
703C
787C
3FFC
1FDC
ENDCHAR
STARTCHAR 018D
ENCODING 397
SWIDTH 540 0
DWIDTH 18 0
BBX 15 25 2 -7
BITMAP
0FC0
1FF0
3FF8
7038
F01C
E01C
E01C
E00C
E00E
C00E
E00C
E00C
E01C
E01C
7038
7C30
3FE0
0FF0
01F0
0038
0038
0038
3FF8
3FF0
1FC0
ENDCHAR
STARTCHAR 018E
ENCODING 398
SWIDTH 570 0
DWIDTH 19 0
BBX 14 24 2 0
BITMAP
FFFC
FFFC
FFFC
001C
001C
001C
001C
001C
001C
001C
7FFC
7FFC
7FFC
001C
001C
001C
001C
001C
001C
001C
001C
FFFC
FFFC
FFFC
ENDCHAR
STARTCHAR 018F
ENCODING 399
SWIDTH 690 0
DWIDTH 23 0
BBX 20 24 2 1
BITMAP
0FFC00
3FFE00
7C1F80
700780
4003C0
0001E0
0000E0
0000E0
0000E0
000070
000070
FFFFF0
FFFFF0
FFFFF0
E000F0
E000E0
E000E0
7000E0
7001E0
7801C0
3C0380
1F0F80
0FFF00
07FC00
ENDCHAR
STARTCHAR 0190
ENCODING 400
SWIDTH 540 0
DWIDTH 18 0
BBX 15 24 2 1
BITMAP
0FFC
3FFC
3C1C
7800
7000
7000
7000
7000
3800
3C00
0FE0
0FE0
3F00
7800
7000
6000
E000
E000
E000
7000
7802
3E1E
1FFE
0FFC
ENDCHAR
STARTCHAR 0191
ENCODING 401
SWIDTH 510 0
DWIDTH 17 0
BBX 17 31 -2 -7
BITMAP
07FF80
07FF80
07FF80
070000
070000
070000
070000
070000
070000
070000
07FF00
07FF00
07FF00
070000
070000
070000
070000
070000
070000
070000
070000
070000
070000
070000
070000
070000
0E0000
1E0000
FC0000
FC0000
E00000
ENDCHAR
STARTCHAR 0192
ENCODING 402
SWIDTH 300 0
DWIDTH 10 0
BBX 13 32 -2 -7
BITMAP
00F8
03F8
03C0
0700
0700
0700
0700
1FF0
1FF0
0700
0700
0700
0700
0700
0700
0700
0700
0700
0700
0700
0700
0700
0700
0700
0700
0700
0700
0700
0700
FE00
FE00
F800
ENDCHAR
STARTCHAR 0193
ENCODING 403
SWIDTH 690 0
DWIDTH 23 0
BBX 22 30 2 0
BITMAP
00003C
00007C
0000F0
0000E0
0001C0
0001C0
03FFC0
0FFFC0
1F07C0
3C00C0
780040
700000
F00000
E00000
E00000
E00000
E00000
E01FE0
E01FE0
E01FE0
E000E0
E000E0
E000E0
F000E0
7000E0
7800E0
3C00E0
1F07E0
0FFFC0
03FF00
ENDCHAR
STARTCHAR 0194
ENCODING 404
SWIDTH 600 0
DWIDTH 20 0
BBX 20 31 0 -7
BITMAP
F00070
7000F0
7800E0
3801E0
3C01C0
1C03C0
1E0380
0E0780
0F0700
070F00
078E00
039E00
03DC00
01FC00
01F800
00F800
00F000
00F000
00F000
00F800
01F800
01DC00
039C00
039C00
038E00
070E00
070E00
038E00
03FE00
03FC00
00F000
ENDCHAR
STARTCHAR 0195
ENCODING 405
SWIDTH 870 0
DWIDTH 29 0
BBX 24 25 3 0
BITMAP
C00000
C00000
C00000
C00000
C00000
C00000
C00000
CFE030
DFF038
D8703C
F0380E
E0380E
E03807
C01807
C01807
C01807
C01807
C01807
C01807
C01807
C0180E
C01C1E
C01FFC
C00FF8
C007E0
ENDCHAR
STARTCHAR 0196
ENCODING 406
SWIDTH 300 0
DWIDTH 10 0
BBX 7 24 3 0
BITMAP
E0
E0
E0
E0
E0
E0
E0
E0
E0
E0
E0
E0
E0
E0
E0
E0
E0
E0
E0
E0
70
7E
3E
1E
ENDCHAR
STARTCHAR 0197
ENCODING 407
SWIDTH 270 0
DWIDTH 9 0
BBX 9 24 0 0
BITMAP
1C00
1C00
1C00
1C00
1C00
1C00
1C00
1C00
1C00
1C00
1C00
1C00
FF80
FF80
FF80
1C00
1C00
1C00
1C00
1C00
1C00
1C00
1C00
1C00
ENDCHAR
STARTCHAR 0198
ENCODING 408
SWIDTH 660 0
DWIDTH 22 0
BBX 19 24 3 1
BITMAP
E00F80
E01FC0
E03CE0
E078E0
E0F060
E1E060
E3C000
E78000
EF0000
FE0000
FC0000
FC0000
FE0000
EF0000
E78000
E38000
E1C000
E1E000
E0F000
E07800
E03C00
E01E00
E00F00
E00780
ENDCHAR
STARTCHAR 0199
ENCODING 409
SWIDTH 510 0
DWIDTH 17 0
BBX 14 25 3 0
BITMAP
3E00
7E00
F800
E000
E000
C000
C000
C038
C070
C0E0
C1C0
C380
C700
CE00
DC00
F800
DC00
CE00
C700
C780
C3C0
C1E0
C0F0
C078
C03C
ENDCHAR
STARTCHAR 019A
ENCODING 410
SWIDTH 240 0
DWIDTH 8 0
BBX 8 25 0 0
BITMAP
18
18
18
18
18
18
18
18
18
18
18
FF
FF
FF
18
18
18
18
18
18
18
18
18
18
18
ENDCHAR
STARTCHAR 019B
ENCODING 411
SWIDTH 540 0
DWIDTH 18 0
BBX 16 25 1 0
BITMAP
0608
0738
07F0
0F80
3F80
7380
0180
01C0
01C0
03C0
03E0
07E0
0760
0770
0E70
0E38
1C38
1C38
181C
381C
381C
700E
700E
E00E
E007
ENDCHAR
STARTCHAR 019C
ENCODING 412
SWIDTH 870 0
DWIDTH 29 0
BBX 24 24 3 0
BITMAP
E03807
E03807
E03807
E03807
E03807
E03807
E03807
E03807
E03807
E03807
E03807
E03807
E03807
E03807
E03807
E03807
E03807
E0380F
E0380F
E0780F
E07C1F
F1DE37
7F9FF7
3F0FE7
ENDCHAR
STARTCHAR 019D
ENCODING 413
SWIDTH 660 0
DWIDTH 22 0
BBX 21 31 -2 -7
BITMAP
078038
07C038
07C038
07E038
07E038
077038
077038
073038
073838
073838
071C38
071C38
070E38
070E38
070738
070738
0703B8
0703B8
0701F8
0701F8
0700F8
0700F8
070078
070078
070000
070000
0E0000
1E0000
FC0000
F80000
E00000
ENDCHAR
STARTCHAR 019E
ENCODING 414
SWIDTH 570 0
DWIDTH 19 0
BBX 13 25 3 -7
BITMAP
CFE0
DFF0
D870
F038
E038
E038
C018
C018
C018
C018
C018
C018
C018
C018
C018
C018
C018
C018
0018
0018
0018
0018
0018
0018
0018
ENDCHAR
STARTCHAR 019F
ENCODING 415
SWIDTH 690 0
DWIDTH 23 0
BBX 20 24 2 1
BITMAP
07FC00
0FFF00
1F0F80
3C0380
7801C0
7001E0
F000E0
E000E0
E000E0
E000F0
FFFFF0
FFFFF0
FFFFF0
E00070
E000F0
E000E0
E000E0
F000E0
7001E0
7801C0
3C0380
1F0F80
0FFF00
07FC00
ENDCHAR
STARTCHAR 01A0
ENCODING 416
SWIDTH 810 0
DWIDTH 27 0
BBX 22 25 1 0
BITMAP
00000C
03FE0C
07FF0C
0F07DC
1E03F8
3C01F8
3800E0
7800F0
700070
700070
700070
700070
F00078
F00078
700070
700070
700070
700070
7800F0
3800E0
3C01E0
1E03C0
0F8780
07FF00
03FE00
ENDCHAR
STARTCHAR 01A1
ENCODING 417
SWIDTH 540 0
DWIDTH 18 0
BBX 16 20 2 0
BITMAP
0003
0003
1FE3
3FF7
787F
703E
E01C
E01C
E00C
E00E
E00E
E00E
E00E
E00C
E01C
E01C
703C
7878
3FF0
1FE0
ENDCHAR
STARTCHAR 01A2
ENCODING 418
SWIDTH 840 0
DWIDTH 28 0
BBX 23 24 2 1
BITMAP
07FFF0
0FFFF8
1F0FFC
3C039E
78038E
70038E
F0038E
E0038E
E0038E
E0038E
E0038E
E0038E
E0038E
E0038E
E0038E
E0038E
E0038E
F0038E
70038E
78038E
3C038E
1F0F8E
0FFF0E
07FC0E
ENDCHAR
STARTCHAR 01A3
ENCODING 419
SWIDTH 690 0
DWIDTH 23 0
BBX 18 25 2 -7
BITMAP
1FFE00
3FFF80
787F80
7039C0
E039C0
E039C0
E039C0
E039C0
C039C0
C039C0
E039C0
E039C0
E039C0
E039C0
7039C0
7879C0
3FF1C0
1FE1C0
0001C0
0001C0
0001C0
0001C0
0001C0
0001C0
0001C0
ENDCHAR
STARTCHAR 01A4
ENCODING 420
SWIDTH 570 0
DWIDTH 19 0
BBX 20 24 -2 0
BITMAP
1FFF00
3FFFC0
7FFFE0
6380F0
638070
E38070
E38070
038070
038070
038070
0380F0
0383E0
03FFE0
03FF80
038000
038000
038000
038000
038000
038000
038000
038000
038000
038000
ENDCHAR
STARTCHAR 01A5
ENCODING 421
SWIDTH 570 0
DWIDTH 19 0
BBX 14 32 3 -7
BITMAP
3F00
7F00
F800
E000
E000
C000
C000
CFE0
DFF0
F878
F038
E01C
E01C
E01C
C01C
C01C
C01C
C01C
E01C
E01C
E01C
F038
F878
DFF0
CFE0
C000
C000
C000
C000
C000
C000
C000
ENDCHAR
STARTCHAR 01A6
ENCODING 422
SWIDTH 630 0
DWIDTH 21 0
BBX 16 28 3 -4
BITMAP
E000
E000
E000
E000
FF80
FFF0
FFF8
E078
E03C
E01C
E01C
E01C
E01C
E03C
E038
E070
FFE0
FFE0
E0F0
E078
E038
E01C
E01C
E01E
000E
000F
0007
0007
ENDCHAR
STARTCHAR 01A7
ENCODING 423
SWIDTH 570 0
DWIDTH 19 0
BBX 15 24 2 1
BITMAP
3FF0
7FF8
787C
401C
000E
000E
000E
000E
001E
007C
07FC
1FF0
7FC0
7C00
F000
E000
E000
E000
E000
E000
F006
7C3E
3FFE
1FF8
ENDCHAR
STARTCHAR 01A8
ENCODING 424
SWIDTH 450 0
DWIDTH 15 0
BBX 13 18 1 0
BITMAP
7FE0
7FF0
6070
0038
0038
0038
0078
03F0
1FE0
3F80
7C00
7000
E000
E000
7008
7838
3FF8
1FF0
ENDCHAR
STARTCHAR 01A9
ENCODING 425
SWIDTH 570 0
DWIDTH 19 0
BBX 14 24 3 0
BITMAP
FFFC
FFFC
FFFC
7000
7800
3C00
1C00
0E00
0700
0780
03C0
01C0
0380
0780
0700
0E00
1E00
1C00
3800
7800
F000
FFFC
FFFC
FFFC
ENDCHAR
STARTCHAR 01AA
ENCODING 426
SWIDTH 300 0
DWIDTH 10 0
BBX 15 32 -4 -7
BITMAP
3E00
7F00
F780
C380
FFF0
7FF0
3FF0
0180
0180
0180
0180
0180
0180
0180
0180
0180
0180
0180
0180
0180
0180
0180
0180
0180
0180
0180
0180
01C0
01C0
01FE
00FE
003E
ENDCHAR
STARTCHAR 01AB
ENCODING 427
SWIDTH 360 0
DWIDTH 12 0
BBX 10 30 1 -7
BITMAP
3000
3000
3000
3000
3000
FFC0
FFC0
3000
3000
3000
3000
3000
3000
3000
3000
3000
3000
3000
3800
3800
3E00
1FC0
0FC0
01C0
01C0
01C0
01C0
0F80
0F80
0E00
ENDCHAR
STARTCHAR 01AC
ENCODING 428
SWIDTH 540 0
DWIDTH 18 0
BBX 18 24 0 0
BITMAP
1FFFC0
7FFFC0
7FFFC0
60E000
E0E000
E0E000
E0E000
00E000
00E000
00E000
00E000
00E000
00E000
00E000
00E000
00E000
00E000
00E000
00E000
00E000
00E000
00E000
00E000
00E000
ENDCHAR
STARTCHAR 01AD
ENCODING 429
SWIDTH 360 0
DWIDTH 12 0
BBX 10 25 1 0
BITMAP
0FC0
1FC0
3C00
3800
3800
3000
3000
FFC0
FFC0
3000
3000
3000
3000
3000
3000
3000
3000
3000
3000
3000
3800
3800
3E00
1FC0
0FC0
ENDCHAR
STARTCHAR 01AE
ENCODING 430
SWIDTH 540 0
DWIDTH 18 0
BBX 18 31 0 -7
BITMAP
FFFFC0
FFFFC0
FFFFC0
00E000
00E000
00E000
00E000
00E000
00E000
00E000
00E000
00E000
00E000
00E000
00E000
00E000
00E000
00E000
00E000
00E000
00E000
00E000
00E000
00E000
00E000
00E000
00E000
00F000
007E00
003E00
000600
ENDCHAR
STARTCHAR 01AF
ENCODING 431
SWIDTH 750 0
DWIDTH 25 0
BBX 21 25 3 0
BITMAP
000010
C00718
C00718
C007B8
C007F0
C00760
C00700
C00700
C00700
C00700
C00700
C00700
C00700
C00700
C00700
C00700
C00700
E00700
E00700
E00700
E00E00
700E00
7C3C00
3FFC00
1FF000
ENDCHAR
STARTCHAR 01B0
ENCODING 432
SWIDTH 570 0
DWIDTH 19 0
BBX 17 20 3 0
BITMAP
000180
000180
C03980
C03B80
C03F80
C03F00
C03800
C03800
C03800
C03800
C03800
C03800
C03800
C03800
C03800
E03800
E07800
F0F800
7FF800
3F3800
ENDCHAR
STARTCHAR 01B1
ENCODING 433
SWIDTH 690 0
DWIDTH 23 0
BBX 21 24 1 0
BITMAP
FF8FF8
FF8FF8
FF8FF8
0F0700
1E0380
1C01C0
3801E0
7800E0
7000F0
700070
700070
E00070
E00070
E00070
E00070
700070
700070
7000F0
7800E0
3801E0
3C03C0
1F8F80
0FFF00
03FE00
ENDCHAR
STARTCHAR 01B2
ENCODING 434
SWIDTH 630 0
DWIDTH 21 0
BBX 17 24 3 -1
BITMAP
E00000
E00000
E00000
E03800
E01C00
E00E00
E00F00
E00700
E00780
E00380
E00380
E00380
E00380
E00380
E00380
E00380
E00380
E00780
E00700
E00F00
F01E00
787C00
7FF800
3FF000
ENDCHAR
STARTCHAR 01B3
ENCODING 435
SWIDTH 660 0
DWIDTH 22 0
BBX 22 24 0 1
BITMAP
E001F0
7003F8
38079C
38071C
1C0E0C
1C0E0C
0E1C00
073C00
073800
03F000
03F000
01E000
00E000
00E000
00E000
00E000
00E000
00E000
00E000
00E000
00E000
00E000
00E000
00E000
ENDCHAR
STARTCHAR 01B4
ENCODING 436
SWIDTH 660 0
DWIDTH 22 0
BBX 21 25 1 -7
BITMAP
E007E0
E007F0
700FF0
700C38
301C38
381C38
383838
183800
1C3800
1C7000
0E7000
0E7000
06E000
07E000
07C000
03C000
03C000
038000
038000
038000
070000
070000
7E0000
7E0000
780000
ENDCHAR
STARTCHAR 01B5
ENCODING 437
SWIDTH 600 0
DWIDTH 20 0
BBX 18 24 1 0
BITMAP
7FFFC0
7FFFC0
7FFFC0
000780
000700
000E00
001E00
001C00
003800
007800
3FFF00
3FFF00
3FFF00
03C000
078000
070000
0E0000
1E0000
1C0000
380000
780000
FFFFC0
FFFFC0
FFFFC0
ENDCHAR
STARTCHAR 01B6
ENCODING 438
SWIDTH 480 0
DWIDTH 16 0
BBX 13 18 1 0
BITMAP
7FF8
7FF8
0038
0078
0070
00E0
01C0
3FF0
3FF0
3FF0
0E00
1C00
3C00
3800
7000
E000
FFF8
FFF8
ENDCHAR
STARTCHAR 01B7
ENCODING 439
SWIDTH 600 0
DWIDTH 20 0
BBX 16 25 2 -1
BITMAP
FFFE
FFFE
FFFE
001C
003C
0038
0070
00E0
01E0
01C0
03E0
03F8
03FC
001E
000F
0007
0007
0003
0007
0007
0007
601E
7FFE
7FFC
1FF0
ENDCHAR
STARTCHAR 01B8
ENCODING 440
SWIDTH 600 0
DWIDTH 20 0
BBX 16 25 1 -1
BITMAP
3FFF
3FFF
3FFF
3C00
1E00
0E00
0700
0780
0380
01C0
03E0
0FE0
3FE0
3C00
7000
7000
E000
E000
E000
7000
7000
7803
3FFF
1FFF
07F8
ENDCHAR
STARTCHAR 01B9
ENCODING 441
SWIDTH 510 0
DWIDTH 17 0
BBX 14 25 2 -7
BITMAP
7FF8
7FF8
7000
7800
3800
1C00
0E00
0700
0780
0380
03C0
1FC0
3FC0
7800
E000
E000
E000
C000
C000
E000
E000
F00C
7FFC
3FFC
0FF0
ENDCHAR
STARTCHAR 01BA
ENCODING 442
SWIDTH 480 0
DWIDTH 16 0
BBX 12 25 2 -7
BITMAP
FFF0
FFF0
0070
00F0
00E0
01C0
0380
0780
0700
0F80
1FF0
01F0
0030
0030
0070
03F0
1FE0
7F80
F000
E000
E000
E010
FFF0
7FF0
0FC0
ENDCHAR
STARTCHAR 01BB
ENCODING 443
SWIDTH 570 0
DWIDTH 19 0
BBX 14 24 2 1
BITMAP
3FE0
FFF0
F8F8
C038
003C
001C
001C
001C
003C
0038
0078
0070
7FF8
7FF8
03C0
0780
0F00
1E00
1C00
3800
7000
FFFC
FFFC
FFFC
ENDCHAR
STARTCHAR 01BC
ENCODING 444
SWIDTH 600 0
DWIDTH 20 0
BBX 17 25 1 -1
BITMAP
3FFE00
3FFE00
3FFE00
380000
380000
380000
380000
380000
380000
380000
3FF000
3FFC00
3FFE00
000F00
000780
000380
000380
000180
E00380
700380
700380
780780
3FFF00
1FFE00
07F800
ENDCHAR
STARTCHAR 01BD
ENCODING 445
SWIDTH 510 0
DWIDTH 17 0
BBX 14 25 2 -7
BITMAP
7FF0
7FF0
7FF0
6000
6000
6000
6000
6000
6000
6000
7F00
7FC0
7FF0
00F0
0038
0038
001C
001C
001C
001C
0038
8078
FFF0
FFE0
3F80
ENDCHAR
STARTCHAR 01BE
ENCODING 446
SWIDTH 450 0
DWIDTH 15 0
BBX 13 23 1 0
BITMAP
0E00
0E00
0E00
0E00
7FC0
7FC0
7FC0
0E00
0E00
0F80
0FC0
03E0
00F0
0070
0030
0038
0038
0030
0070
0070
C1E0
FFC0
7F80
ENDCHAR
STARTCHAR 01BF
ENCODING 447
SWIDTH 570 0
DWIDTH 19 0
BBX 14 25 3 -7
BITMAP
C7F0
DFF8
DE7C
F81C
F01C
E01C
C01C
C01C
C01C
C038
C038
C070
C0E0
C1C0
C380
CF00
DE00
FC00
F800
E000
C000
C000
C000
C000
C000
ENDCHAR
STARTCHAR 01C0
ENCODING 448
SWIDTH 270 0
DWIDTH 9 0
BBX 3 31 3 -7
BITMAP
E0
E0
E0
E0
E0
E0
E0
E0
E0
E0
E0
E0
E0
E0
E0
E0
E0
E0
E0
E0
E0
E0
E0
E0
E0
E0
E0
E0
E0
E0
E0
ENDCHAR
STARTCHAR 01C1
ENCODING 449
SWIDTH 450 0
DWIDTH 15 0
BBX 9 31 3 -7
BITMAP
E380
E380
E380
E380
E380
E380
E380
E380
E380
E380
E380
E380
E380
E380
E380
E380
E380
E380
E380
E380
E380
E380
E380
E380
E380
E380
E380
E380
E380
E380
E380
ENDCHAR
STARTCHAR 01C2
ENCODING 450
SWIDTH 420 0
DWIDTH 14 0
BBX 13 31 0 -7
BITMAP
0700
0700
0700
0700
0700
0700
0700
0700
0700
0700
FFF8
FFF8
FFF8
0700
0700
0700
FFF8
FFF8
FFF8
0700
0700
0700
0700
0700
0700
0700
0700
0700
0700
0700
0700
ENDCHAR
STARTCHAR 01C3
ENCODING 451
SWIDTH 270 0
DWIDTH 9 0
BBX 3 24 3 0
BITMAP
E0
E0
E0
E0
E0
E0
E0
E0
E0
E0
E0
E0
E0
E0
E0
E0
00
00
00
00
E0
E0
E0
E0
ENDCHAR
STARTCHAR 01C4
ENCODING 452
SWIDTH 1260 0
DWIDTH 42 0
BBX 37 31 3 0
BITMAP
000000C180
0000006300
0000007600
0000003E00
0000001C00
0000000000
0000000000
FFE00FFFF8
FFF80FFFF8
FFFE0FFFF8
E01F000070
E0070000E0
E0078001E0
E0038003C0
E003C00380
E001C00700
E001C00F00
E001C01E00
E001C01C00
E001C03800
E001C07800
E001C07000
E001C0E000
E003C1E000
E00383C000
E007838000
E00F070000
E01F0F0000
FFFE1FFFF8
FFF81FFFF8
FFC01FFFF8
ENDCHAR
STARTCHAR 01C5
ENCODING 453
SWIDTH 1170 0
DWIDTH 39 0
BBX 33 26 3 0
BITMAP
0000030E00
0000018C00
FFE000D800
FFF800F800
FFFE007000
E01F007000
E007000000
E007800000
E0038FFF80
E003CFFF80
E001C00380
E001C00700
E001C00F00
E001C00E00
E001C01C00
E001C03800
E001C07000
E001C0F000
E003C0E000
E00381C000
E007838000
E00F078000
E01F070000
FFFE0E0000
FFF80FFF80
FFC00FFF80
ENDCHAR
STARTCHAR 01C6
ENCODING 454
SWIDTH 1020 0
DWIDTH 34 0
BBX 30 26 2 0
BITMAP
00001860
001C0C60
001C0EC0
001C07C0
001C0380
001C0300
001C0000
001C0000
1FDC7FFC
3FFC7FFC
787C001C
703C0038
E01C0070
E01C00F0
E01C00E0
C01C01C0
C01C0380
C01C0780
C01C0F00
E01C0E00
E01C1C00
E01C3800
703C7800
787C7000
3FFC7FFC
1FDC7FFC
ENDCHAR
STARTCHAR 01C7
ENCODING 455
SWIDTH 750 0
DWIDTH 25 0
BBX 20 31 3 -7
BITMAP
E00070
E00070
E00070
E00070
E00070
E00070
E00070
E00070
E00070
E00070
E00070
E00070
E00070
E00070
E00070
E00070
E00070
E00070
E00070
E00070
E00070
FFF870
FFF870
FFF870
000070
000070
0000E0
0001E0
000FC0
000F80
000E00
ENDCHAR
STARTCHAR 01C8
ENCODING 456
SWIDTH 690 0
DWIDTH 23 0
BBX 19 32 3 -7
BITMAP
0000E0
E000E0
E000E0
E000E0
E00000
E00000
E00000
E000E0
E000E0
E000E0
E000E0
E000E0
E000E0
E000E0
E000E0
E000E0
E000E0
E000E0
E000E0
E000E0
E000E0
E000E0
FFF8E0
FFF8E0
FFF8E0
0000E0
0000E0
0000E0
0000C0
0007C0
000780
000700
ENDCHAR
STARTCHAR 01C9
ENCODING 457
SWIDTH 420 0
DWIDTH 14 0
BBX 8 32 3 -7
BITMAP
C7
C7
C7
C7
C0
C0
C0
C7
C7
C7
C7
C7
C7
C7
C7
C7
C7
C7
C7
C7
C7
C7
C7
C7
C7
07
07
07
07
3E
3E
38
ENDCHAR
STARTCHAR 01CA
ENCODING 458
SWIDTH 840 0
DWIDTH 28 0
BBX 23 31 3 -7
BITMAP
F0070E
F8070E
F8070E
FC070E
FC070E
EE070E
EE070E
EE070E
E7070E
E7070E
E3870E
E3870E
E1C70E
E1C70E
E0E70E
E0E70E
E0770E
E0770E
E03F0E
E03F0E
E01F0E
E01F0E
E00F0E
E00F0E
00000E
00000E
00001C
00003C
0001F8
0001F0
0001C0
ENDCHAR
STARTCHAR 01CB
ENCODING 459
SWIDTH 810 0
DWIDTH 27 0
BBX 22 32 3 -7
BITMAP
00001C
F0071C
F8071C
F8071C
FC0700
FC0700
EE0700
EE071C
EE071C
E7071C
E7071C
E3871C
E3871C
E1C71C
E1C71C
E0E71C
E0E71C
E0771C
E0771C
E03F1C
E03F1C
E01F1C
E01F1C
E00F1C
E00F1C
00001C
00001C
00001C
00001C
0000F8
0000F8
0000E0
ENDCHAR
STARTCHAR 01CC
ENCODING 460
SWIDTH 720 0
DWIDTH 24 0
BBX 19 32 3 -7
BITMAP
0000E0
0000E0
0000E0
0000E0
000000
000000
000000
CFE0E0
DFF0E0
D870E0
F038E0
E038E0
E038E0
C018E0
C018E0
C018E0
C018E0
C018E0
C018E0
C018E0
C018E0
C018E0
C018E0
C018E0
C018E0
0000E0
0000E0
0000E0
0000C0
0007C0
000780
000700
ENDCHAR
STARTCHAR 01CD
ENCODING 461
SWIDTH 600 0
DWIDTH 20 0
BBX 20 31 0 0
BITMAP
030E00
018C00
01D800
00F000
007000
000000
000000
00F000
00F000
00F800
01F800
01D800
019C00
039C00
038C00
030E00
070E00
070600
0E0700
0E0700
0E0300
1C0380
1FFF80
1FFFC0
3FFFC0
3801C0
3800E0
7000E0
7000E0
700070
E00070
ENDCHAR
STARTCHAR 01CE
ENCODING 462
SWIDTH 540 0
DWIDTH 18 0
BBX 14 26 2 0
BITMAP
1860
18C0
0DC0
0F80
0780
0300
0000
0000
3FE0
7FF0
6070
0038
0018
0018
0018
1FF8
7FFC
F01C
E01C
E01C
C03C
E03C
E07C
F0FC
7FDC
3F9C
ENDCHAR
STARTCHAR 01CF
ENCODING 463
SWIDTH 270 0
DWIDTH 9 0
BBX 9 31 0 0
BITMAP
C180
6300
7600
3E00
1C00
0000
0000
1C00
1C00
1C00
1C00
1C00
1C00
1C00
1C00
1C00
1C00
1C00
1C00
1C00
1C00
1C00
1C00
1C00
1C00
1C00
1C00
1C00
1C00
1C00
1C00
ENDCHAR
STARTCHAR 01D0
ENCODING 464
SWIDTH 240 0
DWIDTH 8 0
BBX 8 26 0 0
BITMAP
C3
63
66
3E
3C
18
00
00
18
18
18
18
18
18
18
18
18
18
18
18
18
18
18
18
18
18
ENDCHAR
STARTCHAR 01D1
ENCODING 465
SWIDTH 690 0
DWIDTH 23 0
BBX 20 31 2 0
BITMAP
060C00
031800
01B800
00F000
00E000
000000
000000
07FC00
0FFF00
1F0F80
3C0380
7801C0
7001E0
F000E0
E000E0
E000E0
E000F0
E00070
E00070
E00070
E00070
E000F0
E000E0
E000E0
F000E0
7001E0
7801C0
3C0380
1F0F80
0FFF00
07FC00
ENDCHAR
STARTCHAR 01D2
ENCODING 466
SWIDTH 540 0
DWIDTH 18 0
BBX 15 26 2 0
BITMAP
1860
0CE0
0CC0
0780
0780
0300
0000
0000
1FE0
3FF0
7878
7038
E01C
E01C
E01C
E00C
C00E
C00E
E00C
E01C
E01C
E01C
7038
7878
3FF0
1FE0
ENDCHAR
STARTCHAR 01D3
ENCODING 467
SWIDTH 660 0
DWIDTH 22 0
BBX 16 31 3 0
BITMAP
0C30
0E70
0660
03C0
0180
0000
0000
E007
E007
E007
E007
E007
E007
E007
E007
E007
E007
E007
E007
E007
E007
E007
E007
E007
E007
E007
E00E
700E
7C3E
3FFC
1FF0
ENDCHAR
STARTCHAR 01D4
ENCODING 468
SWIDTH 570 0
DWIDTH 19 0
BBX 13 26 3 0
BITMAP
30C0
19C0
1980
0F00
0F00
0600
0000
0000
C038
C038
C038
C038
C038
C038
C038
C038
C038
C038
C038
C038
C038
E038
E078
F0F8
7FF8
3F38
ENDCHAR
STARTCHAR 01D5
ENCODING 469
SWIDTH 660 0
DWIDTH 22 0
BBX 16 34 3 0
BITMAP
0FF0
0FF0
0FF0
0000
0C70
0C70
0C70
0000
0000
0000
E007
E007
E007
E007
E007
E007
E007
E007
E007
E007
E007
E007
E007
E007
E007
E007
E007
E007
E007
E00E
700E
7C3E
3FFC
1FF0
ENDCHAR
STARTCHAR 01D6
ENCODING 470
SWIDTH 570 0
DWIDTH 19 0
BBX 13 30 3 0
BITMAP
3FE0
3FE0
3FE0
0000
0000
38E0
38E0
38E0
0000
0000
0000
0000
C038
C038
C038
C038
C038
C038
C038
C038
C038
C038
C038
C038
C038
E038
E078
F0F8
7FF8
3F38
ENDCHAR
STARTCHAR 01D7
ENCODING 471
SWIDTH 660 0
DWIDTH 22 0
BBX 16 35 3 0
BITMAP
0070
0060
00E0
01C0
0180
0E70
0E70
0E70
0000
0000
0000
E007
E007
E007
E007
E007
E007
E007
E007
E007
E007
E007
E007
E007
E007
E007
E007
E007
E007
E007
E00E
700E
7C3E
3FFC
1FF0
ENDCHAR
STARTCHAR 01D8
ENCODING 472
SWIDTH 570 0
DWIDTH 19 0
BBX 13 30 3 0
BITMAP
00C0
01C0
0380
0300
0600
38E0
38E0
38E0
0000
0000
0000
0000
C038
C038
C038
C038
C038
C038
C038
C038
C038
C038
C038
C038
C038
E038
E078
F0F8
7FF8
3F38
ENDCHAR
STARTCHAR 01D9
ENCODING 473
SWIDTH 660 0
DWIDTH 22 0
BBX 16 35 3 0
BITMAP
1C30
0C60
06E0
03C0
0380
0C70
0C70
0C70
0000
0000
0000
E007
E007
E007
E007
E007
E007
E007
E007
E007
E007
E007
E007
E007
E007
E007
E007
E007
E007
E007
E00E
700E
7C3E
3FFC
1FF0
ENDCHAR
STARTCHAR 01DA
ENCODING 474
SWIDTH 570 0
DWIDTH 19 0
BBX 13 30 3 0
BITMAP
3060
18C0
1D80
0F00
0700
38E0
38E0
38E0
0000
0000
0000
0000
C038
C038
C038
C038
C038
C038
C038
C038
C038
C038
C038
C038
C038
E038
E078
F0F8
7FF8
3F38
ENDCHAR
STARTCHAR 01DB
ENCODING 475
SWIDTH 660 0
DWIDTH 22 0
BBX 16 35 3 0
BITMAP
0C00
0E00
0700
0300
0180
0C70
0C70
0C70
0000
0000
0000
E007
E007
E007
E007
E007
E007
E007
E007
E007
E007
E007
E007
E007
E007
E007
E007
E007
E007
E007
E00E
700E
7C3E
3FFC
1FF0
ENDCHAR
STARTCHAR 01DC
ENCODING 476
SWIDTH 570 0
DWIDTH 19 0
BBX 13 30 3 0
BITMAP
3800
1800
0C00
0E00
0600
38E0
38E0
38E0
0000
0000
0000
0000
C038
C038
C038
C038
C038
C038
C038
C038
C038
C038
C038
C038
C038
E038
E078
F0F8
7FF8
3F38
ENDCHAR
STARTCHAR 01DD
ENCODING 477
SWIDTH 540 0
DWIDTH 18 0
BBX 15 18 2 0
BITMAP
7FE0
FFF0
E078
8038
001C
001C
000C
000E
FFFE
FFFE
FFFE
C00C
E01C
E01C
7038
7878
3FF0
1FE0
ENDCHAR
STARTCHAR 01DE
ENCODING 478
SWIDTH 600 0
DWIDTH 20 0
BBX 20 34 0 0
BITMAP
03FE00
03FE00
03FE00
000000
038C00
038C00
038C00
000000
000000
000000
00F000
00F000
00F800
01F800
01D800
019C00
039C00
038C00
030E00
070E00
070600
0E0700
0E0700
0E0300
1C0380
1FFF80
1FFFC0
3FFFC0
3801C0
3800E0
7000E0
7000E0
700070
E00070
ENDCHAR
STARTCHAR 01DF
ENCODING 479
SWIDTH 540 0
DWIDTH 18 0
BBX 14 30 2 0
BITMAP
3FE0
3FE0
3FE0
0000
0000
38E0
38E0
38E0
0000
0000
0000
0000
3FE0
7FF0
6070
0038
0018
0018
0018
1FF8
7FFC
F01C
E01C
E01C
C03C
E03C
E07C
F0FC
7FDC
3F9C
ENDCHAR
STARTCHAR 01E0
ENCODING 480
SWIDTH 600 0
DWIDTH 20 0
BBX 20 34 0 0
BITMAP
03FE00
03FE00
03FE00
000000
000000
007000
007000
007000
000000
000000
00F000
00F000
00F800
01F800
01D800
019C00
039C00
038C00
030E00
070E00
070600
0E0700
0E0700
0E0300
1C0380
1FFF80
1FFFC0
3FFFC0
3801C0
3800E0
7000E0
7000E0
700070
E00070
ENDCHAR
STARTCHAR 01E1
ENCODING 481
SWIDTH 540 0
DWIDTH 18 0
BBX 14 29 2 0
BITMAP
3FE0
3FE0
3FE0
0000
0000
0700
0700
0700
0000
0000
0000
3FE0
7FF0
6070
0038
0018
0018
0018
1FF8
7FFC
F01C
E01C
E01C
C03C
E03C
E07C
F0FC
7FDC
3F9C
ENDCHAR
STARTCHAR 01E2
ENCODING 482
SWIDTH 870 0
DWIDTH 29 0
BBX 27 30 0 0
BITMAP
0003FC00
0003FC00
0003FC00
00000000
00000000
00000000
007FFFE0
007FFFE0
00E7FFE0
00E70000
01C70000
01C70000
01C70000
03870000
03870000
03870000
0707FFC0
0707FFC0
0E07FFC0
0E070000
0E070000
1FFF0000
1FFF0000
1FFF0000
38070000
38070000
70070000
7007FFE0
7007FFE0
E007FFE0
ENDCHAR
STARTCHAR 01E3
ENCODING 483
SWIDTH 870 0
DWIDTH 29 0
BBX 26 25 2 0
BITMAP
00FF8000
00FF8000
00FF8000
00000000
00000000
00000000
00000000
3FC1FC00
7FF7FE00
607F0F00
003E0380
001C0380
001C0180
001C01C0
1FFFFFC0
7FFFFFC0
F01FFFC0
E0180000
E01C0000
C03C0000
E03C0000
E07E0000
F0EF8380
7FC7FF80
3F81FF00
ENDCHAR
STARTCHAR 01E4
ENCODING 484
SWIDTH 690 0
DWIDTH 23 0
BBX 20 24 2 1
BITMAP
03FF00
0FFFC0
1F07C0
3C00C0
780040
700000
F00000
E00000
E00000
E00000
E00000
E01FE0
E01FE0
E01FE0
E000E0
E000E0
E00FF0
F00FF0
7000E0
7800E0
3C00E0
1F07E0
0FFFC0
03FF00
ENDCHAR
STARTCHAR 01E5
ENCODING 485
SWIDTH 570 0
DWIDTH 19 0
BBX 16 25 2 -7
BITMAP
1FDC
3FFC
787C
703C
E01C
E01C
E01C
C01C
C01C
C01C
C01C
E01C
E01C
E03C
703C
7FFC
3FDC
0F9C
001C
3FFF
0038
0038
3FF0
3FE0
1F80
ENDCHAR
STARTCHAR 01E6
ENCODING 486
SWIDTH 690 0
DWIDTH 23 0
BBX 19 31 2 0
BITMAP
030600
018C00
01D800
00F000
007000
000000
000000
03FF00
0FFFC0
1F07C0
3C00C0
780040
700000
F00000
E00000
E00000
E00000
E00000
E01FE0
E01FE0
E01FE0
E000E0
E000E0
E000E0
F000E0
7000E0
7800E0
3C00E0
1F07E0
0FFFC0
03FF00
ENDCHAR
STARTCHAR 01E7
ENCODING 487
SWIDTH 570 0
DWIDTH 19 0
BBX 14 33 2 -7
BITMAP
3060
18C0
0D80
0D80
0700
0700
0000
0000
1FDC
3FFC
787C
703C
E01C
E01C
E01C
C01C
C01C
C01C
C01C
E01C
E01C
E03C
703C
7FFC
3FDC
0F9C
001C
001C
0038
0038
3FF0
3FE0
1F80
ENDCHAR
STARTCHAR 01E8
ENCODING 488
SWIDTH 570 0
DWIDTH 19 0
BBX 17 31 3 0
BITMAP
306000
18C000
0DC000
078000
070000
000000
000000
E00F00
E01E00
E03C00
E07800
E0F000
E1E000
E3C000
E78000
EF0000
FE0000
FC0000
FC0000
FE0000
EF0000
E78000
E38000
E1C000
E1E000
E0F000
E07800
E03C00
E01E00
E00F00
E00780
ENDCHAR
STARTCHAR 01E9
ENCODING 489
SWIDTH 510 0
DWIDTH 17 0
BBX 17 31 0 0
BITMAP
C30000
E30000
660000
3C0000
1C0000
000000
180000
180000
180000
180000
180000
180000
180000
180700
180E00
181C00
183800
187000
18E000
19C000
1B8000
1F0000
1B8000
19C000
18E000
18F000
187800
183C00
181E00
180F00
180780
ENDCHAR
STARTCHAR 01EA
ENCODING 490
SWIDTH 690 0
DWIDTH 23 0
BBX 20 30 2 -5
BITMAP
07FC00
0FFF00
1F0F80
3C0380
7801C0
7001E0
F000E0
E000E0
E000E0
E000F0
E00070
E00070
E00070
E00070
E000F0
E000E0
E000E0
F000E0
7001E0
7801C0
3C0380
1F0F80
0FFF00
07FC00
00C000
00C000
018000
018000
01F800
00F800
ENDCHAR
STARTCHAR 01EB
ENCODING 491
SWIDTH 540 0
DWIDTH 18 0
BBX 15 24 2 -6
BITMAP
1FE0
3FF0
7878
7038
E01C
E01C
E01C
E00C
C00E
C00E
E00C
E01C
E01C
E01C
7038
7878
3FF0
1FE0
0300
0600
0600
0600
07C0
07C0
ENDCHAR
STARTCHAR 01EC
ENCODING 492
SWIDTH 690 0
DWIDTH 23 0
BBX 20 36 2 -6
BITMAP
07FC00
07FC00
07FC00
000000
000000
000000
07FC00
0FFF00
1F0F80
3C0380
7801C0
7001E0
F000E0
E000E0
E000E0
E000F0
E00070
E00070
E00070
E00070
E000F0
E000E0
E000E0
F000E0
7001E0
7801C0
3C0380
1F0F80
0FFF00
07FC00
00C000
00C000
018000
018000
01F800
00F800
ENDCHAR
STARTCHAR 01ED
ENCODING 493
SWIDTH 540 0
DWIDTH 18 0
BBX 15 31 2 -6
BITMAP
1FE0
1FE0
1FE0
0000
0000
0000
0000
1FE0
3FF0
7878
7038
E01C
E01C
E01C
E00C
C00E
C00E
E00C
E01C
E01C
E01C
7038
7878
3FF0
1FE0
0300
0600
0600
0600
07C0
07C0
ENDCHAR
STARTCHAR 01EE
ENCODING 494
SWIDTH 600 0
DWIDTH 20 0
BBX 16 32 2 -1
BITMAP
0C38
0630
0760
03C0
01C0
0000
0000
FFFE
FFFE
FFFE
001C
003C
0038
0070
00E0
01E0
01C0
03E0
03F8
03FC
001E
000F
0007
0007
0003
0007
0007
0007
601E
7FFE
7FFC
1FF0
ENDCHAR
STARTCHAR 01EF
ENCODING 495
SWIDTH 510 0
DWIDTH 17 0
BBX 15 33 1 -7
BITMAP
1860
18C0
0DC0
0F80
0780
0300
0000
0000
7FF8
7FF8
0038
0078
0070
00E0
01C0
03C0
0780
0700
0F80
0FE0
0FF0
0078
001C
001C
000C
000E
000C
001C
001C
C03C
FFF8
FFF0
3FC0
ENDCHAR
STARTCHAR 01F0
ENCODING 496
SWIDTH 240 0
DWIDTH 8 0
BBX 9 33 -1 -7
BITMAP
6180
3180
3B00
1F00
0E00
0C00
0000
0000
0C00
0C00
0C00
0C00
0C00
0C00
0C00
0C00
0C00
0C00
0C00
0C00
0C00
0C00
0C00
0C00
0C00
0C00
0C00
0C00
0C00
1C00
FC00
F800
F000
ENDCHAR
STARTCHAR 01F1
ENCODING 497
SWIDTH 1260 0
DWIDTH 42 0
BBX 37 24 3 0
BITMAP
FFE00FFFF8
FFF80FFFF8
FFFE0FFFF8
E01F000070
E0070000E0
E0078001E0
E0038003C0
E003C00380
E001C00700
E001C00F00
E001C01E00
E001C01C00
E001C03800
E001C07800
E001C07000
E001C0E000
E003C1E000
E00383C000
E007838000
E00F070000
E01F0F0000
FFFE1FFFF8
FFF81FFFF8
FFC01FFFF8
ENDCHAR
STARTCHAR 01F2
ENCODING 498
SWIDTH 1170 0
DWIDTH 39 0
BBX 33 24 3 0
BITMAP
FFE0000000
FFF8000000
FFFE000000
E01F000000
E007000000
E007800000
E0038FFF80
E003CFFF80
E001C00380
E001C00700
E001C00F00
E001C00E00
E001C01C00
E001C03800
E001C07000
E001C0F000
E003C0E000
E00381C000
E007838000
E00F078000
E01F070000
FFFE0E0000
FFF80FFF80
FFC00FFF80
ENDCHAR
STARTCHAR 01F3
ENCODING 499
SWIDTH 1020 0
DWIDTH 34 0
BBX 30 25 2 0
BITMAP
001C0000
001C0000
001C0000
001C0000
001C0000
001C0000
001C0000
1FDC7FFC
3FFC7FFC
787C001C
703C0038
E01C0070
E01C00F0
E01C00E0
C01C01C0
C01C0380
C01C0780
C01C0F00
E01C0E00
E01C1C00
E01C3800
703C7800
787C7000
3FFC7FFC
1FDC7FFC
ENDCHAR
STARTCHAR 01F4
ENCODING 500
SWIDTH 690 0
DWIDTH 23 0
BBX 19 31 2 0
BITMAP
003800
003000
006000
00E000
00C000
000000
000000
03FF00
0FFFC0
1F07C0
3C00C0
780040
700000
F00000
E00000
E00000
E00000
E00000
E01FE0
E01FE0
E01FE0
E000E0
E000E0
E000E0
F000E0
7000E0
7800E0
3C00E0
1F07E0
0FFFC0
03FF00
ENDCHAR
STARTCHAR 01F5
ENCODING 501
SWIDTH 570 0
DWIDTH 19 0
BBX 14 33 2 -7
BITMAP
01C0
0180
0300
0700
0600
0C00
0000
0000
1FDC
3FFC
787C
703C
E01C
E01C
E01C
C01C
C01C
C01C
C01C
E01C
E01C
E03C
703C
7FFC
3FDC
0F9C
001C
001C
0038
0038
3FF0
3FE0
1F80
ENDCHAR
STARTCHAR 01F6
ENCODING 502
SWIDTH 990 0
DWIDTH 33 0
BBX 27 24 3 0
BITMAP
E0070000
E0070000
E0070000
E0070000
E0070000
E0070000
E00700E0
E00700E0
E00700E0
E00700E0
FFFF00E0
FFFF00E0
FFFF00E0
E00700E0
E00700E0
E00700E0
E00700E0
E00700E0
E00380E0
E00380E0
E00380E0
E003C3C0
E001FFC0
E000FF80
ENDCHAR
STARTCHAR 01F7
ENCODING 503
SWIDTH 600 0
DWIDTH 20 0
BBX 16 31 3 -6
BITMAP
E3FC
EFFC
FFFE
FC0E
F80E
F00F
E007
E006
E00E
E00E
E01C
E01C
E038
E070
E0F0
E1E0
E7C0
EF00
FE00
FC00
F000
E000
E000
E000
E000
E000
E000
E000
E000
E000
E000
ENDCHAR
STARTCHAR 01F8
ENCODING 504
SWIDTH 660 0
DWIDTH 22 0
BBX 16 31 3 0
BITMAP
0700
0300
0180
01C0
00C0
0000
0000
F007
F807
F807
FC07
FC07
EE07
EE07
EE07
E707
E707
E387
E387
E1C7
E1C7
E0E7
E0E7
E077
E077
E03F
E03F
E01F
E01F
E00F
E00F
ENDCHAR
STARTCHAR 01F9
ENCODING 505
SWIDTH 570 0
DWIDTH 19 0
BBX 13 26 3 0
BITMAP
0E00
0700
0300
0180
01C0
00C0
0000
0000
CFE0
DFF0
D870
F038
E038
E038
C018
C018
C018
C018
C018
C018
C018
C018
C018
C018
C018
C018
ENDCHAR
STARTCHAR 01FA
ENCODING 506
SWIDTH 600 0
DWIDTH 20 0
BBX 20 31 0 0
BITMAP
002070
01F8E0
019CC0
030D80
030F80
030C00
038C00
01F800
00F000
00F800
01F800
01D800
019C00
039C00
038C00
030E00
070E00
070600
0E0700
0E0700
0E0300
1C0380
1FFF80
1FFFC0
3FFFC0
3801C0
3800E0
7000E0
7000E0
700070
E00070
ENDCHAR
STARTCHAR 01FB
ENCODING 507
SWIDTH 540 0
DWIDTH 18 0
BBX 16 31 2 0
BITMAP
0007
0006
070C
0FDC
18D8
1840
1060
1840
18C0
0FC0
0700
0000
0000
3FE0
7FF0
6070
0038
0018
0018
0018
1FF8
7FFC
F01C
E01C
E01C
C03C
E03C
E07C
F0FC
7FDC
3F9C
ENDCHAR
STARTCHAR 01FC
ENCODING 508
SWIDTH 870 0
DWIDTH 29 0
BBX 27 31 0 0
BITMAP
00007000
0000E000
0000C000
00018000
00038000
00000000
00000000
007FFFE0
007FFFE0
00E7FFE0
00E70000
01C70000
01C70000
01C70000
03870000
03870000
03870000
0707FFC0
0707FFC0
0E07FFC0
0E070000
0E070000
1FFF0000
1FFF0000
1FFF0000
38070000
38070000
70070000
7007FFE0
7007FFE0
E007FFE0
ENDCHAR
STARTCHAR 01FD
ENCODING 509
SWIDTH 870 0
DWIDTH 29 0
BBX 26 26 2 0
BITMAP
000E0000
001C0000
00180000
00300000
00700000
00600000
00000000
00000000
3FC1FC00
7FF7FE00
607F0F00
003E0380
001C0380
001C0180
001C01C0
1FFFFFC0
7FFFFFC0
F01FFFC0
E0180000
E01C0000
C03C0000
E03C0000
E07E0000
F0EF8380
7FC7FF80
3F81FF00
ENDCHAR
STARTCHAR 01FE
ENCODING 510
SWIDTH 690 0
DWIDTH 23 0
BBX 20 32 2 -1
BITMAP
003800
007000
00E000
00C000
018000
000000
000020
07FC70
0FFFE0
1F0FC0
3C0380
7803C0
7007C0
F006E0
E00CE0
E01CE0
E038F0
E03070
E06070
E0E070
E1C070
E380F0
E300E0
E700E0
FE00E0
7C01E0
7801C0
3C0380
7F0F80
EFFF00
C7FC00
800000
ENDCHAR
STARTCHAR 01FF
ENCODING 511
SWIDTH 540 0
DWIDTH 18 0
BBX 16 27 1 -2
BITMAP
00E0
00C0
01C0
0380
0300
0600
0000
0003
0FF7
1FFE
3C3C
381C
703E
707E
7066
70C6
61C7
6187
6306
760E
7E0E
7C0E
381C
3C3C
7FF8
6FF0
C000
ENDCHAR
STARTCHAR 0200
ENCODING 512
SWIDTH 600 0
DWIDTH 20 0
BBX 20 31 0 0
BITMAP
067000
073800
039800
018C00
00CE00
000000
000000
00F000
00F000
00F800
01F800
01D800
019C00
039C00
038C00
030E00
070E00
070600
0E0700
0E0700
0E0300
1C0380
1FFF80
1FFFC0
3FFFC0
3801C0
3800E0
7000E0
7000E0
700070
E00070
ENDCHAR
STARTCHAR 0201
ENCODING 513
SWIDTH 540 0
DWIDTH 18 0
BBX 14 26 2 0
BITMAP
3980
18C0
1CC0
0C60
0E60
0630
0000
0000
3FE0
7FF0
6070
0038
0018
0018
0018
1FF8
7FFC
F01C
E01C
E01C
C03C
E03C
E07C
F0FC
7FDC
3F9C
ENDCHAR
STARTCHAR 0202
ENCODING 514
SWIDTH 600 0
DWIDTH 20 0
BBX 20 30 0 0
BITMAP
006000
01FC00
03FC00
030600
000000
000000
00F000
00F000
00F800
01F800
01D800
019C00
039C00
038C00
030E00
070E00
070600
0E0700
0E0700
0E0300
1C0380
1FFF80
1FFFC0
3FFFC0
3801C0
3800E0
7000E0
7000E0
700070
E00070
ENDCHAR
STARTCHAR 0203
ENCODING 515
SWIDTH 540 0
DWIDTH 18 0
BBX 14 26 2 0
BITMAP
0780
1FC0
1CE0
3060
3020
0000
0000
0000
3FE0
7FF0
6070
0038
0018
0018
0018
1FF8
7FFC
F01C
E01C
E01C
C03C
E03C
E07C
F0FC
7FDC
3F9C
ENDCHAR
STARTCHAR 0204
ENCODING 516
SWIDTH 570 0
DWIDTH 19 0
BBX 14 31 3 0
BITMAP
6700
7380
3980
18C0
0C60
0000
0000
FFFC
FFFC
FFFC
E000
E000
E000
E000
E000
E000
E000
FFF8
FFF8
FFF8
E000
E000
E000
E000
E000
E000
E000
E000
FFFC
FFFC
FFFC
ENDCHAR
STARTCHAR 0205
ENCODING 517
SWIDTH 540 0
DWIDTH 18 0
BBX 15 26 2 0
BITMAP
19C0
1CC0
0C60
0E60
0630
0330
0000
0000
0FE0
3FF0
7838
701C
E01C
E00C
E00E
FFFE
FFFE
FFFE
C000
E000
E000
E000
7000
3C1C
3FFC
0FF8
ENDCHAR
STARTCHAR 0206
ENCODING 518
SWIDTH 570 0
DWIDTH 19 0
BBX 14 30 3 0
BITMAP
0300
1FC0
1FE0
3060
0000
0000
FFFC
FFFC
FFFC
E000
E000
E000
E000
E000
E000
E000
FFF8
FFF8
FFF8
E000
E000
E000
E000
E000
E000
E000
E000
FFFC
FFFC
FFFC
ENDCHAR
STARTCHAR 0207
ENCODING 519
SWIDTH 540 0
DWIDTH 18 0
BBX 15 26 2 0
BITMAP
03C0
0FE0
0E70
1830
1810
0000
0000
0000
0FE0
3FF0
7838
701C
E01C
E00C
E00E
FFFE
FFFE
FFFE
C000
E000
E000
E000
7000
3C1C
3FFC
0FF8
ENDCHAR
STARTCHAR 0208
ENCODING 520
SWIDTH 270 0
DWIDTH 9 0
BBX 10 31 -1 0
BITMAP
C600
6700
7380
3180
18C0
0000
0000
0E00
0E00
0E00
0E00
0E00
0E00
0E00
0E00
0E00
0E00
0E00
0E00
0E00
0E00
0E00
0E00
0E00
0E00
0E00
0E00
0E00
0E00
0E00
0E00
ENDCHAR
STARTCHAR 0209
ENCODING 521
SWIDTH 240 0
DWIDTH 8 0
BBX 9 26 0 0
BITMAP
C600
E600
6300
7300
3180
1980
0000
0000
1800
1800
1800
1800
1800
1800
1800
1800
1800
1800
1800
1800
1800
1800
1800
1800
1800
1800
ENDCHAR
STARTCHAR 020A
ENCODING 522
SWIDTH 270 0
DWIDTH 9 0
BBX 9 30 0 0
BITMAP
0C00
7F00
FF80
C180
0000
0000
1C00
1C00
1C00
1C00
1C00
1C00
1C00
1C00
1C00
1C00
1C00
1C00
1C00
1C00
1C00
1C00
1C00
1C00
1C00
1C00
1C00
1C00
1C00
1C00
ENDCHAR
STARTCHAR 020B
ENCODING 523
SWIDTH 240 0
DWIDTH 8 0
BBX 9 26 0 0
BITMAP
3C00
7F00
E700
C100
8180
0000
0000
0000
1800
1800
1800
1800
1800
1800
1800
1800
1800
1800
1800
1800
1800
1800
1800
1800
1800
1800
ENDCHAR
STARTCHAR 020C
ENCODING 524
SWIDTH 690 0
DWIDTH 23 0
BBX 20 31 2 0
BITMAP
0E6000
067000
073800
039800
018C00
000000
000000
07FC00
0FFF00
1F0F80
3C0380
7801C0
7001E0
F000E0
E000E0
E000E0
E000F0
E00070
E00070
E00070
E00070
E000F0
E000E0
E000E0
F000E0
7001E0
7801C0
3C0380
1F0F80
0FFF00
07FC00
ENDCHAR
STARTCHAR 020D
ENCODING 525
SWIDTH 540 0
DWIDTH 18 0
BBX 15 26 2 0
BITMAP
3980
18C0
1CC0
0C60
0660
0630
0000
0000
1FE0
3FF0
7878
7038
E01C
E01C
E01C
E00C
C00E
C00E
E00C
E01C
E01C
E01C
7038
7878
3FF0
1FE0
ENDCHAR
STARTCHAR 020E
ENCODING 526
SWIDTH 690 0
DWIDTH 23 0
BBX 20 30 2 0
BITMAP
006000
03F800
07BC00
060C00
000000
000000
07FC00
0FFF00
1F0F80
3C0380
7801C0
7001E0
F000E0
E000E0
E000E0
E000F0
E00070
E00070
E00070
E00070
E000F0
E000E0
E000E0
F000E0
7001E0
7801C0
3C0380
1F0F80
0FFF00
07FC00
ENDCHAR
STARTCHAR 020F
ENCODING 527
SWIDTH 540 0
DWIDTH 18 0
BBX 15 26 2 0
BITMAP
07C0
0FE0
1C70
1830
1830
0000
0000
0000
1FE0
3FF0
7878
7038
E01C
E01C
E01C
E00C
C00E
C00E
E00C
E01C
E01C
E01C
7038
7878
3FF0
1FE0
ENDCHAR
STARTCHAR 0210
ENCODING 528
SWIDTH 630 0
DWIDTH 21 0
BBX 17 31 3 0
BITMAP
E60000
630000
738000
398000
18C000
000000
000000
FFC000
FFF000
FFF800
E07800
E03C00
E01C00
E01C00
E01C00
E01C00
E03800
E07800
FFF000
FFE000
FFE000
E07000
E03800
E03800
E01C00
E01C00
E00E00
E00E00
E00700
E00700
E00780
ENDCHAR
STARTCHAR 0211
ENCODING 529
SWIDTH 360 0
DWIDTH 12 0
BBX 10 26 2 0
BITMAP
E700
6300
3380
3180
19C0
18C0
0000
0000
67C0
6FC0
7C00
7800
7000
7000
7000
6000
6000
6000
6000
6000
6000
6000
6000
6000
6000
6000
ENDCHAR
STARTCHAR 0212
ENCODING 530
SWIDTH 630 0
DWIDTH 21 0
BBX 17 30 3 0
BITMAP
060000
1FC000
3FC000
306000
000000
000000
FFC000
FFF000
FFF800
E07800
E03C00
E01C00
E01C00
E01C00
E01C00
E03800
E07800
FFF000
FFE000
FFE000
E07000
E03800
E03800
E01C00
E01C00
E00E00
E00E00
E00700
E00700
E00780
ENDCHAR
STARTCHAR 0213
ENCODING 531
SWIDTH 360 0
DWIDTH 12 0
BBX 9 26 3 0
BITMAP
1E00
7F00
7380
6180
C080
0000
0000
0000
CF80
DF80
F800
F000
E000
E000
E000
C000
C000
C000
C000
C000
C000
C000
C000
C000
C000
C000
ENDCHAR
STARTCHAR 0214
ENCODING 532
SWIDTH 660 0
DWIDTH 22 0
BBX 16 31 3 0
BITMAP
39C0
1CC0
0C60
0670
0730
0000
0000
E007
E007
E007
E007
E007
E007
E007
E007
E007
E007
E007
E007
E007
E007
E007
E007
E007
E007
E007
E00E
700E
7C3E
3FFC
1FF0
ENDCHAR
STARTCHAR 0215
ENCODING 533
SWIDTH 570 0
DWIDTH 19 0
BBX 13 26 3 0
BITMAP
3180
19C0
18C0
0CE0
0C60
0630
0000
0000
C038
C038
C038
C038
C038
C038
C038
C038
C038
C038
C038
C038
C038
E038
E078
F0F8
7FF8
3F38
ENDCHAR
STARTCHAR 0216
ENCODING 534
SWIDTH 660 0
DWIDTH 22 0
BBX 16 30 3 0
BITMAP
0180
0FE0
0FF0
1830
0000
0000
E007
E007
E007
E007
E007
E007
E007
E007
E007
E007
E007
E007
E007
E007
E007
E007
E007
E007
E007
E00E
700E
7C3E
3FFC
1FF0
ENDCHAR
STARTCHAR 0217
ENCODING 535
SWIDTH 570 0
DWIDTH 19 0
BBX 13 26 3 0
BITMAP
0780
1FC0
1CE0
3060
3020
0000
0000
0000
C038
C038
C038
C038
C038
C038
C038
C038
C038
C038
C038
C038
C038
E038
E078
F0F8
7FF8
3F38
ENDCHAR
STARTCHAR 0218
ENCODING 536
SWIDTH 570 0
DWIDTH 19 0
BBX 15 32 2 -7
BITMAP
1FF8
3FFC
7C3C
F004
E000
E000
E000
E000
F000
7C00
7FC0
3FF0
0FF8
007C
001E
000E
000E
000E
000E
000E
C01E
F07C
FFF8
3FF0
0000
0000
0000
0380
0300
0700
0600
0600
ENDCHAR
STARTCHAR 0219
ENCODING 537
SWIDTH 450 0
DWIDTH 15 0
BBX 12 26 2 -8
BITMAP
3FE0
7FE0
F060
E000
C000
C000
E000
FC00
7F80
1FE0
01E0
0070
0070
0070
0070
C0E0
FFE0
FF80
0000
0000
0000
0700
0600
0E00
0C00
0C00
ENDCHAR
STARTCHAR 021A
ENCODING 538
SWIDTH 540 0
DWIDTH 18 0
BBX 18 32 0 -8
BITMAP
FFFFC0
FFFFC0
FFFFC0
00E000
00E000
00E000
00E000
00E000
00E000
00E000
00E000
00E000
00E000
00E000
00E000
00E000
00E000
00E000
00E000
00E000
00E000
00E000
00E000
00E000
000000
000000
000000
01C000
01C000
018000
018000
018000
ENDCHAR
STARTCHAR 021B
ENCODING 539
SWIDTH 360 0
DWIDTH 12 0
BBX 10 31 1 -8
BITMAP
3000
3000
3000
3000
3000
FFC0
FFC0
3000
3000
3000
3000
3000
3000
3000
3000
3000
3000
3000
3800
3800
3E00
1FC0
0FC0
0000
0000
0000
0700
0700
0600
0600
0C00
ENDCHAR
STARTCHAR 021C
ENCODING 540
SWIDTH 570 0
DWIDTH 19 0
BBX 15 31 2 -6
BITMAP
0FE0
3FF0
7878
603C
401C
001C
001C
001C
001C
0038
0078
00F0
01E0
07E0
1FF8
1C3C
101C
001C
000C
000E
001C
001C
003C
0078
00F0
01E0
07C0
1F80
FE00
F800
C000
ENDCHAR
STARTCHAR 021D
ENCODING 541
SWIDTH 450 0
DWIDTH 15 0
BBX 13 25 1 -7
BITMAP
1FC0
7FE0
6070
4030
0030
0030
0070
0070
00E0
01C0
0780
3FE0
3870
2030
0038
0038
0038
0030
0070
00E0
03C0
0F80
7E00
F800
C000
ENDCHAR
STARTCHAR 021E
ENCODING 542
SWIDTH 660 0
DWIDTH 22 0
BBX 16 31 3 0
BITMAP
0C38
0630
0760
03C0
01C0
0000
0000
E007
E007
E007
E007
E007
E007
E007
E007
E007
E007
FFFF
FFFF
FFFF
E007
E007
E007
E007
E007
E007
E007
E007
E007
E007
E007
ENDCHAR
STARTCHAR 021F
ENCODING 543
SWIDTH 570 0
DWIDTH 19 0
BBX 16 31 0 0
BITMAP
C380
6300
7600
3C00
1C00
0000
1800
1800
1800
1800
1800
1800
1800
19FC
1BFE
1B0E
1E07
1C07
1C07
1803
1803
1803
1803
1803
1803
1803
1803
1803
1803
1803
1803
ENDCHAR
STARTCHAR 0220
ENCODING 544
SWIDTH 660 0
DWIDTH 22 0
BBX 16 31 3 -6
BITMAP
E3F8
EFFC
EFFC
FC1E
F80E
F00F
E007
E007
E007
E007
E007
E007
E007
E007
E007
E007
E007
E007
E007
E007
E007
E007
E007
E007
0007
0007
0007
0007
0007
0007
0007
ENDCHAR
STARTCHAR 0221
ENCODING 545
SWIDTH 750 0
DWIDTH 25 0
BBX 21 27 2 -2
BITMAP
001C00
001C00
001C00
001C00
001C00
001C00
001C00
1FDC00
3FFC00
787C00
703C00
E01C00
E01C00
E01C00
C01C00
C01C00
C01C00
C01CF0
E01DF8
E01FF8
E01F98
703F38
786F38
3FEFF8
1FCFF0
001C00
001C00
ENDCHAR
STARTCHAR 0222
ENCODING 546
SWIDTH 630 0
DWIDTH 21 0
BBX 17 24 2 1
BITMAP
007800
001E00
0F0F00
3F0700
780700
F00300
E00300
E00700
700700
781E00
1FFC00
0FF800
3FFE00
780F00
E00700
E00380
E00380
E00380
E00380
E00380
F00700
7C1F00
3FFE00
1FF800
ENDCHAR
STARTCHAR 0223
ENCODING 547
SWIDTH 540 0
DWIDTH 18 0
BBX 14 21 2 0
BITMAP
7018
601C
E01C
E01C
601C
7038
7878
3FF0
1FE0
3FF8
7038
E01C
E01C
E00C
E00C
E01C
E01C
F03C
7878
7FF8
1FE0
ENDCHAR
STARTCHAR 0224
ENCODING 548
SWIDTH 600 0
DWIDTH 20 0
BBX 18 31 1 -7
BITMAP
7FFFC0
7FFFC0
7FFFC0
000780
000700
000E00
001E00
001C00
003800
007800
00F000
00E000
01C000
03C000
078000
070000
0E0000
1E0000
1C0000
380000
780000
FFFFC0
FFFFC0
FFFFC0
0001C0
0001C0
0001C0
0001C0
007F80
007F80
007E00
ENDCHAR
STARTCHAR 0225
ENCODING 549
SWIDTH 480 0
DWIDTH 16 0
BBX 13 25 1 -7
BITMAP
7FF8
7FF8
0038
0078
0070
00E0
01C0
03C0
0380
0700
0E00
1C00
3C00
3800
7000
E000
FFF8
FFF8
0018
0018
0038
0038
07F8
07F0
07C0
ENDCHAR
STARTCHAR 0226
ENCODING 550
SWIDTH 600 0
DWIDTH 20 0
BBX 20 30 0 0
BITMAP
007000
007000
007000
000000
000000
000000
00F000
00F000
00F800
01F800
01D800
019C00
039C00
038C00
030E00
070E00
070600
0E0700
0E0700
0E0300
1C0380
1FFF80
1FFFC0
3FFFC0
3801C0
3800E0
7000E0
7000E0
700070
E00070
ENDCHAR
STARTCHAR 0227
ENCODING 551
SWIDTH 540 0
DWIDTH 18 0
BBX 14 25 2 0
BITMAP
0700
0700
0700
0700
0000
0000
0000
3FE0
7FF0
6070
0038
0018
0018
0018
1FF8
7FFC
F01C
E01C
E01C
C03C
E03C
E07C
F0FC
7FDC
3F9C
ENDCHAR
STARTCHAR 0228
ENCODING 552
SWIDTH 570 0
DWIDTH 19 0
BBX 14 30 3 -6
BITMAP
FFFC
FFFC
FFFC
E000
E000
E000
E000
E000
E000
E000
FFF8
FFF8
FFF8
E000
E000
E000
E000
E000
E000
E000
E000
FFFC
FFFC
FFFC
0100
0180
0180
01C0
0F80
0F80
ENDCHAR
STARTCHAR 0229
ENCODING 553
SWIDTH 540 0
DWIDTH 18 0
BBX 15 24 2 -6
BITMAP
0FE0
3FF0
7838
701C
E01C
E00C
E00E
FFFE
FFFE
FFFE
C000
E000
E000
E000
7000
3C1C
3FFC
0FF8
0180
0080
00C0
00C0
0FC0
0F80
ENDCHAR
STARTCHAR 022A
ENCODING 554
SWIDTH 690 0
DWIDTH 23 0
BBX 20 34 2 0
BITMAP
07FC00
07FC00
07FC00
000000
071C00
071C00
071C00
000000
000000
000000
07FC00
0FFF00
1F0F80
3C0380
7801C0
7001E0
F000E0
E000E0
E000E0
E000F0
E00070
E00070
E00070
E00070
E000F0
E000E0
E000E0
F000E0
7001E0
7801C0
3C0380
1F0F80
0FFF00
07FC00
ENDCHAR
STARTCHAR 022B
ENCODING 555
SWIDTH 540 0
DWIDTH 18 0
BBX 15 30 2 0
BITMAP
1FE0
1FE0
1FE0
0000
0000
1CE0
1CE0
1CE0
0000
0000
0000
0000
1FE0
3FF0
7878
7038
E01C
E01C
E01C
E00C
C00E
C00E
E00C
E01C
E01C
E01C
7038
7878
3FF0
1FE0
ENDCHAR
STARTCHAR 022C
ENCODING 556
SWIDTH 690 0
DWIDTH 23 0
BBX 20 34 2 0
BITMAP
07FC00
07FC00
07FC00
000000
03C400
07FC00
063800
000000
000000
000000
07FC00
0FFF00
1F0F80
3C0380
7801C0
7001E0
F000E0
E000E0
E000E0
E000F0
E00070
E00070
E00070
E00070
E000F0
E000E0
E000E0
F000E0
7001E0
7801C0
3C0380
1F0F80
0FFF00
07FC00
ENDCHAR
STARTCHAR 022D
ENCODING 557
SWIDTH 540 0
DWIDTH 18 0
BBX 15 29 2 0
BITMAP
1FE0
1FE0
1FE0
0000
1E30
1FF0
31E0
0000
0000
0000
0000
1FE0
3FF0
7878
7038
E01C
E01C
E01C
E00C
C00E
C00E
E00C
E01C
E01C
E01C
7038
7878
3FF0
1FE0
ENDCHAR
STARTCHAR 022E
ENCODING 558
SWIDTH 690 0
DWIDTH 23 0
BBX 20 30 2 0
BITMAP
00E000
00E000
00E000
000000
000000
000000
07FC00
0FFF00
1F0F80
3C0380
7801C0
7001E0
F000E0
E000E0
E000E0
E000F0
E00070
E00070
E00070
E00070
E000F0
E000E0
E000E0
F000E0
7001E0
7801C0
3C0380
1F0F80
0FFF00
07FC00
ENDCHAR
STARTCHAR 022F
ENCODING 559
SWIDTH 540 0
DWIDTH 18 0
BBX 15 25 2 0
BITMAP
0300
0300
0300
0300
0000
0000
0000
1FE0
3FF0
7878
7038
E01C
E01C
E01C
E00C
C00E
C00E
E00C
E01C
E01C
E01C
7038
7878
3FF0
1FE0
ENDCHAR
STARTCHAR 0230
ENCODING 560
SWIDTH 690 0
DWIDTH 23 0
BBX 20 34 2 0
BITMAP
07FC00
07FC00
07FC00
000000
000000
00E000
00E000
00E000
000000
000000
07FC00
0FFF00
1F0F80
3C0380
7801C0
7001E0
F000E0
E000E0
E000E0
E000F0
E00070
E00070
E00070
E00070
E000F0
E000E0
E000E0
F000E0
7001E0
7801C0
3C0380
1F0F80
0FFF00
07FC00
ENDCHAR
STARTCHAR 0231
ENCODING 561
SWIDTH 540 0
DWIDTH 18 0
BBX 15 30 2 0
BITMAP
1FE0
1FE0
1FE0
0000
0000
0300
0300
0300
0300
0000
0000
0000
1FE0
3FF0
7878
7038
E01C
E01C
E01C
E00C
C00E
C00E
E00C
E01C
E01C
E01C
7038
7878
3FF0
1FE0
ENDCHAR
STARTCHAR 0232
ENCODING 562
SWIDTH 540 0
DWIDTH 18 0
BBX 18 30 0 0
BITMAP
07F800
07F800
07F800
000000
000000
000000
E001C0
700380
380380
380700
1C0E00
1C0E00
0E1C00
073C00
073800
03F000
03F000
01E000
00E000
00E000
00E000
00E000
00E000
00E000
00E000
00E000
00E000
00E000
00E000
00E000
ENDCHAR
STARTCHAR 0233
ENCODING 563
SWIDTH 540 0
DWIDTH 18 0
BBX 15 32 1 -7
BITMAP
1FF0
1FF0
1FF0
0000
0000
0000
0000
E006
E00E
700E
700C
301C
381C
3838
1838
1C38
1C70
0E70
0E70
06E0
07E0
07C0
03C0
03C0
0380
0380
0380
0700
0700
7E00
7E00
7800
ENDCHAR
STARTCHAR 0234
ENCODING 564
SWIDTH 420 0
DWIDTH 14 0
BBX 10 27 2 -2
BITMAP
6000
6000
6000
6000
6000
6000
6000
6000
6000
6000
6000
6000
6000
6000
6000
6000
6000
6780
6FC0
6FC0
7CC0
78C0
79C0
7FC0
7F80
7000
E000
ENDCHAR
STARTCHAR 0235
ENCODING 565
SWIDTH 750 0
DWIDTH 25 0
BBX 20 20 3 -2
BITMAP
CFE000
DFF000
D87000
F03800
E03800
E03800
C01800
C01800
C01800
C01800
C019E0
C01BF0
C01BF0
C01F30
C01E30
C01E70
C01FF0
C01FE0
001800
003800
ENDCHAR
STARTCHAR 0236
ENCODING 566
SWIDTH 420 0
DWIDTH 14 0
BBX 12 25 1 -2
BITMAP
3000
3000
3000
3000
3000
FFC0
FFC0
3000
3000
3000
3000
3000
3000
3000
3000
33C0
37E0
37E0
3E70
3C60
3CE0
3FE0
3FC0
3800
7000
ENDCHAR
STARTCHAR 0237
ENCODING 567
SWIDTH 240 0
DWIDTH 8 0
BBX 6 25 -1 -7
BITMAP
0C
0C
0C
0C
0C
0C
0C
0C
0C
0C
0C
0C
0C
0C
0C
0C
0C
0C
0C
0C
0C
1C
FC
F8
F0
ENDCHAR
STARTCHAR 0238
ENCODING 568
SWIDTH 900 0
DWIDTH 30 0
BBX 26 25 2 0
BITMAP
001C0000
001C0000
001C0000
001C0000
001C0000
001C0000
001C0000
1FDCFE00
3FFDFF00
787F8700
703F0380
E01E0380
E01E01C0
E01C01C0
C01C01C0
C01C01C0
C01C01C0
C01C01C0
E01C01C0
E01E01C0
E01E0380
703F0380
787F8700
3FFDFF00
1FDCFE00
ENDCHAR
STARTCHAR 0239
ENCODING 569
SWIDTH 900 0
DWIDTH 30 0
BBX 26 25 2 -7
BITMAP
1FDCFE00
3FFDFF00
787F8700
703F0380
E01E0380
E01E01C0
E01C01C0
C01C01C0
C01C01C0
C01C01C0
C01C01C0
E01C01C0
E01E01C0
E01E0380
703F0380
787F8700
3FFDFF00
1FDCFE00
001C0000
001C0000
001C0000
001C0000
001C0000
001C0000
001C0000
ENDCHAR
STARTCHAR 023A
ENCODING 570
SWIDTH 600 0
DWIDTH 20 0
BBX 20 26 0 -1
BITMAP
000030
00F030
00F070
00F8E0
01F9C0
01D980
019F00
039F00
038E00
030E00
071E00
073E00
067700
0E6700
0EC300
1DC380
1FFF80
1FFFC0
3FFFC0
3E01C0
3C00E0
7800E0
7000E0
700070
F00070
400000
ENDCHAR
STARTCHAR 023B
ENCODING 571
SWIDTH 630 0
DWIDTH 21 0
BBX 20 26 0 -1
BITMAP
000010
00FFB0
03FFF0
07C1E0
0F00E0
1E01A0
1C0380
3C0700
380600
380C00
381C00
383800
387000
386000
38E000
39C000
3B8000
3B0000
3F0000
1E0000
1E0020
1F0060
37C1E0
73FFE0
E0FF80
400000
ENDCHAR
STARTCHAR 023C
ENCODING 572
SWIDTH 480 0
DWIDTH 16 0
BBX 16 21 0 -1
BITMAP
0003
03FF
0FFE
1F0C
1C18
3838
3830
3860
38C0
31C0
3180
3B00
3E00
3E00
3C00
1C00
3F0C
7FFC
63FC
C000
4000
ENDCHAR
STARTCHAR 023D
ENCODING 573
SWIDTH 510 0
DWIDTH 17 0
BBX 16 24 0 0
BITMAP
1C00
1C00
1C00
1C00
1C00
1C00
1C00
1C00
1C00
1C00
FF80
FF80
FF80
1C00
1C00
1C00
1C00
1C00
1C00
1C00
1C00
1FFF
1FFF
1FFF
ENDCHAR
STARTCHAR 023E
ENCODING 574
SWIDTH 540 0
DWIDTH 18 0
BBX 20 26 -1 -1
BITMAP
000020
7FFFF0
7FFFE0
7FFFE0
0071C0
007180
007300
007700
007E00
007C00
007800
007800
007000
00F000
00F000
01F000
03F000
077000
067000
0C7000
1C7000
387000
307000
607000
E07000
400000
ENDCHAR
STARTCHAR 023F
ENCODING 575
SWIDTH 450 0
DWIDTH 15 0
BBX 13 26 2 -8
BITMAP
3FE0
7FE0
F060
E000
C000
C000
E000
FC00
7F80
1FE0
01E0
0070
0070
0070
0070
C0E0
FFE0
FFC0
1E00
0F00
0780
03C0
01E0
00F8
0078
0018
ENDCHAR
STARTCHAR 0240
ENCODING 576
SWIDTH 480 0
DWIDTH 16 0
BBX 15 26 1 -8
BITMAP
7FF8
7FF8
0038
0078
0070
00E0
01C0
03C0
0380
0700
0E00
1C00
3C00
3800
7000
E000
F800
FC00
1E00
0F00
0780
03C0
01E0
00F8
007E
001E
ENDCHAR
STARTCHAR 0241
ENCODING 577
SWIDTH 540 0
DWIDTH 18 0
BBX 16 24 1 0
BITMAP
3FF0
FFFC
FFFE
801E
000F
0007
0007
0007
0007
000F
000E
007E
07FC
07F0
0700
0700
0700
0700
0700
0700
0700
0700
0700
0700
ENDCHAR
STARTCHAR 0242
ENCODING 578
SWIDTH 420 0
DWIDTH 14 0
BBX 12 18 1 0
BITMAP
FF80
FFC0
E1E0
00F0
0070
0070
0070
0070
0070
00F0
01F0
1FE0
1FC0
1F00
1C00
1C00
1C00
1C00
ENDCHAR
STARTCHAR 0243
ENCODING 579
SWIDTH 600 0
DWIDTH 20 0
BBX 18 24 0 0
BITMAP
1FFC00
1FFF00
1FFF00
1C0780
1C0380
1C0380
1C0380
1C0380
1C0380
1C0F00
1FFE00
1FFE00
1FFF00
1C0380
1C01C0
1C01C0
FFE1C0
FFE1C0
1C01C0
1C01C0
1C03C0
1FFF80
1FFF00
1FFC00
ENDCHAR
STARTCHAR 0244
ENCODING 580
SWIDTH 660 0
DWIDTH 22 0
BBX 22 24 0 0
BITMAP
1C00E0
1C00E0
1C00E0
1C00E0
1C00E0
1C00E0
1C00E0
1C00E0
1C00E0
1C00E0
FFFFFC
FFFFFC
FFFFFC
1C00E0
1C00E0
1C00E0
1C00E0
1C00E0
1C00E0
1C01C0
0E01C0
0F87C0
07FF80
03FE00
ENDCHAR
STARTCHAR 0245
ENCODING 581
SWIDTH 600 0
DWIDTH 20 0
BBX 20 24 0 0
BITMAP
00F000
00F000
00F800
01F800
01D800
019C00
039C00
038C00
030E00
070E00
070600
0E0700
0E0700
0E0300
1C0380
1C0380
1C01C0
3801C0
3801C0
3800E0
7000E0
7000E0
700070
E00070
ENDCHAR
STARTCHAR 0246
ENCODING 582
SWIDTH 570 0
DWIDTH 19 0
BBX 14 30 3 -3
BITMAP
0018
0038
0030
FFFC
FFFC
FFFC
E060
E0E0
E0E0
E0C0
E0C0
E1C0
E180
FFF8
FFF8
FFF8
E300
E700
E700
E600
EE00
EE00
EC00
EC00
FFFC
FFFC
FFFC
3800
3000
3000
ENDCHAR
STARTCHAR 0247
ENCODING 583
SWIDTH 540 0
DWIDTH 18 0
BBX 15 24 2 -3
BITMAP
0030
0030
0070
0FE0
3FF0
78F8
70DC
E1DC
E18C
E18E
FFFE
FFFE
FFFE
C700
E600
EE00
EC00
7C00
3C1C
3FFC
1FF8
3800
3000
7000
ENDCHAR
STARTCHAR 0248
ENCODING 584
SWIDTH 270 0
DWIDTH 9 0
BBX 11 31 -2 -7
BITMAP
0700
0700
0700
0700
0700
0700
0700
0700
0700
0700
0700
3FE0
3FE0
3FE0
0700
0700
0700
0700
0700
0700
0700
0700
0700
0700
0700
0700
0E00
1E00
FC00
FC00
E000
ENDCHAR
STARTCHAR 0249
ENCODING 585
SWIDTH 240 0
DWIDTH 8 0
BBX 9 32 -1 -7
BITMAP
0C00
0C00
0C00
0C00
0000
0000
0000
0C00
0C00
0C00
0C00
0C00
0C00
0C00
0C00
7F80
7F80
7F80
0C00
0C00
0C00
0C00
0C00
0C00
0C00
0C00
0C00
0C00
1C00
FC00
F800
F000
ENDCHAR
STARTCHAR 024A
ENCODING 586
SWIDTH 690 0
DWIDTH 23 0
BBX 23 32 2 -7
BITMAP
008000
07F9C0
1FFDC0
3E1FC0
3C07C0
7803C0
7003C0
F001C0
E001C0
E001C0
E001C0
E001C0
E001C0
E001C0
E001C0
E001C0
E001C0
E001C0
F001C0
7003C0
7803C0
3C07C0
3E1FC0
1FFDC0
07F1C0
0000C0
0000E0
0000E0
0000F0
00007E
00003E
000006
ENDCHAR
STARTCHAR 024B
ENCODING 587
SWIDTH 570 0
DWIDTH 19 0
BBX 18 25 2 -7
BITMAP
1FDC00
3FFC00
787C00
703C00
E01C00
E01C00
E01C00
C01C00
C01C00
C01C00
C01C00
E01C00
E01C00
E01C00
703C00
787C00
3FFC00
1FDC00
001C00
000C00
000C00
000E00
000FC0
0007C0
0003C0
ENDCHAR
STARTCHAR 024C
ENCODING 588
SWIDTH 630 0
DWIDTH 21 0
BBX 20 24 0 0
BITMAP
1FF800
1FFE00
1FFF00
1C0F00
1C0780
1C0380
1C0380
1C0380
1C0380
1C0700
1C0F00
FFFE00
FFFC00
FFFC00
1C0E00
1C0700
1C0700
1C0380
1C0380
1C01C0
1C01C0
1C00E0
1C00E0
1C00F0
ENDCHAR
STARTCHAR 024D
ENCODING 589
SWIDTH 360 0
DWIDTH 12 0
BBX 12 18 0 0
BITMAP
19F0
1BF0
1F00
1E00
1C00
1C00
1800
1800
FF00
FF00
FF00
1800
1800
1800
1800
1800
1800
1800
ENDCHAR
STARTCHAR 024E
ENCODING 590
SWIDTH 540 0
DWIDTH 18 0
BBX 18 24 0 0
BITMAP
E001C0
700380
780780
380700
FFFFC0
FFFFC0
0E1C00
073C00
073800
03F000
03F000
01E000
00E000
00E000
00E000
00E000
00E000
00E000
00E000
00E000
00E000
00E000
00E000
00E000
ENDCHAR
STARTCHAR 024F
ENCODING 591
SWIDTH 540 0
DWIDTH 18 0
BBX 17 25 0 -7
BITMAP
700300
700700
380700
380600
180E00
1C0E00
1C0C00
FFFF80
FFFF80
FFFF80
073800
073800
037000
03F000
03E000
01E000
01E000
01C000
01C000
01C000
038000
038000
3F0000
3F0000
3C0000
ENDCHAR
STARTCHAR 0250
ENCODING 592
SWIDTH 540 0
DWIDTH 18 0
BBX 13 18 3 0
BITMAP
CFE0
DFF0
F878
F038
E038
E018
C038
C038
C070
FFF0
FFC0
C000
C000
C000
E000
7030
7FF0
1FE0
ENDCHAR
STARTCHAR 0251
ENCODING 593
SWIDTH 570 0
DWIDTH 19 0
BBX 14 18 2 0
BITMAP
1FDC
3FFC
787C
703C
E01C
E01C
E01C
C01C
C01C
C01C
C01C
E01C
E01C
E01C
703C
787C
3FFC
1FDC
ENDCHAR
STARTCHAR 0252
ENCODING 594
SWIDTH 570 0
DWIDTH 19 0
BBX 14 18 3 0
BITMAP
CFE0
DFF0
F878
F038
E01C
E01C
E01C
C01C
C01C
C01C
C01C
E01C
E01C
E01C
F038
F878
DFF0
CFE0
ENDCHAR
STARTCHAR 0253
ENCODING 595
SWIDTH 570 0
DWIDTH 19 0
BBX 14 25 3 0
BITMAP
3F00
7F00
F800
E000
E000
C000
C000
CFE0
DFF0
F878
F038
E01C
E01C
E01C
C01C
C01C
C01C
C01C
E01C
E01C
E01C
F038
F878
DFF0
CFE0
ENDCHAR
STARTCHAR 0254
ENCODING 596
SWIDTH 480 0
DWIDTH 16 0
BBX 13 18 2 0
BITMAP
FF80
FFC0
C1E0
00E0
0070
0070
0030
0038
0038
0038
0038
0030
0070
0070
00F0
C1E0
FFC0
FF80
ENDCHAR
STARTCHAR 0255
ENCODING 597
SWIDTH 480 0
DWIDTH 16 0
BBX 12 20 2 -2
BITMAP
0FF0
3FF0
7C10
7000
E000
E000
E000
E000
C000
C000
E000
E000
E7E0
EFF0
7E30
7C30
3FF0
1FF0
1900
1800
ENDCHAR
STARTCHAR 0256
ENCODING 598
SWIDTH 570 0
DWIDTH 19 0
BBX 18 32 2 -7
BITMAP
001C00
001C00
001C00
001C00
001C00
001C00
001C00
1FDC00
3FFC00
787C00
703C00
E01C00
E01C00
E01C00
C01C00
C01C00
C01C00
C01C00
E01C00
E01C00
E01C00
703C00
787C00
3FFC00
1FDC00
001C00
000C00
000C00
000E00
000FC0
0007C0
0003C0
ENDCHAR
STARTCHAR 0257
ENCODING 599
SWIDTH 630 0
DWIDTH 21 0
BBX 19 25 2 0
BITMAP
0003E0
0007E0
000F00
000E00
000C00
001C00
001C00
1FDC00
3FFC00
787C00
703C00
E01C00
E01C00
E01C00
C01C00
C01C00
C01C00
C01C00
E01C00
E01C00
E01C00
703C00
787C00
3FFC00
1FDC00
ENDCHAR
STARTCHAR 0258
ENCODING 600
SWIDTH 540 0
DWIDTH 18 0
BBX 15 18 2 0
BITMAP
1FE0
3FF0
7878
7038
E01C
E01C
C00C
FFFE
FFFE
FFFE
000E
000C
001C
001C
8038
E078
FFF0
7FC0
ENDCHAR
STARTCHAR 0259
ENCODING 601
SWIDTH 540 0
DWIDTH 18 0
BBX 15 18 2 0
BITMAP
7FE0
FFF0
E078
8038
001C
001C
000C
000E
FFFE
FFFE
FFFE
C00C
E01C
E01C
7038
7878
3FF0
1FE0
ENDCHAR
STARTCHAR 025A
ENCODING 602
SWIDTH 720 0
DWIDTH 24 0
BBX 22 18 2 0
BITMAP
7FE000
FFF0E0
E07BE0
803FE0
001FE0
003CE0
00FCE0
01EE70
078E7C
0F0E3C
3C0E00
781C00
E01C00
E01C00
703800
787800
3FF000
1FE000
ENDCHAR
STARTCHAR 025B
ENCODING 603
SWIDTH 480 0
DWIDTH 16 0
BBX 12 18 2 1
BITMAP
3FE0
7FE0
7820
E000
E000
6000
7000
3F80
1F80
7F80
F000
E000
E000
E000
E000
7030
7FF0
1FF0
ENDCHAR
STARTCHAR 025C
ENCODING 604
SWIDTH 480 0
DWIDTH 16 0
BBX 12 18 2 1
BITMAP
FFC0
FFE0
C1E0
0070
0070
0060
00E0
1FC0
1F80
1FE0
00F0
0070
0070
0070
0070
C0E0
FFE0
FF80
ENDCHAR
STARTCHAR 025D
ENCODING 605
SWIDTH 690 0
DWIDTH 23 0
BBX 21 18 2 1
BITMAP
FFC000
FFE1C0
C1E7C0
007FC0
007DC0
0079C0
00E1C0
1FC1E0
1F80F8
1FE078
00F000
007000
007000
007000
007000
C0E000
FFE000
FF8000
ENDCHAR
STARTCHAR 025E
ENCODING 606
SWIDTH 600 0
DWIDTH 20 0
BBX 16 18 2 1
BITMAP
0FF8
3FFC
7C1E
700E
E006
E00E
E00E
E1FC
C1F8
C1FC
E00E
E007
E007
E007
700E
7C1E
3FFC
0FF8
ENDCHAR
STARTCHAR 025F
ENCODING 607
SWIDTH 240 0
DWIDTH 8 0
BBX 9 25 -1 -7
BITMAP
0C00
0C00
0C00
0C00
0C00
0C00
0C00
0C00
7F80
7F80
7F80
0C00
0C00
0C00
0C00
0C00
0C00
0C00
0C00
0C00
0C00
1C00
FC00
F800
F000
ENDCHAR
STARTCHAR 0260
ENCODING 608
SWIDTH 630 0
DWIDTH 21 0
BBX 19 32 2 -7
BITMAP
0003E0
0007E0
000F00
000E00
000C00
001C00
001C00
1FDC00
3FFC00
787C00
703C00
E01C00
E01C00
E01C00
C01C00
C01C00
C01C00
C01C00
E01C00
E01C00
E03C00
703C00
7FFC00
3FDC00
0F9C00
001C00
001C00
003800
003800
3FF000
3FE000
1F8000
ENDCHAR
STARTCHAR 0261
ENCODING 609
SWIDTH 570 0
DWIDTH 19 0
BBX 14 25 2 -7
BITMAP
0FFC
3FFC
7C1C
701C
E01C
E01C
E01C
C01C
C01C
C01C
C01C
E01C
E01C
E03C
703C
7FFC
3FDC
0F9C
001C
001C
0038
0038
3FF0
3FE0
1F80
ENDCHAR
STARTCHAR 0262
ENCODING 610
SWIDTH 570 0
DWIDTH 19 0
BBX 14 18 2 0
BITMAP
0FF0
3FFC
7C1C
7004
E000
E000
E000
E000
C000
C07C
E07C
E00C
E00C
E00C
700C
7C1C
3FFC
0FF8
ENDCHAR
STARTCHAR 0263
ENCODING 611
SWIDTH 540 0
DWIDTH 18 0
BBX 14 25 2 -7
BITMAP
C01C
E01C
6038
7038
3070
3870
3860
1CE0
1CC0
0FC0
0F80
0780
0700
0780
0780
0FC0
0DC0
1CC0
18E0
1860
3860
1860
1FE0
1FC0
0780
ENDCHAR
STARTCHAR 0264
ENCODING 612
SWIDTH 540 0
DWIDTH 18 0
BBX 14 18 2 0
BITMAP
E01C
F038
7078
3870
3CE0
1DE0
0FC0
0F80
0780
0780
0FC0
1DC0
1CE0
18E0
3860
18E0
1FE0
0FC0
ENDCHAR
STARTCHAR 0265
ENCODING 613
SWIDTH 570 0
DWIDTH 19 0
BBX 13 25 3 -7
BITMAP
C038
C038
C038
C038
C038
C038
C038
C038
C038
C038
C038
C038
C038
E038
E078
F0F8
7FF8
3F38
0038
0038
0038
0038
0038
0038
0038
ENDCHAR
STARTCHAR 0266
ENCODING 614
SWIDTH 570 0
DWIDTH 19 0
BBX 13 25 3 0
BITMAP
3F00
7F00
F800
E000
E000
C000
C000
CFE0
DFF0
D870
F038
E038
E038
C018
C018
C018
C018
C018
C018
C018
C018
C018
C018
C018
C018
ENDCHAR
STARTCHAR 0267
ENCODING 615
SWIDTH 570 0
DWIDTH 19 0
BBX 13 32 3 -7
BITMAP
3F00
7F00
F800
E000
E000
C000
C000
CFE0
DFF0
D870
F038
E038
E038
C018
C018
C018
C018
C018
C018
C018
C018
C018
C018
C018
C018
0018
0018
0038
0038
07F8
07F0
07C0
ENDCHAR
STARTCHAR 0268
ENCODING 616
SWIDTH 240 0
DWIDTH 8 0
BBX 8 25 0 0
BITMAP
18
18
18
18
00
00
00
18
18
18
18
18
18
18
18
FF
FF
FF
18
18
18
18
18
18
18
ENDCHAR
STARTCHAR 0269
ENCODING 617
SWIDTH 300 0
DWIDTH 10 0
BBX 7 18 2 0
BITMAP
E0
E0
E0
E0
E0
E0
E0
E0
E0
E0
E0
E0
E0
60
70
7E
3E
1E
ENDCHAR
STARTCHAR 026A
ENCODING 618
SWIDTH 330 0
DWIDTH 11 0
BBX 7 18 2 0
BITMAP
FE
FE
FE
38
38
38
38
38
38
38
38
38
38
38
38
FE
FE
FE
ENDCHAR
STARTCHAR 026B
ENCODING 619
SWIDTH 360 0
DWIDTH 12 0
BBX 10 25 1 0
BITMAP
0C00
0C00
0C00
0C00
0C00
0C00
0C00
0C00
0C00
0C00
3CC0
7CC0
FD80
CF80
CF00
0C00
0C00
0C00
0C00
0C00
0C00
0C00
0C00
0C00
0C00
ENDCHAR
STARTCHAR 026C
ENCODING 620
SWIDTH 420 0
DWIDTH 14 0
BBX 11 25 1 0
BITMAP
0700
0700
0700
0700
0700
0700
0700
0700
7F00
7F00
EF00
E700
FFE0
FFE0
3FE0
0700
0700
0700
0700
0700
0700
0700
0700
0700
0700
ENDCHAR
STARTCHAR 026D
ENCODING 621
SWIDTH 240 0
DWIDTH 8 0
BBX 6 32 3 -7
BITMAP
C0
C0
C0
C0
C0
C0
C0
C0
C0
C0
C0
C0
C0
C0
C0
C0
C0
C0
C0
C0
C0
C0
C0
C0
C0
C0
C0
E0
E0
FC
7C
1C
ENDCHAR
STARTCHAR 026E
ENCODING 622
SWIDTH 630 0
DWIDTH 21 0
BBX 16 32 3 -7
BITMAP
C000
C000
C000
C000
C000
C000
C000
FFFE
FFFE
C00E
C01C
C03C
C038
C070
C0E0
C1E0
C3C0
C3C0
C3F8
C3FC
C01E
C00F
C007
C007
C007
0007
0007
0007
301E
3FFE
3FFC
0FF0
ENDCHAR
STARTCHAR 026F
ENCODING 623
SWIDTH 870 0
DWIDTH 29 0
BBX 23 18 3 0
BITMAP
C03806
C03806
C03806
C03806
C03806
C03806
C03806
C03806
C03806
C03806
C03806
C03806
C0380E
E0380E
E07C1E
71DE3E
7F8FF6
3F07E6
ENDCHAR
STARTCHAR 0270
ENCODING 624
SWIDTH 870 0
DWIDTH 29 0
BBX 23 25 3 -7
BITMAP
C03806
C03806
C03806
C03806
C03806
C03806
C03806
C03806
C03806
C03806
C03806
C03806
C0380E
E0380E
E07C1E
71DE3E
7F8FF6
3F07E6
000006
000006
000006
000006
000006
000006
000006
ENDCHAR
STARTCHAR 0271
ENCODING 625
SWIDTH 870 0
DWIDTH 29 0
BBX 23 25 3 -7
BITMAP
CFE1F8
DFF3FC
F8F61E
F07C0E
E03C0E
E03806
C03806
C03806
C03806
C03806
C03806
C03806
C03806
C03806
C03806
C03806
C03806
C03806
000006
000006
000006
00000E
0001FE
0001FC
0001F8
ENDCHAR
STARTCHAR 0272
ENCODING 626
SWIDTH 570 0
DWIDTH 19 0
BBX 17 25 -1 -7
BITMAP
0E7E00
0FFF00
0F8780
0F0380
0E0380
0E0180
0E0180
0C0180
0C0180
0C0180
0C0180
0C0180
0C0180
0C0180
0C0180
0C0180
0C0180
0C0180
0C0000
0C0000
0C0000
1C0000
FC0000
F80000
F00000
ENDCHAR
STARTCHAR 0273
ENCODING 627
SWIDTH 570 0
DWIDTH 19 0
BBX 17 25 3 -7
BITMAP
CFE000
DFF000
D87000
F03800
E03800
E03800
C01800
C01800
C01800
C01800
C01800
C01800
C01800
C01800
C01800
C01800
C01800
C01800
001800
001800
001800
001C00
001F80
000F80
000780
ENDCHAR
STARTCHAR 0274
ENCODING 628
SWIDTH 570 0
DWIDTH 19 0
BBX 13 18 3 0
BITMAP
F038
F038
F838
F838
DC38
DC38
CE38
CE38
C738
C738
C3B8
C3B8
C1F8
C1F8
C0F8
C0F8
C078
C078
ENDCHAR
STARTCHAR 0275
ENCODING 629
SWIDTH 540 0
DWIDTH 18 0
BBX 15 18 2 0
BITMAP
1FE0
3FF0
7878
7038
E01C
E01C
E01C
FFFC
FFFE
FFFE
E00C
E01C
E01C
E01C
7038
7878
3FF0
1FE0
ENDCHAR
STARTCHAR 0276
ENCODING 630
SWIDTH 750 0
DWIDTH 25 0
BBX 21 18 2 0
BITMAP
07FFF8
1FFFF8
3C3800
703800
E03800
E03800
E03800
C03FF0
C03FF0
C03FF0
C03800
E03800
E03800
E03800
703800
3C3FF8
1FFFF8
07FFF8
ENDCHAR
STARTCHAR 0277
ENCODING 631
SWIDTH 660 0
DWIDTH 22 0
BBX 17 18 2 0
BITMAP
07F800
1FFC00
3E1E00
380F00
700700
700380
700380
E1C380
E1C180
E1C180
E1C180
E1C180
E1C180
E1C380
71E380
73E780
3F3F00
3E3E00
ENDCHAR
STARTCHAR 0278
ENCODING 632
SWIDTH 600 0
DWIDTH 20 0
BBX 16 32 2 -7
BITMAP
0380
0380
0380
0380
0380
0380
0380
1FF0
3FF8
7BBC
738E
E38E
E387
E387
E387
C387
C387
E387
E387
E387
E38E
738E
7BBC
3FF8
1FF0
0380
0380
0380
0380
0380
0380
0380
ENDCHAR
STARTCHAR 0279
ENCODING 633
SWIDTH 360 0
DWIDTH 12 0
BBX 10 18 0 0
BITMAP
01C0
01C0
01C0
01C0
01C0
01C0
01C0
01C0
01C0
01C0
01C0
01C0
03C0
03C0
07C0
8FC0
FDC0
F9C0
ENDCHAR
STARTCHAR 027A
ENCODING 634
SWIDTH 360 0
DWIDTH 12 0
BBX 10 25 0 0
BITMAP
01C0
01C0
01C0
01C0
01C0
01C0
01C0
01C0
01C0
01C0
01C0
01C0
01C0
01C0
01C0
01C0
01C0
01C0
01C0
03C0
03C0
07C0
8FC0
FDC0
F9C0
ENDCHAR
STARTCHAR 027B
ENCODING 635
SWIDTH 360 0
DWIDTH 12 0
BBX 13 25 0 -7
BITMAP
01C0
01C0
01C0
01C0
01C0
01C0
01C0
01C0
01C0
01C0
01C0
01C0
03C0
03C0
07C0
8FC0
FDC0
F9C0
01C0
01C0
01C0
01C0
00F8
00F8
0038
ENDCHAR
STARTCHAR 027C
ENCODING 636
SWIDTH 360 0
DWIDTH 12 0
BBX 9 25 3 -7
BITMAP
CF80
DF80
F800
F000
E000
E000
E000
C000
C000
C000
C000
C000
C000
C000
C000
C000
C000
C000
C000
C000
C000
C000
C000
C000
C000
ENDCHAR
STARTCHAR 027D
ENCODING 637
SWIDTH 360 0
DWIDTH 12 0
BBX 9 25 3 -7
BITMAP
CF80
DF80
F800
F000
E000
E000
E000
C000
C000
C000
C000
C000
C000
C000
C000
C000
C000
C000
C000
C000
E000
E000
FF00
7F00
1F00
ENDCHAR
STARTCHAR 027E
ENCODING 638
SWIDTH 480 0
DWIDTH 16 0
BBX 11 18 2 0
BITMAP
0FE0
1FE0
1C00
3800
3800
3800
3800
3800
3800
3800
3800
3800
3800
3800
3800
FE00
FE00
FE00
ENDCHAR
STARTCHAR 027F
ENCODING 639
SWIDTH 480 0
DWIDTH 16 0
BBX 11 18 2 0
BITMAP
FE00
FE00
0700
0700
0300
0300
0300
0300
0300
0300
0300
0300
0300
0300
0300
1FE0
1FE0
1FE0
ENDCHAR
STARTCHAR 0280
ENCODING 640
SWIDTH 540 0
DWIDTH 18 0
BBX 14 18 3 0
BITMAP
FF80
FFC0
C3E0
C0E0
C070
C070
C0E0
C1E0
FFC0
FF80
C7C0
C0E0
C0E0
C070
C070
C038
C038
C01C
ENDCHAR
STARTCHAR 0281
ENCODING 641
SWIDTH 540 0
DWIDTH 18 0
BBX 14 18 3 0
BITMAP
C01C
C038
C038
C070
C070
C0E0
C0E0
C7C0
FF80
FFC0
C1E0
C060
C070
C070
C0E0
C7E0
FFC0
FF80
ENDCHAR
STARTCHAR 0282
ENCODING 642
SWIDTH 450 0
DWIDTH 15 0
BBX 12 25 2 -7
BITMAP
3FE0
7FE0
F060
E000
C000
C000
E000
FC00
7F80
1FE0
01E0
0070
0070
0070
0070
C0E0
FFE0
FF80
C000
C000
C000
E000
FF00
7F00
3F00
ENDCHAR
STARTCHAR 0283
ENCODING 643
SWIDTH 300 0
DWIDTH 10 0
BBX 12 32 -1 -7
BITMAP
03F0
07F0
0F00
0E00
0E00
0C00
0C00
0C00
0C00
0C00
0C00
0C00
0C00
0C00
0C00
0C00
0C00
0C00
0C00
0C00
0C00
0C00
0C00
0C00
0C00
0C00
0C00
0C00
1C00
FC00
F800
F000
ENDCHAR
STARTCHAR 0284
ENCODING 644
SWIDTH 300 0
DWIDTH 10 0
BBX 12 32 -1 -7
BITMAP
03F0
07F0
0F00
0E00
0E00
0C00
0C00
7C00
7C00
0C00
0C00
0C00
0C00
0C00
0C00
7F80
7F80
7F80
0C00
0C00
0C00
0C00
0C00
0C00
0C00
0C00
0C00
0C00
1C00
FC00
F800
F000
ENDCHAR
STARTCHAR 0285
ENCODING 645
SWIDTH 420 0
DWIDTH 14 0
BBX 11 25 1 -7
BITMAP
F800
FE00
1E00
0600
0700
0700
0700
0700
0700
0700
0700
0700
0700
0700
0700
0700
0700
0700
0700
0700
0700
0700
03E0
03E0
00E0
ENDCHAR
STARTCHAR 0286
ENCODING 646
SWIDTH 300 0
DWIDTH 10 0
BBX 15 32 -4 -7
BITMAP
007E
00FE
01E0
01C0
01C0
0180
0180
0180
0180
0180
0180
0180
0180
0180
0180
0180
0180
0180
0180
0180
0180
0180
0180
0180
0180
3FF0
FFF0
F180
C380
FF80
7F00
3E00
ENDCHAR
STARTCHAR 0287
ENCODING 647
SWIDTH 360 0
DWIDTH 12 0
BBX 10 23 1 -5
BITMAP
FC00
FE00
1E00
0700
0700
0700
0700
0700
0700
0700
0700
0700
0700
0700
0700
0700
FFC0
FFC0
0700
0700
0700
0700
0700
ENDCHAR
STARTCHAR 0288
ENCODING 648
SWIDTH 360 0
DWIDTH 12 0
BBX 10 30 1 -7
BITMAP
3000
3000
3000
3000
3000
FFC0
FFC0
3000
3000
3000
3000
3000
3000
3000
3000
3000
3000
3000
3000
3000
3000
3000
3000
3000
3000
3800
3800
3FC0
1FC0
07C0
ENDCHAR
STARTCHAR 0289
ENCODING 649
SWIDTH 570 0
DWIDTH 19 0
BBX 19 18 0 0
BITMAP
180700
180700
180700
180700
180700
180700
180700
180700
FFFFE0
FFFFE0
FFFFE0
180700
180700
1C0700
1C0F00
1E1F00
0FFF00
07E700
ENDCHAR
STARTCHAR 028A
ENCODING 650
SWIDTH 540 0
DWIDTH 18 0
BBX 15 18 2 0
BITMAP
FCFE
FCFE
FCFE
3CF0
7838
703C
E01C
E01C
E00C
E00E
E00E
E00C
E00C
E01C
703C
7878
3FF0
1FE0
ENDCHAR
STARTCHAR 028B
ENCODING 651
SWIDTH 540 0
DWIDTH 18 0
BBX 13 18 3 0
BITMAP
C180
C1C0
C1E0
C070
C078
C038
C038
C038
C038
C038
C038
C038
C038
E070
E070
FFE0
7FC0
3F00
ENDCHAR
STARTCHAR 028C
ENCODING 652
SWIDTH 540 0
DWIDTH 18 0
BBX 16 18 1 0
BITMAP
03C0
07C0
07C0
07E0
0EE0
0E60
0E70
1C70
1C30
1C38
3838
381C
381C
701C
700E
700E
E00E
E007
ENDCHAR
STARTCHAR 028D
ENCODING 653
SWIDTH 720 0
DWIDTH 24 0
BBX 22 18 1 0
BITMAP
0F03C0
0F03C0
0F03C0
0F03E0
1F83E0
1D87E0
1D8660
198670
39C670
38CE70
38CE30
30CC38
30EC38
707C38
707C18
707818
60781C
E0781C
ENDCHAR
STARTCHAR 028E
ENCODING 654
SWIDTH 540 0
DWIDTH 18 0
BBX 16 25 1 0
BITMAP
003C
007C
00F0
00E0
01C0
01C0
0180
0380
03C0
07C0
07C0
07E0
0EE0
0E60
0C70
1C70
1C38
1838
3818
381C
701C
700C
700E
E00E
E007
ENDCHAR
STARTCHAR 028F
ENCODING 655
SWIDTH 540 0
DWIDTH 18 0
BBX 14 18 2 0
BITMAP
E01C
F038
7038
3870
3870
1CE0
1DC0
0FC0
0F80
0780
0700
0700
0700
0700
0700
0700
0700
0700
ENDCHAR
STARTCHAR 0290
ENCODING 656
SWIDTH 480 0
DWIDTH 16 0
BBX 17 25 1 -7
BITMAP
7FF800
7FF800
003800
007800
007000
00E000
01C000
03C000
038000
070000
0E0000
1C0000
3C0000
380000
700000
E00000
FFF800
FFF800
001800
001800
001800
001C00
001F80
000F80
000780
ENDCHAR
STARTCHAR 0291
ENCODING 657
SWIDTH 480 0
DWIDTH 16 0
BBX 13 20 1 -2
BITMAP
7FF8
7FF8
0038
0078
0070
00E0
01C0
03C0
0380
0700
0E00
1CF0
3DF8
3BB8
7318
E338
FFF8
FFF0
0700
0700
ENDCHAR
STARTCHAR 0292
ENCODING 658
SWIDTH 510 0
DWIDTH 17 0
BBX 15 25 1 -7
BITMAP
7FF8
7FF8
0038
0078
0070
00E0
01C0
03C0
0780
0700
0F80
0FE0
0FF0
0078
001C
001C
000C
000E
000C
001C
001C
C03C
FFF8
FFF0
3FC0
ENDCHAR
STARTCHAR 0293
ENCODING 659
SWIDTH 510 0
DWIDTH 17 0
BBX 14 25 2 -7
BITMAP
FFF0
FFF0
0070
00F0
00E0
01C0
0380
0780
0F00
0E00
1F00
1FC0
1FE0
00F0
0038
0038
0018
001C
3F98
7FF8
F1F8
E07C
FFFC
7FEC
3F8C
ENDCHAR
STARTCHAR 0294
ENCODING 660
SWIDTH 450 0
DWIDTH 15 0
BBX 13 25 1 0
BITMAP
3F00
FFC0
FFE0
80F0
0070
0070
0030
0038
0030
0070
0070
00E0
0FE0
0F80
0E00
0E00
0E00
0E00
0E00
0E00
0E00
0E00
0E00
0E00
0E00
ENDCHAR
STARTCHAR 0295
ENCODING 661
SWIDTH 450 0
DWIDTH 15 0
BBX 13 25 1 0
BITMAP
07E0
1FF8
3FF8
7808
7000
E000
E000
E000
E000
E000
7000
7800
3F80
1F80
0380
0380
0380
0380
0380
0380
0380
0380
0380
0380
0380
ENDCHAR
STARTCHAR 0296
ENCODING 662
SWIDTH 450 0
DWIDTH 15 0
BBX 13 25 1 0
BITMAP
0E00
0E00
0E00
0E00
0E00
0E00
0E00
0E00
0E00
0E00
0E00
0F80
0FE0
00E0
0070
0070
0030
0038
0030
0070
0070
80F0
FFE0
FFC0
3F00
ENDCHAR
STARTCHAR 0297
ENCODING 663
SWIDTH 450 0
DWIDTH 15 0
BBX 13 32 1 -7
BITMAP
07E0
1FF8
3FF8
7808
7000
E000
E000
E000
E000
E000
E000
E000
E000
E000
E000
E000
E000
E000
E000
E000
E000
E000
E000
E000
E000
E000
E000
7000
7808
3FF8
1FF8
07E0
ENDCHAR
STARTCHAR 0298
ENCODING 664
SWIDTH 690 0
DWIDTH 23 0
BBX 20 24 2 1
BITMAP
07FC00
0FFF00
1F0F80
3C0380
7801C0
7001E0
F000E0
E000E0
E000E0
E000F0
E06070
E0E070
E0E070
E06070
E000F0
E000E0
E000E0
F000E0
7001E0
7801C0
3C0380
1F0F80
0FFF00
07FC00
ENDCHAR
STARTCHAR 0299
ENCODING 665
SWIDTH 510 0
DWIDTH 17 0
BBX 13 18 3 0
BITMAP
FF80
FFE0
C1F0
C070
C070
C070
C0F0
FFE0
FFC0
FFE0
C070
C038
C038
C038
C078
C1F0
FFE0
FFC0
ENDCHAR
STARTCHAR 029A
ENCODING 666
SWIDTH 600 0
DWIDTH 20 0
BBX 16 18 2 1
BITMAP
3FF0
7FF8
F07C
E01E
E00E
E00E
7006
3F87
1F87
7F87
E007
E006
C00E
C00E
E01C
F03C
7FF8
3FE0
ENDCHAR
STARTCHAR 029B
ENCODING 667
SWIDTH 630 0
DWIDTH 21 0
BBX 20 25 2 0
BITMAP
0007F0
000FF0
001F00
001C00
001C00
001C00
001C00
0FFC00
3FFC00
7C1C00
700400
E00000
E00000
E00000
E00000
C00000
C07C00
E07C00
E00C00
E00C00
E00C00
700C00
7C1C00
3FFC00
0FF800
ENDCHAR
STARTCHAR 029C
ENCODING 668
SWIDTH 570 0
DWIDTH 19 0
BBX 14 18 3 0
BITMAP
C01C
C01C
C01C
C01C
C01C
C01C
C01C
FFFC
FFFC
FFFC
C01C
C01C
C01C
C01C
C01C
C01C
C01C
C01C
ENDCHAR
STARTCHAR 029D
ENCODING 669
SWIDTH 270 0
DWIDTH 9 0
BBX 12 32 -4 -7
BITMAP
0180
0180
0180
0180
0000
0000
0000
0180
0180
0180
0180
0180
0180
0180
0180
0180
0180
0180
0180
0180
0180
0180
0180
0180
0180
3FF0
FFF0
E180
C380
FF80
7F00
3E00
ENDCHAR
STARTCHAR 029E
ENCODING 670
SWIDTH 600 0
DWIDTH 20 0
BBX 14 25 3 -7
BITMAP
F01C
781C
3C1C
1E1C
0E1C
071C
039C
01DC
00FC
007C
00FC
01DC
039C
071C
0E1C
1C1C
381C
701C
001C
001C
001C
001C
001C
001C
001C
ENDCHAR
STARTCHAR 029F
ENCODING 671
SWIDTH 450 0
DWIDTH 15 0
BBX 12 18 3 0
BITMAP
C000
C000
C000
C000
C000
C000
C000
C000
C000
C000
C000
C000
C000
C000
C000
C000
FFF0
FFF0
ENDCHAR
STARTCHAR 02A0
ENCODING 672
SWIDTH 660 0
DWIDTH 22 0
BBX 20 32 2 -7
BITMAP
0003F0
0007F0
000F80
000E00
000C00
001C00
001C00
1FDC00
3FFC00
787C00
703C00
E01C00
E01C00
E01C00
C01C00
C01C00
C01C00
C01C00
E01C00
E01C00
E01C00
703C00
787C00
3FFC00
1FDC00
001C00
001C00
001C00
001C00
001C00
001C00
001C00
ENDCHAR
STARTCHAR 02A1
ENCODING 673
SWIDTH 450 0
DWIDTH 15 0
BBX 13 25 1 0
BITMAP
3F00
FFC0
FFE0
80F0
0070
0070
0030
0038
0030
0070
0070
00E0
0FE0
0F80
0E00
0E00
0E00
0E00
7FC0
7FC0
7FC0
0E00
0E00
0E00
0E00
ENDCHAR
STARTCHAR 02A2
ENCODING 674
SWIDTH 450 0
DWIDTH 15 0
BBX 13 25 1 0
BITMAP
07E0
1FF8
3FF8
7808
7000
E000
E000
E000
E000
E000
7000
7800
3F80
1F80
0380
0380
0380
0380
1FF0
1FF0
1FF0
0380
0380
0380
0380
ENDCHAR
STARTCHAR 02A3
ENCODING 675
SWIDTH 900 0
DWIDTH 30 0
BBX 27 25 2 0
BITMAP
001C0000
001C0000
001C0000
001C0000
001C0000
001C0000
001C0000
1FDFFFE0
3FFFFFE0
787C00E0
703C01C0
E01C0380
E01C0780
E01C0700
C01C0E00
C01C1C00
C01C3C00
C01C7800
E01C7000
E01CE000
E01DC000
703FC000
787F8000
3FFFFFE0
1FDFFFE0
ENDCHAR
STARTCHAR 02A4
ENCODING 676
SWIDTH 930 0
DWIDTH 31 0
BBX 28 32 2 -7
BITMAP
001C0000
001C0000
001C0000
001C0000
001C0000
001C0000
001C0000
1FDFFFE0
3FFFFFE0
787C00E0
703C01C0
E01C0380
E01C0780
E01C0700
C01C0E00
C01C1C00
C01C3C00
C01C3C00
E01C3F80
E01C3FC0
E01C01E0
703C00E0
787C0070
3FFC0070
1FDC0070
00000070
00000070
000000F0
000201E0
0003FFC0
0003FF80
0000FE00
ENDCHAR
STARTCHAR 02A5
ENCODING 677
SWIDTH 900 0
DWIDTH 30 0
BBX 27 27 2 -2
BITMAP
001C0000
001C0000
001C0000
001C0000
001C0000
001C0000
001C0000
1FDFFFE0
3FFFFFE0
787C00E0
703C01C0
E01C0380
E01C0780
E01C0700
C01C0E00
C01C1C00
C01C3C00
C01C7800
E01C7380
E01CEFC0
E01DCEE0
703FCCE0
787F9DE0
3FFFFFC0
1FDFFF80
00001800
00001800
ENDCHAR
STARTCHAR 02A6
ENCODING 678
SWIDTH 750 0
DWIDTH 25 0
BBX 22 23 1 0
BITMAP
300000
300000
300000
300000
300000
FFCFF8
FFDFF8
303C18
303800
303000
303800
303800
301F00
301FE0
3007F8
30007C
30001C
30001C
38001C
38001C
3E00FC
1FFFF8
0FFFE0
ENDCHAR
STARTCHAR 02A7
ENCODING 679
SWIDTH 540 0
DWIDTH 18 0
BBX 18 32 1 -7
BITMAP
000FC0
001FC0
303C00
303800
303800
303800
303800
FFF800
FFF800
303800
303800
303800
303800
303800
303800
303800
303800
303800
303800
303800
383800
383800
3E3800
1FF800
0FF800
003800
003800
003000
007000
01F000
01E000
01C000
ENDCHAR
STARTCHAR 02A8
ENCODING 680
SWIDTH 690 0
DWIDTH 23 0
BBX 20 25 1 -2
BITMAP
300000
300000
300000
300000
300000
FFCFF0
FFFFF0
307C10
307000
30E000
30E000
30E000
30E000
30C000
30C000
30E000
30E000
30E7E0
38EFF0
387C30
3E7C30
1FFFF0
0FFFF0
001900
001800
ENDCHAR
STARTCHAR 02A9
ENCODING 681
SWIDTH 750 0
DWIDTH 25 0
BBX 23 32 1 -7
BITMAP
07C000
1FC000
1E0000
380000
380000
380000
380000
FFF3F8
FFF7F8
387E3C
38781C
38780E
38700E
38700E
38700E
38700E
38700E
38700E
38700E
38700E
38700E
38700E
38700E
38700E
38700E
00000E
00000E
00000E
00000E
0003FC
0003FC
0003F0
ENDCHAR
STARTCHAR 02AA
ENCODING 682
SWIDTH 630 0
DWIDTH 21 0
BBX 16 25 3 0
BITMAP
C000
C000
C000
C000
C000
C000
C000
C3FF
C7FF
C703
CE00
CE00
CE00
CF00
C7E0
C3FC
C1FE
C01F
C007
C003
C003
C007
C03F
FFFE
FFFC
ENDCHAR
STARTCHAR 02AB
ENCODING 683
SWIDTH 570 0
DWIDTH 19 0
BBX 15 25 3 0
BITMAP
C000
C000
C000
C000
C000
C000
C000
FFFE
FFFE
C00E
C01C
C03C
C038
C070
C0E0
C1E0
C1C0
C380
C700
CF00
DE00
DC00
F800
FFFE
FFFE
ENDCHAR
STARTCHAR 02AC
ENCODING 684
SWIDTH 450 0
DWIDTH 15 0
BBX 13 21 1 0
BITMAP
C708
C718
C518
4598
6D90
6CB0
28B0
38E0
38E0
3860
0000
C308
C708
C718
4518
6590
6CB0
6CB0
28F0
38E0
3860
ENDCHAR
STARTCHAR 02AD
ENCODING 685
SWIDTH 450 0
DWIDTH 15 0
BBX 14 18 1 3
BITMAP
FFFC
FFFC
C01C
C01C
C01C
C01C
C01C
0000
0000
0000
0000
FFFC
FFFC
FFFC
C01C
C01C
C01C
C01C
ENDCHAR
STARTCHAR 02AE
ENCODING 686
SWIDTH 600 0
DWIDTH 20 0
BBX 17 32 0 -7
BITMAP
F00000
F80000
780000
1C0000
1C0000
1C0000
1C0000
1C0380
1C0380
1C0380
1C0380
1C0380
1C0380
1C0380
1C0380
1C0380
1C0380
1C0380
1C0380
1C0380
0C0380
0E0780
0F0F80
07FB80
03F380
000380
000380
000380
000380
000380
000380
000380
ENDCHAR
STARTCHAR 02AF
ENCODING 687
SWIDTH 600 0
DWIDTH 20 0
BBX 20 32 0 -7
BITMAP
F00000
F80000
780000
1C0000
1C0000
1C0000
1C0000
1C0380
1C0380
1C0380
1C0380
1C0380
1C0380
1C0380
1C0380
1C0380
1C0380
1C0380
1C0380
1C0380
0C0380
0E0780
0F0F80
07FB80
03F380
000380
000380
000380
000180
0001F0
0000F0
000070
ENDCHAR
STARTCHAR 02B0
ENCODING 688
SWIDTH 360 0
DWIDTH 12 0
BBX 8 14 2 11
BITMAP
80
80
80
80
9E
A7
C3
C1
81
81
81
81
81
81
ENDCHAR
STARTCHAR 02B1
ENCODING 689
SWIDTH 360 0
DWIDTH 12 0
BBX 8 14 2 11
BITMAP
78
F8
C0
80
9E
A7
C3
C1
81
81
81
81
81
81
ENDCHAR
STARTCHAR 02B2
ENCODING 690
SWIDTH 150 0
DWIDTH 5 0
BBX 3 18 0 7
BITMAP
20
20
00
00
20
20
20
20
20
20
20
20
20
20
20
20
60
C0
ENDCHAR
STARTCHAR 02B3
ENCODING 691
SWIDTH 240 0
DWIDTH 8 0
BBX 6 10 2 11
BITMAP
BC
B4
C0
C0
80
80
80
80
80
80
ENDCHAR
STARTCHAR 02B4
ENCODING 692
SWIDTH 270 0
DWIDTH 9 0
BBX 6 10 1 11
BITMAP
0C
0C
0C
0C
0C
0C
0C
0C
1C
FC
ENDCHAR
STARTCHAR 02B5
ENCODING 693
SWIDTH 270 0
DWIDTH 9 0
BBX 8 14 1 7
BITMAP
0C
0C
0C
0C
0C
0C
0C
0C
1C
FC
0C
0C
06
07
ENDCHAR
STARTCHAR 02B6
ENCODING 694
SWIDTH 330 0
DWIDTH 11 0
BBX 9 10 0 11
BITMAP
C080
C180
C300
C300
FE00
FE00
C300
C300
C700
FE00
ENDCHAR
STARTCHAR 02B7
ENCODING 695
SWIDTH 450 0
DWIDTH 15 0
BBX 13 10 1 11
BITMAP
C308
C718
C718
4598
6D90
6CB0
68B0
28F0
38E0
3860
ENDCHAR
STARTCHAR 02B8
ENCODING 696
SWIDTH 330 0
DWIDTH 11 0
BBX 9 14 1 7
BITMAP
8080
C180
4180
6300
6300
3200
3600
1600
1C00
1C00
0800
1800
3000
F000
ENDCHAR
STARTCHAR 02B9
ENCODING 697
SWIDTH 240 0
DWIDTH 8 0
BBX 4 8 2 18
BITMAP
70
70
60
60
60
60
E0
C0
ENDCHAR
STARTCHAR 02BA
ENCODING 698
SWIDTH 420 0
DWIDTH 14 0
BBX 9 8 2 18
BITMAP
7180
7380
6380
6380
6300
6300
E300
C300
ENDCHAR
STARTCHAR 02BB
ENCODING 699
SWIDTH 270 0
DWIDTH 9 0
BBX 4 8 3 16
BITMAP
30
60
60
E0
E0
E0
E0
E0
ENDCHAR
STARTCHAR 02BC
ENCODING 700
SWIDTH 270 0
DWIDTH 9 0
BBX 4 8 3 16
BITMAP
70
70
70
E0
E0
C0
C0
80
ENDCHAR
STARTCHAR 02BD
ENCODING 701
SWIDTH 270 0
DWIDTH 9 0
BBX 4 8 3 20
BITMAP
E0
E0
E0
E0
60
70
30
30
ENDCHAR
STARTCHAR 02BE
ENCODING 702
SWIDTH 270 0
DWIDTH 9 0
BBX 4 9 2 16
BITMAP
C0
E0
60
30
30
30
60
E0
80
ENDCHAR
STARTCHAR 02BF
ENCODING 703
SWIDTH 270 0
DWIDTH 9 0
BBX 4 9 2 16
BITMAP
30
70
C0
C0
80
C0
E0
70
30
ENDCHAR
STARTCHAR 02C0
ENCODING 704
SWIDTH 330 0
DWIDTH 11 0
BBX 7 14 2 11
BITMAP
70
FC
06
02
02
06
06
3C
30
30
30
30
30
30
ENDCHAR
STARTCHAR 02C1
ENCODING 705
SWIDTH 330 0
DWIDTH 11 0
BBX 7 14 2 11
BITMAP
1C
7E
C0
C0
80
C0
E0
78
18
18
18
18
18
18
ENDCHAR
STARTCHAR 02C2
ENCODING 706
SWIDTH 450 0
DWIDTH 15 0
BBX 7 9 4 18
BITMAP
06
1E
78
F0
C0
E0
78
1E
06
ENDCHAR
STARTCHAR 02C3
ENCODING 707
SWIDTH 450 0
DWIDTH 15 0
BBX 7 9 4 18
BITMAP
C0
F0
78
1E
06
1E
3C
F0
C0
ENDCHAR
STARTCHAR 02C4
ENCODING 708
SWIDTH 450 0
DWIDTH 15 0
BBX 9 8 3 18
BITMAP
1C00
3C00
3600
3600
6300
6300
C180
C180
ENDCHAR
STARTCHAR 02C5
ENCODING 709
SWIDTH 450 0
DWIDTH 15 0
BBX 9 8 3 18
BITMAP
C180
6300
6300
3600
3600
3C00
1C00
1800
ENDCHAR
STARTCHAR 02C6
ENCODING 710
SWIDTH 450 0
DWIDTH 15 0
BBX 9 6 3 20
BITMAP
1C00
3E00
3600
6300
E300
C180
ENDCHAR
STARTCHAR 02C7
ENCODING 711
SWIDTH 450 0
DWIDTH 15 0
BBX 9 6 3 20
BITMAP
C380
6300
7600
3E00
1C00
1C00
ENDCHAR
STARTCHAR 02C8
ENCODING 712
SWIDTH 240 0
DWIDTH 8 0
BBX 2 9 3 16
BITMAP
C0
C0
C0
C0
C0
C0
C0
C0
C0
ENDCHAR
STARTCHAR 02C9
ENCODING 713
SWIDTH 450 0
DWIDTH 15 0
BBX 9 3 3 22
BITMAP
FF80
FF80
FF80
ENDCHAR
STARTCHAR 02CA
ENCODING 714
SWIDTH 450 0
DWIDTH 15 0
BBX 7 6 5 20
BITMAP
0E
1C
38
30
70
E0
ENDCHAR
STARTCHAR 02CB
ENCODING 715
SWIDTH 450 0
DWIDTH 15 0
BBX 6 6 3 20
BITMAP
E0
70
30
18
1C
0C
ENDCHAR
STARTCHAR 02CC
ENCODING 716
SWIDTH 240 0
DWIDTH 8 0
BBX 2 9 3 -5
BITMAP
C0
C0
C0
C0
C0
C0
C0
C0
C0
ENDCHAR
STARTCHAR 02CD
ENCODING 717
SWIDTH 450 0
DWIDTH 15 0
BBX 9 3 3 -5
BITMAP
FF80
FF80
FF80
ENDCHAR
STARTCHAR 02CE
ENCODING 718
SWIDTH 450 0
DWIDTH 15 0
BBX 6 6 3 -8
BITMAP
E0
60
30
38
1C
0C
ENDCHAR
STARTCHAR 02CF
ENCODING 719
SWIDTH 450 0
DWIDTH 15 0
BBX 6 6 6 -8
BITMAP
1C
38
30
60
E0
C0
ENDCHAR
STARTCHAR 02D0
ENCODING 720
SWIDTH 300 0
DWIDTH 10 0
BBX 5 17 2 0
BITMAP
F8
F0
70
60
20
00
00
00
00
00
00
00
20
60
70
F0
F8
ENDCHAR
STARTCHAR 02D1
ENCODING 721
SWIDTH 300 0
DWIDTH 10 0
BBX 5 5 2 12
BITMAP
F8
F0
70
60
20
ENDCHAR
STARTCHAR 02D2
ENCODING 722
SWIDTH 270 0
DWIDTH 9 0
BBX 4 9 2 8
BITMAP
C0
E0
60
30
30
30
60
E0
80
ENDCHAR
STARTCHAR 02D3
ENCODING 723
SWIDTH 270 0
DWIDTH 9 0
BBX 4 9 2 8
BITMAP
30
70
C0
C0
80
C0
E0
70
30
ENDCHAR
STARTCHAR 02D4
ENCODING 724
SWIDTH 450 0
DWIDTH 15 0
BBX 7 7 4 8
BITMAP
38
38
38
38
38
FE
FE
ENDCHAR
STARTCHAR 02D5
ENCODING 725
SWIDTH 450 0
DWIDTH 15 0
BBX 7 7 4 8
BITMAP
FE
FE
FE
38
38
38
38
ENDCHAR
STARTCHAR 02D6
ENCODING 726
SWIDTH 360 0
DWIDTH 12 0
BBX 9 10 1 4
BITMAP
0C00
0C00
0C00
0C00
FF80
FF80
0C00
0C00
0C00
0C00
ENDCHAR
STARTCHAR 02D7
ENCODING 727
SWIDTH 270 0
DWIDTH 9 0
BBX 7 2 1 8
BITMAP
FE
FE
ENDCHAR
STARTCHAR 02D8
ENCODING 728
SWIDTH 450 0
DWIDTH 15 0
BBX 9 5 3 21
BITMAP
C180
C180
FF00
7F00
1C00
ENDCHAR
STARTCHAR 02D9
ENCODING 729
SWIDTH 450 0
DWIDTH 15 0
BBX 3 3 6 22
BITMAP
E0
E0
E0
ENDCHAR
STARTCHAR 02DA
ENCODING 730
SWIDTH 450 0
DWIDTH 15 0
BBX 8 9 3 20
BITMAP
1C
7E
63
43
C1
43
63
3E
1C
ENDCHAR
STARTCHAR 02DB
ENCODING 731
SWIDTH 450 0
DWIDTH 15 0
BBX 5 6 5 -6
BITMAP
60
C0
C0
C0
F8
F8
ENDCHAR
STARTCHAR 02DC
ENCODING 732
SWIDTH 450 0
DWIDTH 15 0
BBX 9 5 3 21
BITMAP
2180
F980
DD80
CF80
8700
ENDCHAR
STARTCHAR 02DD
ENCODING 733
SWIDTH 450 0
DWIDTH 15 0
BBX 9 6 4 20
BITMAP
3180
7380
6300
E600
C600
CC00
ENDCHAR
STARTCHAR 02DE
ENCODING 734
SWIDTH 270 0
DWIDTH 9 0
BBX 10 9 0 8
BITMAP
0E00
3E00
7E00
EE00
CE00
0E00
0700
07C0
03C0
ENDCHAR
STARTCHAR 02DF
ENCODING 735
SWIDTH 450 0
DWIDTH 15 0
BBX 7 6 4 20
BITMAP
EE
7C
38
78
EC
C6
ENDCHAR
STARTCHAR 02E0
ENCODING 736
SWIDTH 390 0
DWIDTH 13 0
BBX 9 14 2 7
BITMAP
C180
6300
7600
3600
1C00
1C00
3400
3600
6200
6300
4300
4300
7700
3E00
ENDCHAR
STARTCHAR 02E1
ENCODING 737
SWIDTH 150 0
DWIDTH 5 0
BBX 1 14 2 11
BITMAP
80
80
80
80
80
80
80
80
80
80
80
80
80
80
ENDCHAR
STARTCHAR 02E2
ENCODING 738
SWIDTH 330 0
DWIDTH 11 0
BBX 7 10 2 11
BITMAP
7E
C2
80
C0
78
1E
06
02
86
FC
ENDCHAR
STARTCHAR 02E3
ENCODING 739
SWIDTH 390 0
DWIDTH 13 0
BBX 9 10 2 11
BITMAP
C180
6300
3300
1E00
1C00
1C00
3600
3300
6300
C180
ENDCHAR
STARTCHAR 02E4
ENCODING 740
SWIDTH 330 0
DWIDTH 11 0
BBX 7 14 2 11
BITMAP
1C
7E
C0
C0
80
C0
E0
78
18
18
18
18
18
18
ENDCHAR
STARTCHAR 02E5
ENCODING 741
SWIDTH 450 0
DWIDTH 15 0
BBX 9 22 3 0
BITMAP
FF80
FF80
0180
0180
0180
0180
0180
0180
0180
0180
0180
0180
0180
0180
0180
0180
0180
0180
0180
0180
0180
0180
ENDCHAR
STARTCHAR 02E6
ENCODING 742
SWIDTH 450 0
DWIDTH 15 0
BBX 9 22 3 0
BITMAP
0180
0180
0180
0180
0180
FF80
FF80
0180
0180
0180
0180
0180
0180
0180
0180
0180
0180
0180
0180
0180
0180
0180
ENDCHAR
STARTCHAR 02E7
ENCODING 743
SWIDTH 450 0
DWIDTH 15 0
BBX 9 22 3 0
BITMAP
0180
0180
0180
0180
0180
0180
0180
0180
0180
0180
FF80
FF80
0180
0180
0180
0180
0180
0180
0180
0180
0180
0180
ENDCHAR
STARTCHAR 02E8
ENCODING 744
SWIDTH 450 0
DWIDTH 15 0
BBX 9 22 3 0
BITMAP
0180
0180
0180
0180
0180
0180
0180
0180
0180
0180
0180
0180
0180
0180
0180
FF80
FF80
0180
0180
0180
0180
0180
ENDCHAR
STARTCHAR 02E9
ENCODING 745
SWIDTH 450 0
DWIDTH 15 0
BBX 9 22 3 0
BITMAP
0180
0180
0180
0180
0180
0180
0180
0180
0180
0180
0180
0180
0180
0180
0180
0180
0180
0180
0180
0180
FF80
FF80
ENDCHAR
STARTCHAR 02EC
ENCODING 748
SWIDTH 450 0
DWIDTH 15 0
BBX 9 8 3 -9
BITMAP
C180
6300
6300
3600
3600
3C00
1C00
1800
ENDCHAR
STARTCHAR 02ED
ENCODING 749
SWIDTH 450 0
DWIDTH 15 0
BBX 9 7 3 20
BITMAP
FF80
FF80
FF80
0000
FF80
FF80
FF80
ENDCHAR
STARTCHAR 02EE
ENCODING 750
SWIDTH 450 0
DWIDTH 15 0
BBX 10 8 3 16
BITMAP
71C0
71C0
71C0
6380
E380
E300
C300
C300
ENDCHAR
STARTCHAR 02F3
ENCODING 755
SWIDTH 450 0
DWIDTH 15 0
BBX 8 9 3 -8
BITMAP
1C
7E
63
43
C1
43
63
3E
1C
ENDCHAR
STARTCHAR 02F7
ENCODING 759
SWIDTH 450 0
DWIDTH 15 0
BBX 9 4 3 -6
BITMAP
7180
F980
CF80
C700
ENDCHAR
STARTCHAR 0300
ENCODING 768
SWIDTH 0 0
DWIDTH 0 0
BBX 6 6 -12 18
BITMAP
E0
70
30
18
1C
0C
ENDCHAR
STARTCHAR 0301
ENCODING 769
SWIDTH 0 0
DWIDTH 0 0
BBX 6 6 -9 18
BITMAP
1C
38
30
60
E0
C0
ENDCHAR
STARTCHAR 0302
ENCODING 770
SWIDTH 0 0
DWIDTH 0 0
BBX 9 6 -12 18
BITMAP
1C00
3E00
3600
6300
6380
C180
ENDCHAR
STARTCHAR 0303
ENCODING 771
SWIDTH 0 0
DWIDTH 0 0
BBX 9 5 -12 21
BITMAP
2080
7980
DD80
CF80
C700
ENDCHAR
STARTCHAR 0304
ENCODING 772
SWIDTH 0 0
DWIDTH 0 0
BBX 9 3 -12 22
BITMAP
FF80
FF80
FF80
ENDCHAR
STARTCHAR 0305
ENCODING 773
SWIDTH 0 0
DWIDTH 0 0
BBX 15 3 -15 22
BITMAP
FFFE
FFFE
FFFE
ENDCHAR
STARTCHAR 0306
ENCODING 774
SWIDTH 0 0
DWIDTH 0 0
BBX 9 5 -12 21
BITMAP
C180
C180
FF00
7F00
1C00
ENDCHAR
STARTCHAR 0307
ENCODING 775
SWIDTH 0 0
DWIDTH 0 0
BBX 3 4 -9 18
BITMAP
E0
E0
E0
E0
ENDCHAR
STARTCHAR 0308
ENCODING 776
SWIDTH 0 0
DWIDTH 0 0
BBX 9 3 -12 18
BITMAP
E380
E380
E380
ENDCHAR
STARTCHAR 0309
ENCODING 777
SWIDTH 0 0
DWIDTH 0 0
BBX 6 7 -10 20
BITMAP
70
FC
0C
0C
18
30
30
ENDCHAR
STARTCHAR 030A
ENCODING 778
SWIDTH 0 0
DWIDTH 0 0
BBX 8 9 -11 20
BITMAP
38
7E
C6
C2
83
C2
C6
7C
38
ENDCHAR
STARTCHAR 030B
ENCODING 779
SWIDTH 0 0
DWIDTH 0 0
BBX 9 6 -11 20
BITMAP
3180
3380
6300
6700
C600
CC00
ENDCHAR
STARTCHAR 030C
ENCODING 780
SWIDTH 0 0
DWIDTH 0 0
BBX 8 6 -11 18
BITMAP
C3
C6
6E
7C
38
38
ENDCHAR
STARTCHAR 030D
ENCODING 781
SWIDTH 0 0
DWIDTH 0 0
BBX 2 7 -8 20
BITMAP
C0
C0
C0
C0
C0
C0
C0
ENDCHAR
STARTCHAR 030E
ENCODING 782
SWIDTH 0 0
DWIDTH 0 0
BBX 8 7 -11 20
BITMAP
C3
C3
C3
C3
C3
C3
C3
ENDCHAR
STARTCHAR 030F
ENCODING 783
SWIDTH 0 0
DWIDTH 0 0
BBX 10 6 -13 20
BITMAP
E600
6700
7300
3180
3980
18C0
ENDCHAR
STARTCHAR 0310
ENCODING 784
SWIDTH 0 0
DWIDTH 0 0
BBX 9 9 -12 21
BITMAP
1C00
1C00
1C00
1C00
C180
C180
FF00
7F00
1C00
ENDCHAR
STARTCHAR 0311
ENCODING 785
SWIDTH 0 0
DWIDTH 0 0
BBX 9 5 -12 21
BITMAP
3E00
7F00
E380
C180
C180
ENDCHAR
STARTCHAR 0312
ENCODING 786
SWIDTH 0 0
DWIDTH 0 0
BBX 4 5 -7 16
BITMAP
30
30
70
60
E0
ENDCHAR
STARTCHAR 0313
ENCODING 787
SWIDTH 0 0
DWIDTH 0 0
BBX 3 8 -9 20
BITMAP
E0
E0
E0
E0
20
60
E0
C0
ENDCHAR
STARTCHAR 0314
ENCODING 788
SWIDTH 0 0
DWIDTH 0 0
BBX 3 8 -9 20
BITMAP
E0
E0
E0
E0
C0
C0
E0
60
ENDCHAR
STARTCHAR 0315
ENCODING 789
SWIDTH 0 0
DWIDTH 0 0
BBX 4 6 -2 19
BITMAP
70
70
60
E0
E0
C0
ENDCHAR
STARTCHAR 0316
ENCODING 790
SWIDTH 0 0
DWIDTH 0 0
BBX 6 6 -12 -9
BITMAP
E0
70
30
18
1C
0C
ENDCHAR
STARTCHAR 0317
ENCODING 791
SWIDTH 0 0
DWIDTH 0 0
BBX 6 6 -9 -9
BITMAP
1C
38
30
60
E0
C0
ENDCHAR
STARTCHAR 0318
ENCODING 792
SWIDTH 0 0
DWIDTH 0 0
BBX 4 7 -11 -8
BITMAP
10
10
F0
F0
10
10
10
ENDCHAR
STARTCHAR 0319
ENCODING 793
SWIDTH 0 0
DWIDTH 0 0
BBX 4 7 -8 -8
BITMAP
80
80
F0
F0
80
80
80
ENDCHAR
STARTCHAR 031A
ENCODING 794
SWIDTH 0 0
DWIDTH 0 0
BBX 7 8 -6 23
BITMAP
FE
FE
FE
06
06
06
06
06
ENDCHAR
STARTCHAR 031B
ENCODING 795
SWIDTH 0 0
DWIDTH 0 0
BBX 6 6 -4 14
BITMAP
0C
0C
0C
DC
F8
38
ENDCHAR
STARTCHAR 031C
ENCODING 796
SWIDTH 0 0
DWIDTH 0 0
BBX 3 7 -9 -8
BITMAP
60
E0
C0
80
C0
E0
60
ENDCHAR
STARTCHAR 031D
ENCODING 797
SWIDTH 0 0
DWIDTH 0 0
BBX 7 5 -11 -8
BITMAP
18
18
18
FE
FE
ENDCHAR
STARTCHAR 031E
ENCODING 798
SWIDTH 0 0
DWIDTH 0 0
BBX 7 5 -11 -8
BITMAP
FE
FE
18
18
18
ENDCHAR
STARTCHAR 031F
ENCODING 799
SWIDTH 0 0
DWIDTH 0 0
BBX 7 7 -11 -8
BITMAP
10
10
FE
FE
10
10
10
ENDCHAR
STARTCHAR 0320
ENCODING 800
SWIDTH 0 0
DWIDTH 0 0
BBX 7 2 -11 -6
BITMAP
FE
FE
ENDCHAR
STARTCHAR 0321
ENCODING 801
SWIDTH 0 0
DWIDTH 0 0
BBX 8 9 -9 -7
BITMAP
03
03
03
03
07
07
FF
FE
F8
ENDCHAR
STARTCHAR 0322
ENCODING 802
SWIDTH 0 0
DWIDTH 0 0
BBX 8 9 -9 -7
BITMAP
C0
C0
C0
C0
C0
E0
FF
7F
3F
ENDCHAR
STARTCHAR 0323
ENCODING 803
SWIDTH 0 0
DWIDTH 0 0
BBX 3 4 -9 -6
BITMAP
E0
E0
E0
E0
ENDCHAR
STARTCHAR 0324
ENCODING 804
SWIDTH 0 0
DWIDTH 0 0
BBX 9 3 -12 -6
BITMAP
E380
E380
E380
ENDCHAR
STARTCHAR 0325
ENCODING 805
SWIDTH 0 0
DWIDTH 0 0
BBX 7 7 -11 -8
BITMAP
38
7C
66
C6
66
7C
38
ENDCHAR
STARTCHAR 0326
ENCODING 806
SWIDTH 0 0
DWIDTH 0 0
BBX 4 5 -10 -8
BITMAP
70
70
60
60
C0
ENDCHAR
STARTCHAR 0327
ENCODING 807
SWIDTH 0 0
DWIDTH 0 0
BBX 6 6 -11 -6
BITMAP
18
0C
0C
0C
FC
FC
ENDCHAR
STARTCHAR 0328
ENCODING 808
SWIDTH 0 0
DWIDTH 0 0
BBX 5 6 -10 -6
BITMAP
60
40
C0
C0
F8
78
ENDCHAR
STARTCHAR 0329
ENCODING 809
SWIDTH 0 0
DWIDTH 0 0
BBX 2 6 -8 -8
BITMAP
C0
C0
C0
C0
C0
C0
ENDCHAR
STARTCHAR 032A
ENCODING 810
SWIDTH 0 0
DWIDTH 0 0
BBX 8 5 -11 -7
BITMAP
FF
FF
C3
C3
C3
ENDCHAR
STARTCHAR 032B
ENCODING 811
SWIDTH 0 0
DWIDTH 0 0
BBX 11 4 -13 -7
BITMAP
8620
CE60
FFE0
7BC0
ENDCHAR
STARTCHAR 032C
ENCODING 812
SWIDTH 0 0
DWIDTH 0 0
BBX 8 6 -11 -8
BITMAP
C3
C6
6E
7C
38
38
ENDCHAR
STARTCHAR 032D
ENCODING 813
SWIDTH 0 0
DWIDTH 0 0
BBX 9 6 -12 -8
BITMAP
1C00
3E00
3600
6300
6300
C180
ENDCHAR
STARTCHAR 032E
ENCODING 814
SWIDTH 0 0
DWIDTH 0 0
BBX 9 5 -12 -8
BITMAP
C180
C180
FF00
7F00
1C00
ENDCHAR
STARTCHAR 032F
ENCODING 815
SWIDTH 0 0
DWIDTH 0 0
BBX 9 4 -12 -7
BITMAP
3E00
7F00
E380
C180
ENDCHAR
STARTCHAR 0330
ENCODING 816
SWIDTH 0 0
DWIDTH 0 0
BBX 9 5 -12 -7
BITMAP
2080
7980
DD80
CF80
C700
ENDCHAR
STARTCHAR 0331
ENCODING 817
SWIDTH 0 0
DWIDTH 0 0
BBX 9 3 -12 -5
BITMAP
FF80
FF80
FF80
ENDCHAR
STARTCHAR 0332
ENCODING 818
SWIDTH 0 0
DWIDTH 0 0
BBX 15 3 -15 -8
BITMAP
FFFE
FFFE
FFFE
ENDCHAR
STARTCHAR 0333
ENCODING 819
SWIDTH 0 0
DWIDTH 0 0
BBX 15 8 -15 -8
BITMAP
FFFE
FFFE
FFFE
0000
0000
FFFE
FFFE
FFFE
ENDCHAR
STARTCHAR 0334
ENCODING 820
SWIDTH 0 0
DWIDTH 0 0
BBX 16 4 -17 9
BITMAP
7F83
FFFF
E1FE
807C
ENDCHAR
STARTCHAR 0335
ENCODING 821
SWIDTH 0 0
DWIDTH 0 0
BBX 7 3 -9 7
BITMAP
FE
FE
FE
ENDCHAR
STARTCHAR 0336
ENCODING 822
SWIDTH 0 0
DWIDTH 0 0
BBX 19 3 -19 7
BITMAP
FFFFE0
FFFFE0
FFFFE0
ENDCHAR
STARTCHAR 0337
ENCODING 823
SWIDTH 0 0
DWIDTH 0 0
BBX 16 20 -17 -1
BITMAP
0003
0006
000E
000C
0018
0038
0070
0060
00C0
01C0
0380
0300
0600
0E00
1C00
1800
3000
7000
6000
C000
ENDCHAR
STARTCHAR 0338
ENCODING 824
SWIDTH 0 0
DWIDTH 0 0
BBX 20 26 -22 -1
BITMAP
000030
000030
000070
0000E0
0001C0
000180
000300
000700
000E00
000C00
001800
003800
007000
006000
00C000
01C000
038000
070000
060000
0E0000
1C0000
380000
300000
700000
E00000
400000
ENDCHAR
STARTCHAR 0339
ENCODING 825
SWIDTH 0 0
DWIDTH 0 0
BBX 3 7 -9 -8
BITMAP
C0
E0
60
20
60
E0
C0
ENDCHAR
STARTCHAR 033A
ENCODING 826
SWIDTH 0 0
DWIDTH 0 0
BBX 8 6 -11 -7
BITMAP
C3
C3
C3
C3
FF
FF
ENDCHAR
STARTCHAR 033B
ENCODING 827
SWIDTH 0 0
DWIDTH 0 0
BBX 7 7 -11 -8
BITMAP
FE
FE
C6
C6
C6
FE
FE
ENDCHAR
STARTCHAR 033C
ENCODING 828
SWIDTH 0 0
DWIDTH 0 0
BBX 11 4 -13 -7
BITMAP
7BC0
FFE0
CE60
8620
ENDCHAR
STARTCHAR 033D
ENCODING 829
SWIDTH 0 0
DWIDTH 0 0
BBX 5 8 -10 20
BITMAP
08
C8
F8
78
78
F8
C8
08
ENDCHAR
STARTCHAR 033E
ENCODING 830
SWIDTH 0 0
DWIDTH 0 0
BBX 4 8 -7 20
BITMAP
70
F0
C0
C0
60
30
F0
E0
ENDCHAR
STARTCHAR 033F
ENCODING 831
SWIDTH 0 0
DWIDTH 0 0
BBX 15 8 -15 17
BITMAP
FFFE
FFFE
FFFE
0000
0000
FFFE
FFFE
FFFE
ENDCHAR
STARTCHAR 0340
ENCODING 832
SWIDTH 0 0
DWIDTH 0 0
BBX 6 6 -12 20
BITMAP
E0
70
30
18
1C
0C
ENDCHAR
STARTCHAR 0341
ENCODING 833
SWIDTH 0 0
DWIDTH 0 0
BBX 6 6 -9 20
BITMAP
1C
38
30
60
E0
C0
ENDCHAR
STARTCHAR 0342
ENCODING 834
SWIDTH 0 0
DWIDTH 0 0
BBX 9 5 -12 21
BITMAP
2080
7980
DD80
CF80
C700
ENDCHAR
STARTCHAR 0343
ENCODING 835
SWIDTH 0 0
DWIDTH 0 0
BBX 3 8 -9 20
BITMAP
E0
E0
E0
E0
20
60
E0
C0
ENDCHAR
STARTCHAR 0344
ENCODING 836
SWIDTH 0 0
DWIDTH 0 0
BBX 8 10 -11 22
BITMAP
07
06
0E
1C
18
30
00
C7
C7
C7
ENDCHAR
STARTCHAR 0345
ENCODING 837
SWIDTH 0 0
DWIDTH 0 0
BBX 3 6 -8 -7
BITMAP
C0
C0
C0
C0
C0
E0
ENDCHAR
STARTCHAR 0346
ENCODING 838
SWIDTH 0 0
DWIDTH 0 0
BBX 9 5 -12 21
BITMAP
FF80
FF80
C180
C180
C180
ENDCHAR
STARTCHAR 0347
ENCODING 839
SWIDTH 0 0
DWIDTH 0 0
BBX 7 6 -11 -7
BITMAP
FE
FE
00
00
00
FE
ENDCHAR
STARTCHAR 0348
ENCODING 840
SWIDTH 0 0
DWIDTH 0 0
BBX 7 6 -11 -8
BITMAP
C6
C6
C6
C6
C6
C6
ENDCHAR
STARTCHAR 0349
ENCODING 841
SWIDTH 0 0
DWIDTH 0 0
BBX 7 7 -11 -8
BITMAP
FE
FE
06
06
06
06
06
ENDCHAR
STARTCHAR 034A
ENCODING 842
SWIDTH 0 0
DWIDTH 0 0
BBX 9 6 -12 20
BITMAP
2680
7D80
DD80
DF80
D700
3000
ENDCHAR
STARTCHAR 034B
ENCODING 843
SWIDTH 0 0
DWIDTH 0 0
BBX 9 9 -12 19
BITMAP
0600
0600
0000
7980
FF80
CF80
0000
3000
3000
ENDCHAR
STARTCHAR 034C
ENCODING 844
SWIDTH 0 0
DWIDTH 0 0
BBX 9 7 -12 20
BITMAP
7180
FD80
CF80
0000
7980
FF80
CF00
ENDCHAR
STARTCHAR 034D
ENCODING 845
SWIDTH 0 0
DWIDTH 0 0
BBX 11 7 -13 -8
BITMAP
3080
60C0
C060
FFE0
4060
60C0
3180
ENDCHAR
STARTCHAR 034E
ENCODING 846
SWIDTH 0 0
DWIDTH 0 0
BBX 6 6 -10 -7
BITMAP
30
F8
EC
A4
20
20
ENDCHAR
STARTCHAR 034F
ENCODING 847
SWIDTH 0 0
DWIDTH 0 0
BBX 0 0 0 0
BITMAP
ENDCHAR
STARTCHAR 0351
ENCODING 849
SWIDTH 0 0
DWIDTH 0 0
BBX 4 9 -9 20
BITMAP
30
70
C0
C0
80
C0
C0
70
30
ENDCHAR
STARTCHAR 0352
ENCODING 850
SWIDTH 0 0
DWIDTH 0 0
BBX 9 7 -12 18
BITMAP
3E00
7F00
E380
DD80
DD80
1C00
1C00
ENDCHAR
STARTCHAR 0353
ENCODING 851
SWIDTH 0 0
DWIDTH 0 0
BBX 5 8 -10 -8
BITMAP
08
C8
F8
78
78
F8
C8
08
ENDCHAR
STARTCHAR 0357
ENCODING 855
SWIDTH 0 0
DWIDTH 0 0
BBX 4 9 -9 20
BITMAP
80
E0
60
20
30
20
60
C0
80
ENDCHAR
STARTCHAR 0358
ENCODING 856
SWIDTH 0 0
DWIDTH 0 0
BBX 3 3 -3 22
BITMAP
E0
E0
E0
ENDCHAR
STARTCHAR 035A
ENCODING 858
SWIDTH 0 0
DWIDTH 0 0
BBX 11 7 -13 -8
BITMAP
3B80
7FC0
CE60
C460
CE60
7FC0
3B80
ENDCHAR
STARTCHAR 035C
ENCODING 860
SWIDTH 0 0
DWIDTH 0 0
BBX 26 6 -13 -8
BITMAP
80000040
E00001C0
7C000F80
1FFFFE00
07FFF800
007F8000
ENDCHAR
STARTCHAR 035D
ENCODING 861
SWIDTH 0 0
DWIDTH 0 0
BBX 26 6 -13 26
BITMAP
80000040
E00001C0
7C000F80
1FFFFE00
07FFF800
007F8000
ENDCHAR
STARTCHAR 035E
ENCODING 862
SWIDTH 0 0
DWIDTH 0 0
BBX 26 3 -13 28
BITMAP
FFFFFFC0
FFFFFFC0
FFFFFFC0
ENDCHAR
STARTCHAR 035F
ENCODING 863
SWIDTH 0 0
DWIDTH 0 0
BBX 26 2 -13 -5
BITMAP
FFFFFFC0
FFFFFFC0
ENDCHAR
STARTCHAR 0360
ENCODING 864
SWIDTH 0 0
DWIDTH 0 0
BBX 21 5 -10 25
BITMAP
000038
7FC030
FFF870
E07FE0
C01FC0
ENDCHAR
STARTCHAR 0361
ENCODING 865
SWIDTH 0 0
DWIDTH 0 0
BBX 26 6 -13 25
BITMAP
001E0000
03FFF000
1FFFFE00
7E001F80
F00003C0
80000040
ENDCHAR
STARTCHAR 0362
ENCODING 866
SWIDTH 0 0
DWIDTH 0 0
BBX 26 7 -13 -8
BITMAP
00000300
00000180
000000C0
FFFFFFC0
00000080
00000180
00000300
ENDCHAR
STARTCHAR 0370
ENCODING 880
SWIDTH 570 0
DWIDTH 19 0
BBX 13 24 3 0
BITMAP
E000
E000
E000
E000
E000
E000
E000
E000
E000
E000
FFF8
FFF8
FFF8
E000
E000
E000
E000
E000
E000
E000
E000
E000
E000
E000
ENDCHAR
STARTCHAR 0371
ENCODING 881
SWIDTH 510 0
DWIDTH 17 0
BBX 11 18 3 0
BITMAP
C000
C000
C000
C000
C000
C000
C000
FFE0
FFE0
FFE0
C000
C000
C000
C000
C000
C000
C000
C000
ENDCHAR
STARTCHAR 0372
ENCODING 882
SWIDTH 780 0
DWIDTH 26 0
BBX 20 24 3 0
BITMAP
FFFFF0
FFFFF0
FFFFF0
E0E070
E0E070
E0E070
E0E070
E0E070
E0E070
E0E070
E0E070
E0E070
E0E070
00E000
00E000
00E000
00E000
00E000
00E000
00E000
00E000
00E000
00E000
00E000
ENDCHAR
STARTCHAR 0373
ENCODING 883
SWIDTH 570 0
DWIDTH 19 0
BBX 13 24 3 0
BITMAP
FFF8
FFF8
FFF8
E718
E718
E718
E718
E718
E718
E718
E718
E718
E718
0700
0700
0700
0700
0700
0700
0700
0700
0700
0700
0700
ENDCHAR
STARTCHAR 0374
ENCODING 884
SWIDTH 240 0
DWIDTH 8 0
BBX 4 8 2 18
BITMAP
70
70
60
60
60
60
E0
C0
ENDCHAR
STARTCHAR 0375
ENCODING 885
SWIDTH 240 0
DWIDTH 8 0
BBX 4 8 2 -7
BITMAP
30
30
70
70
60
60
60
E0
ENDCHAR
STARTCHAR 0376
ENCODING 886
SWIDTH 660 0
DWIDTH 22 0
BBX 16 24 3 0
BITMAP
E00F
E00F
E01F
E01F
E03F
E03F
E077
E077
E0E7
E0E7
E1C7
E1C7
E387
E387
E707
E707
EE07
EE07
FE07
FC07
FC07
F807
F807
F007
ENDCHAR
STARTCHAR 0377
ENCODING 887
SWIDTH 570 0
DWIDTH 19 0
BBX 14 18 3 0
BITMAP
C03C
C07C
C07C
C0FC
C0DC
C1DC
C19C
C39C
C31C
C71C
CE1C
CE1C
DC1C
DC1C
F81C
F01C
F01C
E01C
ENDCHAR
STARTCHAR 037A
ENCODING 890
SWIDTH 450 0
DWIDTH 15 0
BBX 4 6 6 -7
BITMAP
E0
E0
E0
E0
E0
70
ENDCHAR
STARTCHAR 037B
ENCODING 891
SWIDTH 480 0
DWIDTH 16 0
BBX 13 18 2 0
BITMAP
FF80
FFC0
C1E0
00E0
0070
0070
0030
0038
0038
0038
0038
0030
0070
0070
00F0
C1E0
FFC0
FF80
ENDCHAR
STARTCHAR 037C
ENCODING 892
SWIDTH 480 0
DWIDTH 16 0
BBX 12 18 2 0
BITMAP
0FF0
3FF0
7C10
7000
E000
E000
E380
E380
C380
C380
E380
E000
E000
E000
7000
7C30
3FF0
0FF0
ENDCHAR
STARTCHAR 037D
ENCODING 893
SWIDTH 480 0
DWIDTH 16 0
BBX 13 18 2 0
BITMAP
FF80
FFC0
C1E0
00E0
0070
0070
1C30
1C38
1C38
1C38
1C38
0030
0070
0070
00F0
C1E0
FFC0
FF80
ENDCHAR
STARTCHAR 037E
ENCODING 894
SWIDTH 300 0
DWIDTH 10 0
BBX 5 21 2 -4
BITMAP
78
78
78
78
00
00
00
00
00
00
00
00
00
78
78
78
70
70
60
60
C0
ENDCHAR
STARTCHAR 037F
ENCODING 895
SWIDTH 270 0
DWIDTH 9 0
BBX 8 31 -2 -7
BITMAP
07
07
07
07
07
07
07
07
07
07
07
07
07
07
07
07
07
07
07
07
07
07
07
07
07
07
0E
1E
FC
FC
E0
ENDCHAR
STARTCHAR 0384
ENCODING 900
SWIDTH 450 0
DWIDTH 15 0
BBX 7 6 5 20
BITMAP
0E
1C
38
30
70
E0
ENDCHAR
STARTCHAR 0385
ENCODING 901
SWIDTH 450 0
DWIDTH 15 0
BBX 9 10 3 22
BITMAP
0380
0700
0E00
0C00
1C00
3800
0000
E380
E380
E380
ENDCHAR
STARTCHAR 0386
ENCODING 902
SWIDTH 630 0
DWIDTH 21 0
BBX 20 26 0 0
BITMAP
070000
0E0000
1CF000
18F000
30F800
61F800
01D800
019C00
039C00
038C00
030E00
070E00
070600
0E0700
0E0700
0E0300
1C0380
1FFF80
1FFFC0
3FFFC0
3801C0
3800E0
7000E0
7000E0
700070
E00070
ENDCHAR
STARTCHAR 0387
ENCODING 903
SWIDTH 270 0
DWIDTH 9 0
BBX 3 5 3 9
BITMAP
E0
E0
E0
E0
E0
ENDCHAR
STARTCHAR 0388
ENCODING 904
SWIDTH 660 0
DWIDTH 22 0
BBX 20 26 0 0
BITMAP
1C0000
380000
33FFF0
73FFF0
E3FFF0
C38000
038000
038000
038000
038000
038000
038000
03FFF0
03FFF0
03FFF0
038000
038000
038000
038000
038000
038000
038000
038000
03FFF0
03FFF0
03FFF0
ENDCHAR
STARTCHAR 0389
ENCODING 905
SWIDTH 780 0
DWIDTH 26 0
BBX 23 26 0 0
BITMAP
1C0000
180000
3B800E
73800E
63800E
C3800E
03800E
03800E
03800E
03800E
03800E
03800E
03FFFE
03FFFE
03FFFE
03800E
03800E
03800E
03800E
03800E
03800E
03800E
03800E
03800E
03800E
03800E
ENDCHAR
STARTCHAR 038A
ENCODING 906
SWIDTH 360 0
DWIDTH 12 0
BBX 9 26 0 0
BITMAP
1C00
1800
3380
7380
E380
C380
0380
0380
0380
0380
0380
0380
0380
0380
0380
0380
0380
0380
0380
0380
0380
0380
0380
0380
0380
0380
ENDCHAR
STARTCHAR 038C
ENCODING 908
SWIDTH 720 0
DWIDTH 24 0
BBX 22 26 0 0
BITMAP
1C0000
180000
38FF80
73FFC0
67C3E0
C700F0
0E0078
1E0038
1C0038
1C001C
1C001C
3C001C
38001C
38001C
38001C
38001C
38001C
1C001C
1C001C
1C0038
1E0038
0E0078
0700F0
07C3E0
03FFC0
00FF80
ENDCHAR
STARTCHAR 038E
ENCODING 910
SWIDTH 720 0
DWIDTH 24 0
BBX 24 26 0 0
BITMAP
1C0000
380000
33C007
71C00E
E0E00E
C0E01C
00703C
003838
003870
001C70
001CE0
000FE0
0007C0
000780
000380
000380
000380
000380
000380
000380
000380
000380
000380
000380
000380
000380
ENDCHAR
STARTCHAR 038F
ENCODING 911
SWIDTH 750 0
DWIDTH 25 0
BBX 22 26 0 0
BITMAP
1C0000
380000
30FF00
63FFC0
E7E7E0
CF00F0
0E0078
1E0038
1C0038
1C001C
38001C
38001C
38001C
38001C
38001C
38001C
1C001C
1C0038
1C0038
0E0078
0F0070
0780E0
03C1C0
3FE3FC
3FE3FC
3FE3FC
ENDCHAR
STARTCHAR 0390
ENCODING 912
SWIDTH 300 0
DWIDTH 10 0
BBX 9 32 0 0
BITMAP
0380
0700
0E00
0C00
1800
3800
0000
E380
E380
E380
0000
0000
0000
0000
1800
1800
1800
1800
1800
1800
1800
1800
1800
1800
1800
1800
1800
1800
1C00
1F80
0F80
0780
ENDCHAR
STARTCHAR 0391
ENCODING 913
SWIDTH 600 0
DWIDTH 20 0
BBX 20 24 0 0
BITMAP
00F000
00F000
00F800
01F800
01D800
019C00
039C00
038C00
030E00
070E00
070600
0E0700
0E0700
0E0300
1C0380
1FFF80
1FFFC0
3FFFC0
3801C0
3800E0
7000E0
7000E0
700070
E00070
ENDCHAR
STARTCHAR 0392
ENCODING 914
SWIDTH 600 0
DWIDTH 20 0
BBX 15 24 3 0
BITMAP
FFE0
FFF8
FFF8
E03C
E01C
E01C
E01C
E01C
E01C
E078
FFF0
FFF0
FFF8
E01C
E00E
E00E
E00E
E00E
E00E
E00E
E01E
FFFC
FFF8
FFE0
ENDCHAR
STARTCHAR 0393
ENCODING 915
SWIDTH 510 0
DWIDTH 17 0
BBX 13 24 3 0
BITMAP
FFF8
FFF8
FFF8
E000
E000
E000
E000
E000
E000
E000
E000
E000
E000
E000
E000
E000
E000
E000
E000
E000
E000
E000
E000
E000
ENDCHAR
STARTCHAR 0394
ENCODING 916
SWIDTH 600 0
DWIDTH 20 0
BBX 20 24 0 0
BITMAP
00F000
00F000
00F800
01F800
01D800
019C00
039C00
038C00
030E00
070E00
070600
0E0700
0E0700
0E0300
1C0380
1C0380
1C01C0
3801C0
3801C0
3800E0
7000E0
7FFFE0
7FFFF0
FFFFF0
ENDCHAR
STARTCHAR 0395
ENCODING 917
SWIDTH 570 0
DWIDTH 19 0
BBX 14 24 3 0
BITMAP
FFFC
FFFC
FFFC
E000
E000
E000
E000
E000
E000
E000
FFF8
FFF8
FFF8
E000
E000
E000
E000
E000
E000
E000
E000
FFFC
FFFC
FFFC
ENDCHAR
STARTCHAR 0396
ENCODING 918
SWIDTH 600 0
DWIDTH 20 0
BBX 18 24 1 0
BITMAP
7FFFC0
7FFFC0
7FFFC0
000780
000700
000E00
001E00
001C00
003800
007800
00F000
00E000
01C000
03C000
078000
070000
0E0000
1E0000
1C0000
380000
780000
FFFFC0
FFFFC0
FFFFC0
ENDCHAR
STARTCHAR 0397
ENCODING 919
SWIDTH 660 0
DWIDTH 22 0
BBX 16 24 3 0
BITMAP
E007
E007
E007
E007
E007
E007
E007
E007
E007
E007
FFFF
FFFF
FFFF
E007
E007
E007
E007
E007
E007
E007
E007
E007
E007
E007
ENDCHAR
STARTCHAR 0398
ENCODING 920
SWIDTH 690 0
DWIDTH 23 0
BBX 20 24 2 1
BITMAP
07FC00
0FFF00
1F0F80
3C0380
7801C0
7001E0
F000E0
E000E0
E000E0
E000F0
E7FE70
E7FE70
E7FE70
E00070
E000F0
E000E0
E000E0
F000E0
7001E0
7801C0
3C0380
1F0F80
0FFF00
07FC00
ENDCHAR
STARTCHAR 0399
ENCODING 921
SWIDTH 270 0
DWIDTH 9 0
BBX 3 24 3 0
BITMAP
E0
E0
E0
E0
E0
E0
E0
E0
E0
E0
E0
E0
E0
E0
E0
E0
E0
E0
E0
E0
E0
E0
E0
E0
ENDCHAR
STARTCHAR 039A
ENCODING 922
SWIDTH 570 0
DWIDTH 19 0
BBX 17 24 3 0
BITMAP
E00F00
E01E00
E03C00
E07800
E0F000
E1E000
E3C000
E78000
EF0000
FE0000
FC0000
FC0000
FE0000
EF0000
E78000
E38000
E1C000
E1E000
E0F000
E07800
E03C00
E01E00
E00F00
E00780
ENDCHAR
STARTCHAR 039B
ENCODING 923
SWIDTH 600 0
DWIDTH 20 0
BBX 20 24 0 0
BITMAP
00F000
00F000
00F800
01F800
01D800
019C00
039C00
038C00
030E00
070E00
070600
0E0700
0E0700
0E0300
1C0380
1C0380
1C01C0
3801C0
3801C0
3800E0
7000E0
7000E0
700070
E00070
ENDCHAR
STARTCHAR 039C
ENCODING 924
SWIDTH 780 0
DWIDTH 26 0
BBX 20 24 3 0
BITMAP
F001F0
F801F0
F803F0
F803F0
FC0370
EC0770
EC0770
EE0670
E60E70
E70E70
E70C70
E31C70
E39C70
E39870
E1B870
E1F870
E1F070
E0F070
E0F070
E00070
E00070
E00070
E00070
E00070
ENDCHAR
STARTCHAR 039D
ENCODING 925
SWIDTH 660 0
DWIDTH 22 0
BBX 16 24 3 0
BITMAP
F007
F807
F807
FC07
FC07
EE07
EE07
EE07
E707
E707
E387
E387
E1C7
E1C7
E0E7
E0E7
E077
E077
E03F
E03F
E01F
E01F
E00F
E00F
ENDCHAR
STARTCHAR 039E
ENCODING 926
SWIDTH 570 0
DWIDTH 19 0
BBX 13 24 3 0
BITMAP
FFF8
FFF8
FFF8
0000
0000
0000
0000
0000
0000
0000
7FF0
7FF0
7FF0
0000
0000
0000
0000
0000
0000
0000
0000
FFF8
FFF8
FFF8
ENDCHAR
STARTCHAR 039F
ENCODING 927
SWIDTH 690 0
DWIDTH 23 0
BBX 20 24 2 1
BITMAP
07FC00
0FFF00
1F0F80
3C0380
7801C0
7001E0
F000E0
E000E0
E000E0
E000F0
E00070
E00070
E00070
E00070
E000F0
E000E0
E000E0
F000E0
7001E0
7801C0
3C0380
1F0F80
0FFF00
07FC00
ENDCHAR
STARTCHAR 03A0
ENCODING 928
SWIDTH 660 0
DWIDTH 22 0
BBX 16 24 3 0
BITMAP
FFFF
FFFF
FFFF
E007
E007
E007
E007
E007
E007
E007
E007
E007
E007
E007
E007
E007
E007
E007
E007
E007
E007
E007
E007
E007
ENDCHAR
STARTCHAR 03A1
ENCODING 929
SWIDTH 540 0
DWIDTH 18 0
BBX 14 24 3 0
BITMAP
FFC0
FFF0
FFF8
E078
E03C
E01C
E01C
E01C
E01C
E03C
E038
E0F8
FFF0
FFE0
E000
E000
E000
E000
E000
E000
E000
E000
E000
E000
ENDCHAR
STARTCHAR 03A3
ENCODING 931
SWIDTH 570 0
DWIDTH 19 0
BBX 14 24 3 0
BITMAP
FFFC
FFFC
FFFC
7000
7800
3C00
1C00
0E00
0700
0780
03C0
01C0
0380
0780
0700
0E00
1E00
1C00
3800
7800
F000
FFFC
FFFC
FFFC
ENDCHAR
STARTCHAR 03A4
ENCODING 932
SWIDTH 540 0
DWIDTH 18 0
BBX 18 24 0 0
BITMAP
FFFFC0
FFFFC0
FFFFC0
00E000
00E000
00E000
00E000
00E000
00E000
00E000
00E000
00E000
00E000
00E000
00E000
00E000
00E000
00E000
00E000
00E000
00E000
00E000
00E000
00E000
ENDCHAR
STARTCHAR 03A5
ENCODING 933
SWIDTH 540 0
DWIDTH 18 0
BBX 18 24 0 0
BITMAP
E001C0
700380
380380
380700
1C0E00
1C0E00
0E1C00
073C00
073800
03F000
03F000
01E000
00E000
00E000
00E000
00E000
00E000
00E000
00E000
00E000
00E000
00E000
00E000
00E000
ENDCHAR
STARTCHAR 03A6
ENCODING 934
SWIDTH 690 0
DWIDTH 23 0
BBX 20 24 2 0
BITMAP
00E000
00E000
00E000
07FE00
1FFF00
3EEF80
78E3C0
70E1E0
E0E0E0
E0E0E0
E0E0F0
E0E070
E0E070
E0E0F0
E0E0E0
F0E0E0
70E1E0
78E3C0
3EEF80
1FFF00
07FE00
00E000
00E000
00E000
ENDCHAR
STARTCHAR 03A7
ENCODING 935
SWIDTH 600 0
DWIDTH 20 0
BBX 18 24 1 0
BITMAP
7003C0
380380
3C0700
1C0700
0E0E00
0E1E00
071C00
07B800
03B800
01F000
01F000
01E000
01F000
03F000
03B800
073800
0F1C00
0E1E00
1C0E00
1C0700
380700
780380
7003C0
E001C0
ENDCHAR
STARTCHAR 03A8
ENCODING 936
SWIDTH 690 0
DWIDTH 23 0
BBX 20 24 2 0
BITMAP
E0E070
E0E070
E0E070
E0E070
E0E070
E0E070
E0E070
E0E070
E0E070
E0E0E0
E0E0E0
E0E0E0
70E1E0
70E1C0
38E3C0
3CE780
1FFF00
0FFE00
03F800
00E000
00E000
00E000
00E000
00E000
ENDCHAR
STARTCHAR 03A9
ENCODING 937
SWIDTH 690 0
DWIDTH 23 0
BBX 21 24 1 0
BITMAP
03FC00
07FF00
1FDF80
1E03C0
3C01E0
7800E0
7000F0
700070
700070
E00070
E00070
E00070
E00070
700070
700070
7000F0
7800E0
3801E0
3C01C0
1E0380
0F0780
FF8FF8
FF8FF8
FF8FF8
ENDCHAR
STARTCHAR 03AA
ENCODING 938
SWIDTH 270 0
DWIDTH 9 0
BBX 9 30 0 0
BITMAP
E380
E380
E380
0000
0000
0000
1C00
1C00
1C00
1C00
1C00
1C00
1C00
1C00
1C00
1C00
1C00
1C00
1C00
1C00
1C00
1C00
1C00
1C00
1C00
1C00
1C00
1C00
1C00
1C00
ENDCHAR
STARTCHAR 03AB
ENCODING 939
SWIDTH 540 0
DWIDTH 18 0
BBX 18 30 0 0
BITMAP
073800
073800
073800
000000
000000
000000
E001C0
700380
380380
380700
1C0E00
1C0E00
0E1C00
073C00
073800
03F000
03F000
01E000
00E000
00E000
00E000
00E000
00E000
00E000
00E000
00E000
00E000
00E000
00E000
00E000
ENDCHAR
STARTCHAR 03AC
ENCODING 940
SWIDTH 600 0
DWIDTH 20 0
BBX 16 26 2 0
BITMAP
00E0
00C0
01C0
0380
0300
0600
0000
0000
1FC6
3FE6
78EE
706E
E07C
E03C
E03C
E038
C038
C038
E038
E038
E078
E078
707C
78FF
3FCF
1F87
ENDCHAR
STARTCHAR 03AD
ENCODING 941
SWIDTH 480 0
DWIDTH 16 0
BBX 12 26 2 0
BITMAP
00E0
01C0
0180
0300
0700
0600
0000
0000
3FE0
7FE0
7820
E000
E000
6000
7000
3F80
1F80
7F80
F000
E000
E000
E000
E000
7030
7FF0
1FF0
ENDCHAR
STARTCHAR 03AE
ENCODING 942
SWIDTH 570 0
DWIDTH 19 0
BBX 13 33 3 -7
BITMAP
0070
00E0
01C0
0180
0300
0700
0000
0000
CFE0
DFF0
D870
F038
E038
E038
C018
C018
C018
C018
C018
C018
C018
C018
C018
C018
C018
C018
0018
0018
0018
0018
0018
0018
0018
ENDCHAR
STARTCHAR 03AF
ENCODING 943
SWIDTH 300 0
DWIDTH 10 0
BBX 7 26 2 0
BITMAP
0E
1C
18
38
70
60
00
00
E0
E0
E0
E0
E0
E0
E0
E0
E0
E0
E0
E0
E0
60
70
7E
3E
1E
ENDCHAR
STARTCHAR 03B0
ENCODING 944
SWIDTH 510 0
DWIDTH 17 0
BBX 13 32 2 0
BITMAP
01C0
0180
0300
0700
0600
0C00
0000
31C0
31C0
31C0
0000
0000
0000
0000
E070
E070
E038
E038
E018
E018
E018
E018
E018
E018
E038
E038
E038
E070
6070
71E0
3FC0
1F80
ENDCHAR
STARTCHAR 03B1
ENCODING 945
SWIDTH 600 0
DWIDTH 20 0
BBX 16 18 2 0
BITMAP
1FC6
3FE6
78EE
706E
E07C
E03C
E03C
E038
C038
C038
E038
E038
E078
E078
707C
78FF
3FCF
1F87
ENDCHAR
STARTCHAR 03B2
ENCODING 946
SWIDTH 570 0
DWIDTH 19 0
BBX 14 32 3 -7
BITMAP
1FC0
7FE0
78F0
E070
E030
E030
C030
C070
C070
C0F0
C1E0
CFC0
CFE0
CFF0
C038
C038
C01C
C01C
C01C
C01C
E01C
F038
F878
FFF0
DFE0
C000
C000
C000
C000
C000
C000
C000
ENDCHAR
STARTCHAR 03B3
ENCODING 947
SWIDTH 540 0
DWIDTH 18 0
BBX 16 25 0 -7
BITMAP
F003
F807
F807
1806
1C0E
1C0E
0C1C
0E1C
0E1C
0638
0738
0730
0370
03F0
03E0
01E0
01E0
01C0
01C0
01C0
01C0
01C0
01C0
01C0
01C0
ENDCHAR
STARTCHAR 03B4
ENCODING 948
SWIDTH 540 0
DWIDTH 18 0
BBX 15 24 2 1
BITMAP
1FF0
3FF8
7818
7000
7000
3C00
3F80
1FE0
39F0
7078
603C
E01C
E01C
E00C
C00E
C00E
E00E
E01C
E01C
E01C
7038
7878
3FF0
1FE0
ENDCHAR
STARTCHAR 03B5
ENCODING 949
SWIDTH 480 0
DWIDTH 16 0
BBX 12 18 2 1
BITMAP
3FE0
7FE0
7820
E000
E000
6000
7000
3F80
1F80
7F80
F000
E000
E000
E000
E000
7030
7FF0
1FF0
ENDCHAR
STARTCHAR 03B6
ENCODING 950
SWIDTH 480 0
DWIDTH 16 0
BBX 13 32 2 -7
BITMAP
FFF8
FFF8
FFF8
01F0
03C0
0780
0E00
1C00
3800
7800
7000
E000
E000
E000
C000
C000
C000
C000
C000
E000
E000
7000
7C00
3FE0
0FF0
00F0
0038
0038
0038
00F0
00F0
00C0
ENDCHAR
STARTCHAR 03B7
ENCODING 951
SWIDTH 570 0
DWIDTH 19 0
BBX 13 25 3 -7
BITMAP
CFE0
DFF0
D870
F038
E038
E038
C018
C018
C018
C018
C018
C018
C018
C018
C018
C018
C018
C018
0018
0018
0018
0018
0018
0018
0018
ENDCHAR
STARTCHAR 03B8
ENCODING 952
SWIDTH 540 0
DWIDTH 18 0
BBX 15 25 2 0
BITMAP
0FC0
1FE0
3C70
7038
7038
601C
E01C
E01C
E01C
E00C
E00C
FFFE
FFFE
FFFE
E00C
E00C
E01C
E01C
E01C
601C
7038
7038
3C70
1FE0
0FC0
ENDCHAR
STARTCHAR 03B9
ENCODING 953
SWIDTH 300 0
DWIDTH 10 0
BBX 7 18 2 0
BITMAP
E0
E0
E0
E0
E0
E0
E0
E0
E0
E0
E0
E0
E0
60
70
7E
3E
1E
ENDCHAR
STARTCHAR 03BA
ENCODING 954
SWIDTH 540 0
DWIDTH 18 0
BBX 13 18 3 0
BITMAP
E070
E0E0
E1C0
E380
E780
EF00
FE00
FE00
FF00
F700
E380
E3C0
E1C0
E0E0
E0E0
E070
E038
E038
ENDCHAR
STARTCHAR 03BB
ENCODING 955
SWIDTH 540 0
DWIDTH 18 0
BBX 16 25 1 0
BITMAP
3C00
3F00
0F00
0700
0380
0380
0180
01C0
01C0
03C0
03E0
07E0
0760
0770
0E70
0E30
1C38
1C38
1818
381C
381C
700E
700E
E00E
E007
ENDCHAR
STARTCHAR 03BC
ENCODING 956
SWIDTH 570 0
DWIDTH 19 0
BBX 15 25 3 -7
BITMAP
C038
C038
C038
C038
C038
C038
C038
C038
C038
C038
C038
C038
C038
E038
E078
F0FC
FFDE
DF9E
C000
C000
C000
C000
C000
C000
C000
ENDCHAR
STARTCHAR 03BD
ENCODING 957
SWIDTH 510 0
DWIDTH 17 0
BBX 14 18 1 0
BITMAP
E030
E038
7018
701C
701C
301C
381C
381C
381C
1C1C
1C38
1C38
0C70
0EE0
0EE0
0FC0
0780
0700
ENDCHAR
STARTCHAR 03BE
ENCODING 958
SWIDTH 510 0
DWIDTH 17 0
BBX 13 32 2 -7
BITMAP
FFF0
FFF0
FFF0
3E00
7000
6000
E000
E000
E000
7000
7E00
3FC0
1FC0
3FC0
7000
E000
E000
C000
C000
C000
E000
F000
7800
3FE0
1FF0
0078
0038
0038
0038
0070
00F0
00C0
ENDCHAR
STARTCHAR 03BF
ENCODING 959
SWIDTH 540 0
DWIDTH 18 0
BBX 15 18 2 0
BITMAP
1FE0
3FF0
7878
7038
E01C
E01C
E01C
E00C
C00E
C00E
E00C
E01C
E01C
E01C
7038
7878
3FF0
1FE0
ENDCHAR
STARTCHAR 03C0
ENCODING 960
SWIDTH 540 0
DWIDTH 18 0
BBX 16 19 1 -1
BITMAP
FFFF
FFFF
FFFF
381C
381C
381C
381C
381C
381C
381C
381C
381C
381C
381C
381C
381C
381F
381F
0006
ENDCHAR
STARTCHAR 03C1
ENCODING 961
SWIDTH 570 0
DWIDTH 19 0
BBX 14 25 3 -7
BITMAP
1FE0
3FF0
7878
7038
E01C
E01C
E01C
C01C
C01C
C01C
C01C
E01C
E01C
E01C
F038
F878
DFF0
CFE0
C000
C000
C000
C000
C000
C000
C000
ENDCHAR
STARTCHAR 03C2
ENCODING 962
SWIDTH 510 0
DWIDTH 17 0
BBX 12 25 2 -7
BITMAP
0FF0
3FF0
7C10
7000
E000
E000
E000
E000
C000
C000
E000
E000
E000
E000
7000
7C00
3FC0
0FE0
00F0
0070
0030
0070
00F0
00E0
00C0
ENDCHAR
STARTCHAR 03C3
ENCODING 963
SWIDTH 570 0
DWIDTH 19 0
BBX 16 18 2 0
BITMAP
0FFF
3FFF
7CFF
7038
E01C
E01C
E01C
E00C
C00E
C00E
E00C
E01C
E01C
E01C
7038
7878
3FF0
1FE0
ENDCHAR
STARTCHAR 03C4
ENCODING 964
SWIDTH 540 0
DWIDTH 18 0
BBX 15 18 1 0
BITMAP
FFFE
FFFE
FFFE
0180
0180
0180
0180
0180
0180
0180
0180
0180
0180
0180
01C0
01F8
00F8
0078
ENDCHAR
STARTCHAR 03C5
ENCODING 965
SWIDTH 510 0
DWIDTH 17 0
BBX 13 18 2 0
BITMAP
E070
E070
E038
E038
E018
E018
E018
E018
E018
E018
E038
E038
E038
E070
6070
71E0
3FC0
1F80
ENDCHAR
STARTCHAR 03C6
ENCODING 966
SWIDTH 600 0
DWIDTH 20 0
BBX 16 25 2 -7
BITMAP
08F0
39F8
79FC
738E
E38E
E387
E387
E387
C387
C387
C387
E387
E387
E38E
739E
7BBC
3FF8
1FF0
0380
0380
0380
0380
0380
0380
0380
ENDCHAR
STARTCHAR 03C7
ENCODING 967
SWIDTH 510 0
DWIDTH 17 0
BBX 15 25 1 -7
BITMAP
E00E
F81E
F81C
1C3C
0C38
0C78
0E70
06F0
07E0
07E0
03C0
03C0
0380
0780
07C0
0FC0
0EC0
1EE0
1CE0
1C60
3870
3870
703E
703E
E00E
ENDCHAR
STARTCHAR 03C8
ENCODING 968
SWIDTH 600 0
DWIDTH 20 0
BBX 16 25 2 -7
BITMAP
C387
C387
C387
C387
C387
C387
C387
C387
C387
C387
C387
C387
E387
E387
F38E
7BBE
3FFC
1FF0
0380
0380
0380
0380
0380
0380
0380
ENDCHAR
STARTCHAR 03C9
ENCODING 969
SWIDTH 750 0
DWIDTH 25 0
BBX 21 18 2 0
BITMAP
3800E0
3000E0
700070
700070
700070
E00070
E00038
E07038
E07038
E07038
E07038
E07038
E07078
F0F070
70F870
79D8F0
3FDFE0
1F8FC0
ENDCHAR
STARTCHAR 03CA
ENCODING 970
SWIDTH 300 0
DWIDTH 10 0
BBX 9 25 0 0
BITMAP
E380
E380
E380
0000
0000
0000
0000
1800
1800
1800
1800
1800
1800
1800
1800
1800
1800
1800
1800
1800
1800
1C00
1F80
0F80
0780
ENDCHAR
STARTCHAR 03CB
ENCODING 971
SWIDTH 510 0
DWIDTH 17 0
BBX 13 25 2 0
BITMAP
31C0
31C0
31C0
0000
0000
0000
0000
E070
E070
E038
E038
E018
E018
E018
E018
E018
E018
E038
E038
E038
E070
6070
71E0
3FC0
1F80
ENDCHAR
STARTCHAR 03CC
ENCODING 972
SWIDTH 540 0
DWIDTH 18 0
BBX 15 26 2 0
BITMAP
0070
00E0
01C0
0180
0300
0700
0000
0000
1FE0
3FF0
7878
7038
E01C
E01C
E01C
E00C
C00E
C00E
E00C
E01C
E01C
E01C
7038
7878
3FF0
1FE0
ENDCHAR
STARTCHAR 03CD
ENCODING 973
SWIDTH 510 0
DWIDTH 17 0
BBX 13 26 2 0
BITMAP
01C0
0180
0380
0700
0600
0C00
0000
0000
E070
E070
E038
E038
E018
E018
E018
E018
E018
E018
E038
E038
E038
E070
6070
71E0
3FC0
1F80
ENDCHAR
STARTCHAR 03CE
ENCODING 974
SWIDTH 750 0
DWIDTH 25 0
BBX 21 26 2 0
BITMAP
000E00
001C00
003800
003000
007000
00E000
000000
000000
3800E0
3000E0
700070
700070
700070
E00070
E00038
E07038
E07038
E07038
E07038
E07038
E07078
F0F070
70F870
79D8F0
3FDFE0
1F8FC0
ENDCHAR
STARTCHAR 03CF
ENCODING 975
SWIDTH 570 0
DWIDTH 19 0
BBX 17 31 3 -7
BITMAP
E00F00
E01E00
E03C00
E07800
E0F000
E1E000
E3C000
E78000
EF0000
FE0000
FC0000
FC0000
FE0000
EF0000
E78000
E38000
E1C000
E1E000
E0F000
E07800
E03C00
E01E00
E00F00
E00780
000380
000700
000600
000C00
001C00
001800
003000
ENDCHAR
STARTCHAR 03D0
ENCODING 976
SWIDTH 540 0
DWIDTH 18 0
BBX 14 25 2 0
BITMAP
0FC0
1FE0
3C70
3830
7038
7038
7038
6038
6070
6070
E1E0
FFE0
FFE0
F0F0
E038
E018
601C
601C
701C
701C
701C
3838
3C78
1FF0
0FE0
ENDCHAR
STARTCHAR 03D1
ENCODING 977
SWIDTH 540 0
DWIDTH 18 0
BBX 15 25 2 0
BITMAP
07E0
0FF0
1E70
1C38
3818
381C
381C
381C
180C
1C0C
1F0C
CFFE
C7FE
C01E
C00C
C00C
E00C
E01C
E01C
601C
7038
7038
3C70
1FE0
0FC0
ENDCHAR
STARTCHAR 03D2
ENCODING 978
SWIDTH 630 0
DWIDTH 21 0
BBX 19 24 1 0
BITMAP
F803C0
FE0FC0
FF1FE0
0F1DE0
07B9C0
03B800
03F000
01F000
01E000
01E000
00E000
00E000
00E000
00E000
00E000
00E000
00E000
00E000
00E000
00E000
00E000
00E000
00E000
00E000
ENDCHAR
STARTCHAR 03D3
ENCODING 979
SWIDTH 750 0
DWIDTH 25 0
BBX 25 26 0 0
BITMAP
1C000000
38000000
33E00F00
73F83F00
E3F87F80
C03C7780
001CE700
000EC000
000FC000
0007C000
00078000
00078000
00078000
00038000
00038000
00038000
00038000
00038000
00038000
00038000
00038000
00038000
00038000
00038000
00038000
00038000
ENDCHAR
STARTCHAR 03D4
ENCODING 980
SWIDTH 630 0
DWIDTH 21 0
BBX 19 30 1 0
BITMAP
071C00
071C00
071C00
000000
000000
000000
F803C0
FE0FC0
FF1FE0
0F1DE0
07B9C0
03B800
03F000
01F000
01E000
01E000
00E000
00E000
00E000
00E000
00E000
00E000
00E000
00E000
00E000
00E000
00E000
00E000
00E000
00E000
ENDCHAR
STARTCHAR 03D5
ENCODING 981
SWIDTH 600 0
DWIDTH 20 0
BBX 16 32 2 -7
BITMAP
0380
0380
0380
0380
0380
0380
0380
1FF0
3FF8
7BBC
738E
E38E
E387
E387
E387
C387
C387
E387
E387
E387
E38E
738E
7BBC
3FF8
1FF0
0380
0380
0380
0380
0380
0380
0380
ENDCHAR
STARTCHAR 03D6
ENCODING 982
SWIDTH 750 0
DWIDTH 25 0
BBX 23 18 1 0
BITMAP
FFFFFE
FFFFFE
FFFFFE
380038
380038
700038
70001C
70381C
70381C
70381C
70381C
70381C
70383C
783838
387C38
3CEC78
1FEFF0
0FC7E0
ENDCHAR
STARTCHAR 03D7
ENCODING 983
SWIDTH 600 0
DWIDTH 20 0
BBX 16 25 2 -7
BITMAP
F803
FC0F
FE0F
8E1E
063C
063C
0678
06F0
0FE0
0FE0
0E60
1C60
3C60
7860
F862
F07E
E03E
C01E
0006
000E
000C
001C
01FC
01F8
00E0
ENDCHAR
STARTCHAR 03D8
ENCODING 984
SWIDTH 690 0
DWIDTH 23 0
BBX 20 31 2 -6
BITMAP
07FC00
0FFF00
1F0F80
3C0380
7801C0
7001E0
F000E0
E000E0
E000E0
E000F0
E00070
E00070
E00070
E00070
E000F0
E000E0
E000E0
F000E0
7001E0
7801C0
3C0380
1F0F80
0FFF00
07FC00
00E000
00E000
00E000
00E000
00E000
00E000
00E000
ENDCHAR
STARTCHAR 03D9
ENCODING 985
SWIDTH 540 0
DWIDTH 18 0
BBX 15 25 2 -7
BITMAP
1FE0
3FF0
7878
7038
E01C
E01C
E01C
E00C
C00E
C00E
E00C
E01C
E01C
E01C
7038
7878
3FF0
1FE0
0300
0300
0300
0300
0300
0300
0300
ENDCHAR
STARTCHAR 03DA
ENCODING 986
SWIDTH 570 0
DWIDTH 19 0
BBX 15 31 2 -7
BITMAP
03FE
0FFE
1FFE
3C00
3800
7000
7000
7000
E000
E000
E000
E000
E000
E000
E000
E000
E000
7000
7000
7000
3800
3E00
1FE0
07F0
0078
0038
0018
0038
0078
0070
0060
ENDCHAR
STARTCHAR 03DB
ENCODING 987
SWIDTH 510 0
DWIDTH 17 0
BBX 14 25 2 -7
BITMAP
07FC
1FFC
3F00
7000
F000
E000
E000
E000
C000
C000
E000
E000
E000
E000
7000
7800
3F80
0FC0
01E0
00E0
0060
00E0
01E0
01C0
0180
ENDCHAR
STARTCHAR 03DC
ENCODING 988
SWIDTH 510 0
DWIDTH 17 0
BBX 12 24 3 0
BITMAP
FFF0
FFF0
FFF0
E000
E000
E000
E000
E000
E000
E000
FFE0
FFE0
FFE0
E000
E000
E000
E000
E000
E000
E000
E000
E000
E000
E000
ENDCHAR
STARTCHAR 03DD
ENCODING 989
SWIDTH 420 0
DWIDTH 14 0
BBX 15 32 -3 -7
BITMAP
003E
00FE
00E2
01C0
0180
0380
0380
0380
0380
0380
0380
03FC
03FC
03FC
0380
0380
0380
0380
0380
0380
0380
0380
0380
0380
0380
0380
0380
0380
0700
FF00
FE00
7800
ENDCHAR
STARTCHAR 03DE
ENCODING 990
SWIDTH 600 0
DWIDTH 20 0
BBX 15 24 3 0
BITMAP
E000
F000
F800
3800
1800
1800
3802
380C
303C
30FC
71FC
77D8
7F38
7C38
F030
E030
8070
0070
0060
0060
0070
007C
007C
001C
ENDCHAR
STARTCHAR 03DF
ENCODING 991
SWIDTH 600 0
DWIDTH 20 0
BBX 14 25 3 0
BITMAP
0C00
1C00
1C00
1800
3800
3800
3800
3000
7000
7000
6000
FFFC
FFF8
FFF8
0038
0030
0030
0070
0070
0060
00E0
00E0
00C0
00C0
01C0
ENDCHAR
STARTCHAR 03E0
ENCODING 992
SWIDTH 780 0
DWIDTH 26 0
BBX 22 31 2 -6
BITMAP
1FFC00
7FFF00
FE1F80
EE07C0
8E01E0
8E00E0
0E00F0
0E01F0
0E03F0
0E0738
0E0E38
0E0C38
0E1C38
001C38
001C1C
001C1C
001C1C
001C1C
001C1C
001C1C
001C3C
001C38
001C38
001C38
000038
000078
000070
000070
0000E0
0000E0
0001C0
ENDCHAR
STARTCHAR 03E1
ENCODING 993
SWIDTH 570 0
DWIDTH 19 0
BBX 15 24 2 -6
BITMAP
F000
FC00
3E00
0F00
0380
01C0
01C0
01E0
03E0
0370
0730
0E78
0C78
1CD8
39DC
738C
630C
E70C
000E
000E
000E
000E
0006
0006
ENDCHAR
STARTCHAR 03E2
ENCODING 994
SWIDTH 840 0
DWIDTH 28 0
BBX 24 31 2 -7
BITMAP
1C0078
3C0038
38003C
78001C
70001E
70000E
70000E
E0000E
E00007
E00007
E03807
E03807
E03807
E03807
E03807
E03807
E03C07
E03C0F
F07C0E
787E1E
7FEFFE
7FE7FE
3FC7FC
1F83F8
0000F8
0001F0
0007E0
001F80
007F00
00FC00
00E000
ENDCHAR
STARTCHAR 03E3
ENCODING 995
SWIDTH 750 0
DWIDTH 25 0
BBX 21 25 2 -7
BITMAP
3800E0
7000E0
700070
700070
F00070
E00070
E00038
E07038
E07038
E07038
E07038
E07038
E07078
F0F870
79DCF0
7FDFF0
3F9FE0
1F07C0
0003C0
000780
000F00
001E00
00F800
03F000
018000
ENDCHAR
STARTCHAR 03E4
ENCODING 996
SWIDTH 690 0
DWIDTH 23 0
BBX 18 31 2 -6
BITMAP
0783C0
0F83C0
1E03C0
3C03C0
7803C0
7003C0
7003C0
F003C0
E003C0
E003C0
E003C0
E003C0
E003C0
E003C0
E003C0
E003C0
F003C0
F003C0
7007C0
780FC0
3C1FC0
3FFFC0
1FFBC0
0FF3C0
0003C0
0003C0
0003C0
0003C0
0003C0
0003C0
0003C0
ENDCHAR
STARTCHAR 03E5
ENCODING 997
SWIDTH 600 0
DWIDTH 20 0
BBX 15 25 2 -7
BITMAP
0E0E
3E0E
380E
700E
600E
E00E
E00E
E00E
C00E
C00E
C00E
E00E
E00E
E01E
701E
783E
3FEE
1FCE
000E
000E
000E
000E
000E
000E
000E
ENDCHAR
STARTCHAR 03E6
ENCODING 998
SWIDTH 720 0
DWIDTH 24 0
BBX 19 31 3 -7
BITMAP
E00000
E00000
E00000
E00000
E00000
E00000
E3FC00
EFFE00
EFFF00
FC0F80
F807C0
F003C0
E001C0
E001E0
E001E0
E000E0
E000E0
E001E0
E001E0
E001E0
E001C0
E003C0
E003C0
E00780
000F00
001F00
007E00
01F800
07F000
1FC000
0E0000
ENDCHAR
STARTCHAR 03E7
ENCODING 999
SWIDTH 540 0
DWIDTH 18 0
BBX 16 19 1 0
BITMAP
0002
0FE7
1FF7
3CFE
703E
701C
703E
70FE
3FEE
3FC6
0F07
0007
0007
0006
000E
000E
FC3C
FFFC
CFF0
ENDCHAR
STARTCHAR 03E8
ENCODING 1000
SWIDTH 600 0
DWIDTH 20 0
BBX 18 32 1 -7
BITMAP
00C000
07FC00
0FFE00
1FFF00
3C0F80
780780
780380
7003C0
0003C0
0003C0
0003C0
000380
000380
000780
000F00
001E00
003C00
007800
00F000
01E000
03C000
078000
1F0000
3E0000
7C0000
F80000
780080
3C0180
1F0F80
0FFF80
07FE00
00F000
ENDCHAR
STARTCHAR 03E9
ENCODING 1001
SWIDTH 540 0
DWIDTH 18 0
BBX 14 25 2 -7
BITMAP
1FE0
3FF8
7878
703C
E01C
001C
000C
001C
001C
001C
0038
0070
00F0
01E0
0780
0F00
1E00
7C00
F000
E000
7000
380C
1FFC
0FF8
03C0
ENDCHAR
STARTCHAR 03EA
ENCODING 1002
SWIDTH 690 0
DWIDTH 23 0
BBX 19 24 2 0
BITMAP
F001E0
F803E0
FC07E0
1C0700
0E0E00
0F1E00
071C00
03B800
03B800
01F000
01F000
00E000
01F000
03F000
03B800
073C00
071C00
0E0E00
1E0E00
1C0700
380780
FFFFE0
FFFFE0
FFFFE0
ENDCHAR
STARTCHAR 03EB
ENCODING 1003
SWIDTH 570 0
DWIDTH 19 0
BBX 17 18 1 0
BITMAP
F80F80
F81F80
1C1C00
0E3800
0E7800
077000
03E000
03E000
03C000
03E000
07E000
0F7000
0E3800
1C3800
3C1C00
FFFF80
FFFF80
FFFF80
ENDCHAR
STARTCHAR 03EC
ENCODING 1004
SWIDTH 630 0
DWIDTH 21 0
BBX 17 25 2 0
BITMAP
000080
07FF80
1FFF80
3FFC00
780000
700000
700000
E7F800
EFFC00
FE3E00
F80F00
F00700
E00780
E00380
E00380
E00380
E00380
E00380
E00380
E00780
700700
780F00
3E3E00
1FFC00
0FF800
ENDCHAR
STARTCHAR 03ED
ENCODING 1005
SWIDTH 540 0
DWIDTH 18 0
BBX 14 25 2 0
BITMAP
0008
0FF8
3FF8
3E00
7000
6000
E000
EFE0
FFF0
F878
F038
E01C
E01C
C01C
C01C
C01C
C01C
C01C
C01C
E01C
E018
7038
7878
3FF0
1FE0
ENDCHAR
STARTCHAR 03EE
ENCODING 1006
SWIDTH 540 0
DWIDTH 18 0
BBX 17 31 1 -7
BITMAP
01C000
01C000
01C000
01C000
01C000
01C000
FFFF80
FFFF80
FFFF80
E1C380
01C000
01C000
01C000
01C000
01C000
01C000
01C000
01C000
01C000
01C000
01C000
01C000
01C000
01C000
01C000
01C000
01C000
01C000
01C000
01C000
01C000
ENDCHAR
STARTCHAR 03EF
ENCODING 1007
SWIDTH 480 0
DWIDTH 16 0
BBX 14 31 1 -7
BITMAP
0300
0300
0300
0300
0300
0300
FFFC
FFFC
C30C
C30C
0300
0300
0300
0300
0300
0300
0300
0300
0300
0300
0300
0300
0300
0300
0300
0300
0300
0300
0300
0300
0300
ENDCHAR
STARTCHAR 03F0
ENCODING 1008
SWIDTH 600 0
DWIDTH 20 0
BBX 16 18 2 0
BITMAP
F803
FC0F
FE0F
8E1E
063C
063C
0678
06F0
0FE0
0FE0
0EE0
1CE0
3CE0
78E0
F862
F07E
E07E
C01E
ENDCHAR
STARTCHAR 03F1
ENCODING 1009
SWIDTH 570 0
DWIDTH 19 0
BBX 14 25 3 -7
BITMAP
1FE0
3FF0
7878
7038
E01C
E01C
E01C
C01C
C01C
C01C
C01C
E01C
E01C
E01C
F038
F878
DFF0
EFE0
E000
E000
7000
7800
3FFC
1FFC
07FC
ENDCHAR
STARTCHAR 03F2
ENCODING 1010
SWIDTH 480 0
DWIDTH 16 0
BBX 12 18 2 0
BITMAP
0FF0
3FF0
7C10
7000
E000
E000
E000
E000
C000
C000
E000
E000
E000
E000
7000
7C30
3FF0
0FF0
ENDCHAR
STARTCHAR 03F3
ENCODING 1011
SWIDTH 240 0
DWIDTH 8 0
BBX 6 32 -1 -7
BITMAP
0C
0C
0C
0C
00
00
00
0C
0C
0C
0C
0C
0C
0C
0C
0C
0C
0C
0C
0C
0C
0C
0C
0C
0C
0C
0C
0C
1C
FC
F8
F0
ENDCHAR
STARTCHAR 03F4
ENCODING 1012
SWIDTH 690 0
DWIDTH 23 0
BBX 20 24 2 1
BITMAP
07FC00
0FFF00
1F0F80
3C0380
7801C0
7001E0
F000E0
E000E0
E000E0
E000F0
FFFFF0
FFFFF0
FFFFF0
E00070
E000F0
E000E0
E000E0
F000E0
7001E0
7801C0
3C0380
1F0F80
0FFF00
07FC00
ENDCHAR
STARTCHAR 03F5
ENCODING 1013
SWIDTH 540 0
DWIDTH 18 0
BBX 12 18 2 0
BITMAP
0FF0
3FF0
3C10
7000
E000
E000
E000
C000
FFF0
FFF0
C000
E000
E000
E000
7000
3C10
3FF0
0FF0
ENDCHAR
STARTCHAR 03F6
ENCODING 1014
SWIDTH 540 0
DWIDTH 18 0
BBX 12 18 3 0
BITMAP
FF00
FFC0
83E0
00E0
0070
0070
0070
0030
FFF0
FFF0
0030
0070
0070
0070
00E0
83E0
FFC0
FF00
ENDCHAR
STARTCHAR 03F7
ENCODING 1015
SWIDTH 540 0
DWIDTH 18 0
BBX 14 24 3 0
BITMAP
E000
E000
E000
E000
FF80
FFE0
FFF0
E078
E038
E01C
E01C
E01C
E01C
E03C
E038
E078
FFF0
FFE0
FE00
E000
E000
E000
E000
E000
ENDCHAR
STARTCHAR 03F8
ENCODING 1016
SWIDTH 570 0
DWIDTH 19 0
BBX 14 32 3 -7
BITMAP
C000
C000
C000
C000
C000
C000
C000
CFE0
DFF0
F878
F038
E01C
E01C
E01C
C01C
C01C
C01C
C01C
E01C
E01C
E01C
F038
F878
DFF0
CFE0
C000
C000
C000
C000
C000
C000
C000
ENDCHAR
STARTCHAR 03F9
ENCODING 1017
SWIDTH 630 0
DWIDTH 21 0
BBX 17 24 2 1
BITMAP
03FE00
0FFF80
1F0780
3C0180
780080
700000
F00000
E00000
E00000
E00000
E00000
E00000
E00000
E00000
E00000
E00000
E00000
F00000
700000
780080
3C0180
1F0780
0FFF80
03FE00
ENDCHAR
STARTCHAR 03FA
ENCODING 1018
SWIDTH 780 0
DWIDTH 26 0
BBX 20 24 3 0
BITMAP
F801F0
F803F0
FC07F0
FE0770
EF0F70
E71E70
E79C70
E3FC70
E1F870
E1F070
E0E070
E00070
E00070
E00070
E00070
E00070
E00070
E00070
E00070
E00070
E00070
E00070
E00070
E00070
ENDCHAR
STARTCHAR 03FB
ENCODING 1019
SWIDTH 570 0
DWIDTH 19 0
BBX 15 25 2 -7
BITMAP
F01E
F83E
F83E
FC76
EE76
EEE6
E7E6
E7C6
E386
E006
E006
E006
E006
E006
E006
E006
E006
E006
E000
E000
E000
E000
E000
E000
E000
ENDCHAR
STARTCHAR 03FC
ENCODING 1020
SWIDTH 570 0
DWIDTH 19 0
BBX 16 25 1 -7
BITMAP
07F8
0FFC
1E1E
1C0E
3807
3807
3807
3007
3007
3007
3007
3807
3807
3807
3C0E
3E1E
37FC
33F8
3000
3000
FFE0
FFE0
FFE0
3000
3000
ENDCHAR
STARTCHAR 03FD
ENCODING 1021
SWIDTH 630 0
DWIDTH 21 0
BBX 17 24 2 1
BITMAP
3FE000
FFF800
F07C00
C01E00
800E00
000700
000700
000780
000380
000380
000380
000380
000380
000380
000380
000380
000780
000700
000700
800E00
C01E00
F07C00
FFF800
3FE000
ENDCHAR
STARTCHAR 03FE
ENCODING 1022
SWIDTH 630 0
DWIDTH 21 0
BBX 17 24 2 1
BITMAP
03FE00
0FFF80
1F0780
3C0180
780080
700000
F00000
E00000
E00000
E00000
E07000
E07000
E07000
E07000
E07000
E00000
E00000
F00000
700000
780080
3C0180
1F0780
0FFF80
03FE00
ENDCHAR
STARTCHAR 03FF
ENCODING 1023
SWIDTH 630 0
DWIDTH 21 0
BBX 17 24 2 1
BITMAP
3FE000
FFF800
F07C00
C01E00
800E00
000700
000700
000780
000380
000380
0F0380
0F0380
0F0380
0F0380
0F0380
000380
000780
000700
000700
800E00
C01E00
F07C00
FFF800
3FE000
ENDCHAR
STARTCHAR 0400
ENCODING 1024
SWIDTH 570 0
DWIDTH 19 0
BBX 14 31 3 0
BITMAP
0E00
0700
0300
0180
00C0
0000
0000
FFFC
FFFC
FFFC
E000
E000
E000
E000
E000
E000
E000
FFF8
FFF8
FFF8
E000
E000
E000
E000
E000
E000
E000
E000
FFFC
FFFC
FFFC
ENDCHAR
STARTCHAR 0401
ENCODING 1025
SWIDTH 570 0
DWIDTH 19 0
BBX 14 30 3 0
BITMAP
38E0
38E0
38E0
0000
0000
0000
FFFC
FFFC
FFFC
E000
E000
E000
E000
E000
E000
E000
FFF8
FFF8
FFF8
E000
E000
E000
E000
E000
E000
E000
E000
FFFC
FFFC
FFFC
ENDCHAR
STARTCHAR 0402
ENCODING 1026
SWIDTH 690 0
DWIDTH 23 0
BBX 21 31 0 -7
BITMAP
FFFF80
FFFF80
FFFF80
038000
038000
038000
038000
038000
038000
038000
03FFC0
03FFE0
03FFF0
038070
038038
038038
038038
038038
038038
038038
038038
038038
038038
038038
000038
000038
000078
0000F0
0003F0
0003E0
000300
ENDCHAR
STARTCHAR 0403
ENCODING 1027
SWIDTH 540 0
DWIDTH 18 0
BBX 13 31 3 0
BITMAP
00C0
01C0
0380
0300
0600
0000
0000
FFF8
FFF8
FFF8
E000
E000
E000
E000
E000
E000
E000
E000
E000
E000
E000
E000
E000
E000
E000
E000
E000
E000
E000
E000
E000
ENDCHAR
STARTCHAR 0404
ENCODING 1028
SWIDTH 630 0
DWIDTH 21 0
BBX 17 24 2 1
BITMAP
07FE00
0FFF80
1F0780
3C0180
780080
700000
F00000
E00000
E00000
E00000
E00000
FFFC00
FFFC00
E00000
E00000
E00000
E00000
F00000
700000
780080
3C0180
1F0780
0FFF80
03FE00
ENDCHAR
STARTCHAR 0405
ENCODING 1029
SWIDTH 570 0
DWIDTH 19 0
BBX 15 24 2 1
BITMAP
1FF8
3FFC
7C3C
F004
E000
E000
E000
E000
F000
7C00
7FC0
3FF0
0FF8
007C
001E
000E
000E
000E
000E
000E
C01E
F07C
FFF8
3FF0
ENDCHAR
STARTCHAR 0406
ENCODING 1030
SWIDTH 270 0
DWIDTH 9 0
BBX 3 24 3 0
BITMAP
E0
E0
E0
E0
E0
E0
E0
E0
E0
E0
E0
E0
E0
E0
E0
E0
E0
E0
E0
E0
E0
E0
E0
E0
ENDCHAR
STARTCHAR 0407
ENCODING 1031
SWIDTH 270 0
DWIDTH 9 0
BBX 9 30 0 0
BITMAP
E380
E380
E380
0000
0000
0000
1C00
1C00
1C00
1C00
1C00
1C00
1C00
1C00
1C00
1C00
1C00
1C00
1C00
1C00
1C00
1C00
1C00
1C00
1C00
1C00
1C00
1C00
1C00
1C00
ENDCHAR
STARTCHAR 0408
ENCODING 1032
SWIDTH 270 0
DWIDTH 9 0
BBX 8 31 -2 -7
BITMAP
07
07
07
07
07
07
07
07
07
07
07
07
07
07
07
07
07
07
07
07
07
07
07
07
07
07
0E
1E
FC
FC
E0
ENDCHAR
STARTCHAR 0409
ENCODING 1033
SWIDTH 960 0
DWIDTH 32 0
BBX 29 24 1 0
BITMAP
03FFC000
03FFC000
03FFC000
0301C000
0301C000
0701C000
0701C000
0701C000
0701C000
0701C000
0701FFC0
0701FFE0
0701FFF0
0701C078
0701C038
0701C038
0701C038
0E01C038
0E01C038
1E01C038
3C01C078
F801FFF0
F001FFE0
C001FF80
ENDCHAR
STARTCHAR 040A
ENCODING 1034
SWIDTH 930 0
DWIDTH 31 0
BBX 26 24 3 0
BITMAP
E00E0000
E00E0000
E00E0000
E00E0000
E00E0000
E00E0000
E00E0000
E00E0000
E00E0000
E00E0000
FFFFFC00
FFFFFF00
FFFFFF80
E00E0380
E00E03C0
E00E01C0
E00E01C0
E00E01C0
E00E01C0
E00E03C0
E00E0780
E00FFF80
E00FFF00
E00FFC00
ENDCHAR
STARTCHAR 040B
ENCODING 1035
SWIDTH 690 0
DWIDTH 23 0
BBX 21 24 0 0
BITMAP
FFFF80
FFFF80
FFFF80
038000
038000
038000
038000
038000
038000
038000
03FFC0
03FFE0
03FFF0
038070
038038
038038
038038
038038
038038
038038
038038
038038
038038
038038
ENDCHAR
STARTCHAR 040C
ENCODING 1036
SWIDTH 630 0
DWIDTH 21 0
BBX 17 31 3 0
BITMAP
006000
00E000
01C000
018000
030000
000000
000000
E00780
E00F00
E01E00
E03C00
E07800
E0F000
E0E000
E1C000
E3C000
E78000
EF8000
FFC000
FDE000
F8E000
F07000
E07000
E03800
E03C00
E01C00
E00E00
E00E00
E00700
E00780
E00380
ENDCHAR
STARTCHAR 040D
ENCODING 1037
SWIDTH 660 0
DWIDTH 22 0
BBX 16 31 3 0
BITMAP
0E00
0700
0300
0180
01C0
0000
0000
E00F
E00F
E01F
E01F
E03F
E03F
E077
E077
E0E7
E0E7
E1C7
E1C7
E387
E387
E707
E707
EE07
EE07
FE07
FC07
FC07
F807
F807
F007
ENDCHAR
STARTCHAR 040E
ENCODING 1038
SWIDTH 540 0
DWIDTH 18 0
BBX 16 31 1 0
BITMAP
0818
0C30
0FF0
07E0
0000
0000
0000
E007
E007
F00F
700E
700E
381C
381C
3C1C
1C38
1C38
0E78
0E70
0E70
07E0
07E0
07E0
03C0
03C0
0380
0380
0780
3F00
3F00
3C00
ENDCHAR
STARTCHAR 040F
ENCODING 1039
SWIDTH 660 0
DWIDTH 22 0
BBX 16 29 3 -5
BITMAP
E007
E007
E007
E007
E007
E007
E007
E007
E007
E007
E007
E007
E007
E007
E007
E007
E007
E007
E007
E007
E007
FFFF
FFFF
FFFF
0180
0180
0180
0180
0180
ENDCHAR
STARTCHAR 0410
ENCODING 1040
SWIDTH 600 0
DWIDTH 20 0
BBX 20 24 0 0
BITMAP
00F000
00F000
00F800
01F800
01D800
019C00
039C00
038C00
030E00
070E00
070600
0E0700
0E0700
0E0300
1C0380
1FFF80
1FFFC0
3FFFC0
3801C0
3800E0
7000E0
7000E0
700070
E00070
ENDCHAR
STARTCHAR 0411
ENCODING 1041
SWIDTH 600 0
DWIDTH 20 0
BBX 15 24 3 0
BITMAP
FFFC
FFFC
FFFC
E000
E000
E000
E000
E000
E000
E000
FFF0
FFF8
FFFC
E01E
E00E
E00E
E00E
E00E
E00E
E00E
E01E
FFFC
FFF8
FFE0
ENDCHAR
STARTCHAR 0412
ENCODING 1042
SWIDTH 600 0
DWIDTH 20 0
BBX 15 24 3 0
BITMAP
FFE0
FFF8
FFF8
E03C
E01C
E01C
E01C
E01C
E01C
E078
FFF0
FFF0
FFF8
E01C
E00E
E00E
E00E
E00E
E00E
E00E
E01E
FFFC
FFF8
FFE0
ENDCHAR
STARTCHAR 0413
ENCODING 1043
SWIDTH 540 0
DWIDTH 18 0
BBX 13 24 3 0
BITMAP
FFF8
FFF8
FFF8
E000
E000
E000
E000
E000
E000
E000
E000
E000
E000
E000
E000
E000
E000
E000
E000
E000
E000
E000
E000
E000
ENDCHAR
STARTCHAR 0414
ENCODING 1044
SWIDTH 690 0
DWIDTH 23 0
BBX 21 29 1 -5
BITMAP
07FFC0
07FFC0
07FFC0
0701C0
0701C0
0701C0
0701C0
0701C0
0701C0
0701C0
0701C0
0701C0
0701C0
0701C0
0701C0
0701C0
0E01C0
0E01C0
0E01C0
1E01C0
1C01C0
FFFFF8
FFFFF8
FFFFF8
E00038
E00038
E00038
E00038
E00038
ENDCHAR
STARTCHAR 0415
ENCODING 1045
SWIDTH 570 0
DWIDTH 19 0
BBX 14 24 3 0
BITMAP
FFFC
FFFC
FFFC
E000
E000
E000
E000
E000
E000
E000
FFF8
FFF8
FFF8
E000
E000
E000
E000
E000
E000
E000
E000
FFFC
FFFC
FFFC
ENDCHAR
STARTCHAR 0416
ENCODING 1046
SWIDTH 960 0
DWIDTH 32 0
BBX 30 24 1 0
BITMAP
70030038
78030078
3C0300F0
1E0301E0
0E0301C0
07030380
03830700
03C30F00
01E31E00
00F33C00
01F33E00
01FB7E00
039FE700
039FE700
070FC380
0F078380
0E0301C0
1C0300E0
1C0300E0
38030070
38030070
70030038
F003001C
E003001C
ENDCHAR
STARTCHAR 0417
ENCODING 1047
SWIDTH 570 0
DWIDTH 19 0
BBX 15 24 2 1
BITMAP
7FE0
FFF8
F07C
801C
001C
000E
000E
001C
001C
0078
0FF0
0FF0
01F8
001C
001E
000E
000E
000E
000E
000E
801C
F0FC
FFF8
7FE0
ENDCHAR
STARTCHAR 0418
ENCODING 1048
SWIDTH 660 0
DWIDTH 22 0
BBX 16 24 3 0
BITMAP
E00F
E00F
E01F
E01F
E03F
E03F
E077
E077
E0E7
E0E7
E1C7
E1C7
E387
E387
E707
E707
EE07
EE07
FE07
FC07
FC07
F807
F807
F007
ENDCHAR
STARTCHAR 0419
ENCODING 1049
SWIDTH 660 0
DWIDTH 22 0
BBX 16 31 3 0
BITMAP
1818
0C30
0FF0
07E0
0000
0000
0000
E00F
E00F
E01F
E01F
E03F
E03F
E077
E077
E0E7
E0E7
E1C7
E1C7
E387
E387
E707
E707
EE07
EE07
FE07
FC07
FC07
F807
F807
F007
ENDCHAR
STARTCHAR 041A
ENCODING 1050
SWIDTH 630 0
DWIDTH 21 0
BBX 17 24 3 0
BITMAP
E00780
E00F00
E01E00
E03C00
E07800
E0F000
E0E000
E1C000
E3C000
E78000
EF8000
FFC000
FDE000
F8E000
F07000
E07000
E03800
E03C00
E01C00
E00E00
E00E00
E00700
E00780
E00380
ENDCHAR
STARTCHAR 041B
ENCODING 1051
SWIDTH 660 0
DWIDTH 22 0
BBX 18 24 1 0
BITMAP
03FFC0
03FFC0
03FFC0
0301C0
0301C0
0701C0
0701C0
0701C0
0701C0
0701C0
0701C0
0701C0
0701C0
0701C0
0701C0
0701C0
0701C0
0E01C0
0E01C0
1E01C0
3C01C0
F801C0
F001C0
C001C0
ENDCHAR
STARTCHAR 041C
ENCODING 1052
SWIDTH 780 0
DWIDTH 26 0
BBX 20 24 3 0
BITMAP
F001F0
F801F0
F803F0
F803F0
FC0370
EC0770
EC0770
EE0670
E60E70
E70E70
E70C70
E31C70
E39C70
E39870
E1B870
E1F870
E1F070
E0F070
E0F070
E00070
E00070
E00070
E00070
E00070
ENDCHAR
STARTCHAR 041D
ENCODING 1053
SWIDTH 660 0
DWIDTH 22 0
BBX 16 24 3 0
BITMAP
E007
E007
E007
E007
E007
E007
E007
E007
E007
E007
FFFF
FFFF
FFFF
E007
E007
E007
E007
E007
E007
E007
E007
E007
E007
E007
ENDCHAR
STARTCHAR 041E
ENCODING 1054
SWIDTH 690 0
DWIDTH 23 0
BBX 20 24 2 1
BITMAP
07FC00
0FFF00
1F0F80
3C0380
7801C0
7001E0
F000E0
E000E0
E000E0
E000F0
E00070
E00070
E00070
E00070
E000F0
E000E0
E000E0
F000E0
7001E0
7801C0
3C0380
1F0F80
0FFF00
07FC00
ENDCHAR
STARTCHAR 041F
ENCODING 1055
SWIDTH 660 0
DWIDTH 22 0
BBX 16 24 3 0
BITMAP
FFFF
FFFF
FFFF
E007
E007
E007
E007
E007
E007
E007
E007
E007
E007
E007
E007
E007
E007
E007
E007
E007
E007
E007
E007
E007
ENDCHAR
STARTCHAR 0420
ENCODING 1056
SWIDTH 540 0
DWIDTH 18 0
BBX 14 24 3 0
BITMAP
FFC0
FFF0
FFF8
E078
E03C
E01C
E01C
E01C
E01C
E03C
E038
E0F8
FFF0
FFE0
E000
E000
E000
E000
E000
E000
E000
E000
E000
E000
ENDCHAR
STARTCHAR 0421
ENCODING 1057
SWIDTH 630 0
DWIDTH 21 0
BBX 17 24 2 1
BITMAP
03FE00
0FFF80
1F0780
3C0180
780080
700000
F00000
E00000
E00000
E00000
E00000
E00000
E00000
E00000
E00000
E00000
E00000
F00000
700000
780080
3C0180
1F0780
0FFF80
03FE00
ENDCHAR
STARTCHAR 0422
ENCODING 1058
SWIDTH 540 0
DWIDTH 18 0
BBX 18 24 0 0
BITMAP
FFFFC0
FFFFC0
FFFFC0
00E000
00E000
00E000
00E000
00E000
00E000
00E000
00E000
00E000
00E000
00E000
00E000
00E000
00E000
00E000
00E000
00E000
00E000
00E000
00E000
00E000
ENDCHAR
STARTCHAR 0423
ENCODING 1059
SWIDTH 540 0
DWIDTH 18 0
BBX 16 24 1 0
BITMAP
E007
E007
F00F
700E
700E
381C
381C
3C1C
1C38
1C38
0E78
0E70
0E70
07E0
07E0
07E0
03C0
03C0
0380
0380
0780
3F00
3F00
3C00
ENDCHAR
STARTCHAR 0424
ENCODING 1060
SWIDTH 780 0
DWIDTH 26 0
BBX 22 24 2 0
BITMAP
007000
007000
01FC00
0FFF80
1FFFE0
3E71F0
787078
F07038
E07038
E0703C
E0701C
E0701C
E0701C
E0701C
E07038
F07038
787078
7C70F0
3FFFE0
0FFFC0
03FF00
007000
007000
007000
ENDCHAR
STARTCHAR 0425
ENCODING 1061
SWIDTH 600 0
DWIDTH 20 0
BBX 18 24 1 0
BITMAP
7003C0
380380
3C0700
1C0700
0E0E00
0E1E00
071C00
07B800
03B800
01F000
01F000
01E000
01F000
03F000
03B800
073800
0F1C00
0E1E00
1C0E00
1C0700
380700
780380
7003C0
E001C0
ENDCHAR
STARTCHAR 0426
ENCODING 1062
SWIDTH 690 0
DWIDTH 23 0
BBX 19 29 3 -5
BITMAP
E00700
E00700
E00700
E00700
E00700
E00700
E00700
E00700
E00700
E00700
E00700
E00700
E00700
E00700
E00700
E00700
E00700
E00700
E00700
E00700
E00700
FFFFE0
FFFFE0
FFFFE0
0000E0
0000E0
0000E0
0000E0
0000E0
ENDCHAR
STARTCHAR 0427
ENCODING 1063
SWIDTH 600 0
DWIDTH 20 0
BBX 14 24 3 0
BITMAP
C01C
C01C
C01C
C01C
C01C
C01C
C01C
E01C
E01C
E01C
F01C
7FFC
7FFC
1FFC
001C
001C
001C
001C
001C
001C
001C
001C
001C
001C
ENDCHAR
STARTCHAR 0428
ENCODING 1064
SWIDTH 960 0
DWIDTH 32 0
BBX 26 24 3 0
BITMAP
E01C01C0
E01C01C0
E01C01C0
E01C01C0
E01C01C0
E01C01C0
E01C01C0
E01C01C0
E01C01C0
E01C01C0
E01C01C0
E01C01C0
E01C01C0
E01C01C0
E01C01C0
E01C01C0
E01C01C0
E01C01C0
E01C01C0
E01C01C0
E01C01C0
FFFFFFC0
FFFFFFC0
FFFFFFC0
ENDCHAR
STARTCHAR 0429
ENCODING 1065
SWIDTH 960 0
DWIDTH 32 0
BBX 28 29 3 -5
BITMAP
E01C01C0
E01C01C0
E01C01C0
E01C01C0
E01C01C0
E01C01C0
E01C01C0
E01C01C0
E01C01C0
E01C01C0
E01C01C0
E01C01C0
E01C01C0
E01C01C0
E01C01C0
E01C01C0
E01C01C0
E01C01C0
E01C01C0
E01C01C0
E01C01C0
FFFFFFF0
FFFFFFF0
FFFFFFF0
00000030
00000030
00000030
00000030
00000030
ENDCHAR
STARTCHAR 042A
ENCODING 1066
SWIDTH 750 0
DWIDTH 25 0
BBX 22 24 1 0
BITMAP
FF8000
FF8000
FF8000
038000
038000
038000
038000
038000
038000
038000
03FFC0
03FFF0
03FFF0
038078
038038
03803C
03801C
03803C
03803C
038038
038078
03FFF0
03FFE0
03FF80
ENDCHAR
STARTCHAR 042B
ENCODING 1067
SWIDTH 780 0
DWIDTH 26 0
BBX 20 24 3 0
BITMAP
E00070
E00070
E00070
E00070
E00070
E00070
E00070
E00070
E00070
E00070
FFF070
FFF870
FFFC70
E01E70
E00E70
E00E70
E00E70
E00E70
E00E70
E00E70
E01E70
FFFC70
FFF870
FFE070
ENDCHAR
STARTCHAR 042C
ENCODING 1068
SWIDTH 600 0
DWIDTH 20 0
BBX 15 24 3 0
BITMAP
E000
E000
E000
E000
E000
E000
E000
E000
E000
E000
FFF0
FFF8
FFFC
E01E
E00E
E00E
E00E
E00E
E00E
E00E
E01E
FFFC
FFF8
FFE0
ENDCHAR
STARTCHAR 042D
ENCODING 1069
SWIDTH 630 0
DWIDTH 21 0
BBX 17 24 2 1
BITMAP
3FE000
FFF800
F07C00
C01E00
800E00
000700
000700
000780
000380
000380
000380
3FFF80
3FFF80
000380
000380
000380
000780
000700
000700
800E00
C01E00
F07C00
FFF800
3FE000
ENDCHAR
STARTCHAR 042E
ENCODING 1070
SWIDTH 960 0
DWIDTH 32 0
BBX 27 24 3 1
BITMAP
E007FC00
E01FFE00
E03E1F00
E0380780
E07803C0
E07001C0
E0E001E0
E0E000E0
E0E000E0
E1E000E0
E1C000E0
FFC000E0
FFC000E0
E1C000E0
E1E000E0
E0E000E0
E0E000E0
E0E001E0
E07001C0
E07803C0
E03C0780
E03E1F00
E00FFE00
E007FC00
ENDCHAR
ENDFONT
